/* XPM */
static char * maximize_xpm[] = {
"20 40 336 2",
"  	c None",
". 	c #000000",
"+ 	c #020102",
"@ 	c #060406",
"# 	c #0C070C",
"$ 	c #110A11",
"% 	c #130B12",
"& 	c #10090F",
"* 	c #0A060A",
"= 	c #050304",
"- 	c #010101",
"; 	c #010001",
"> 	c #050305",
", 	c #0D070D",
"' 	c #180E18",
") 	c #221522",
"! 	c #251725",
"~ 	c #1F131F",
"{ 	c #140C13",
"] 	c #090509",
"^ 	c #030203",
"/ 	c #030103",
"( 	c #150C14",
"_ 	c #261726",
": 	c #362135",
"< 	c #3B243A",
"[ 	c #311E30",
"} 	c #0F090F",
"| 	c #1C111B",
"1 	c #331F32",
"2 	c #482C46",
"3 	c #4E2F4C",
"4 	c #412740",
"5 	c #291928",
"6 	c #140C14",
"7 	c #070407",
"8 	c #050204",
"9 	c #080408",
"0 	c #100A10",
"a 	c #221521",
"b 	c #3C253B",
"c 	c #533352",
"d 	c #5A3859",
"e 	c #4B2E4A",
"f 	c #190F18",
"g 	c #040204",
"h 	c #080508",
"i 	c #0B060B",
"j 	c #0F090E",
"k 	c #180E17",
"l 	c #2A1929",
"m 	c #442A43",
"n 	c #5D395B",
"o 	c #643D62",
"p 	c #543353",
"q 	c #392338",
"r 	c #201320",
"s 	c #0A050A",
"t 	c #070307",
"u 	c #060306",
"v 	c #0B070B",
"w 	c #120B11",
"x 	c #170E17",
"y 	c #1D121C",
"z 	c #261725",
"A 	c #372237",
"B 	c #503150",
"C 	c #684066",
"D 	c #6E446D",
"E 	c #603B5F",
"F 	c #462B46",
"G 	c #2F1C2E",
"H 	c #120B12",
"I 	c #0D080D",
"J 	c #150D15",
"K 	c #211421",
"L 	c #2C1B2B",
"M 	c #342033",
"N 	c #3D263C",
"O 	c #4D2F4C",
"P 	c #784A77",
"Q 	c #7E4E7D",
"R 	c #724670",
"S 	c #5B385A",
"T 	c #462A45",
"U 	c #382238",
"V 	c #1B101B",
"W 	c #321F31",
"X 	c #422841",
"Y 	c #583657",
"Z 	c #663F65",
"` 	c #794B78",
" .	c #8B5589",
"..	c #90588E",
"+.	c #855283",
"@.	c #603A5E",
"#.	c #533251",
"$.	c #482C47",
"%.	c #2A1A2A",
"&.	c #1A0F19",
"*.	c #130B13",
"=.	c #4E304D",
"-.	c #663E64",
";.	c #744772",
">.	c #955B93",
",.	c #995E97",
"'.	c #7F4D7D",
").	c #6E436C",
"!.	c #613B60",
"~.	c #563455",
"{.	c #472B46",
"].	c #1F131E",
"^.	c #472C46",
"/.	c #543453",
"(.	c #5F3A5D",
"_.	c #6D436B",
":.	c #7F4E7D",
"<.	c #90598E",
"[.	c #955C93",
"}.	c #8B5689",
"|.	c #673F66",
"1.	c #5A3759",
"2.	c #4F304E",
"3.	c #412840",
"4.	c #2F1D2E",
"5.	c #1C111C",
"6.	c #040304",
"7.	c #321E31",
"8.	c #3C243B",
"9.	c #462B45",
"0.	c #563555",
"a.	c #6C426A",
"b.	c #7F4E7E",
"c.	c #643D63",
"d.	c #50314F",
"e.	c #382237",
"f.	c #2E1C2D",
"g.	c #211420",
"h.	c #090609",
"i.	c #221421",
"j.	c #3E263D",
"k.	c #6D436C",
"l.	c #744773",
"m.	c #4D2F4D",
"n.	c #372136",
"o.	c #281827",
"p.	c #180F18",
"q.	c #1A1019",
"r.	c #2C1B2C",
"s.	c #5F3B5E",
"t.	c #251625",
"u.	c #160D15",
"v.	c #0E080E",
"w.	c #080407",
"x.	c #3D253C",
"y.	c #553453",
"z.	c #5C385B",
"A.	c #4E2F4D",
"B.	c #341F33",
"C.	c #1C101B",
"D.	c #0D070C",
"E.	c #1B111B",
"F.	c #321F32",
"G.	c #412841",
"H.	c #362136",
"I.	c #20131F",
"J.	c #0C080C",
"K.	c #180F17",
"L.	c #070406",
"M.	c #0D090C",
"N.	c #120D11",
"O.	c #140E12",
"P.	c #100B0F",
"Q.	c #0A070A",
"R.	c #010201",
"S.	c #040402",
"T.	c #070804",
"U.	c #0A0C06",
"V.	c #0B0C07",
"W.	c #090A06",
"X.	c #060604",
"Y.	c #030301",
"Z.	c #010100",
"`.	c #000100",
" +	c #020400",
".+	c #050800",
"++	c #080F01",
"@+	c #0C1402",
"#+	c #0C1602",
"$+	c #0A1202",
"%+	c #060B01",
"&+	c #030500",
"*+	c #010200",
"=+	c #000200",
"-+	c #010400",
";+	c #040800",
">+	c #081100",
",+	c #0E1C00",
"'+	c #132601",
")+	c #152901",
"!+	c #112201",
"~+	c #0B1500",
"{+	c #050A00",
"]+	c #020300",
"^+	c #030700",
"/+	c #060E00",
"(+	c #0D1B00",
"_+	c #162D01",
":+	c #1F3C01",
"<+	c #214001",
"[+	c #1B3501",
"}+	c #112100",
"|+	c #081000",
"1+	c #030600",
"2+	c #020700",
"3+	c #040B00",
"4+	c #091300",
"5+	c #112300",
"6+	c #1E3A01",
"7+	c #284F02",
"8+	c #2B5402",
"9+	c #234502",
"0+	c #162C01",
"a+	c #020600",
"b+	c #040900",
"c+	c #060D00",
"d+	c #0B1700",
"e+	c #142900",
"f+	c #224401",
"g+	c #2F5C02",
"h+	c #326102",
"i+	c #295102",
"j+	c #1A3401",
"k+	c #0D1A00",
"l+	c #050B00",
"m+	c #010300",
"n+	c #060F00",
"o+	c #0E1D00",
"p+	c #183001",
"q+	c #264B02",
"r+	c #336402",
"s+	c #376B03",
"t+	c #2E5A02",
"u+	c #1F3D01",
"v+	c #030800",
"w+	c #020500",
"x+	c #091400",
"y+	c #102100",
"z+	c #152B00",
"A+	c #2D5802",
"B+	c #397002",
"C+	c #3D7703",
"D+	c #346702",
"E+	c #264B01",
"F+	c #193200",
"G+	c #112200",
"H+	c #0D1900",
"I+	c #0A1300",
"J+	c #070E00",
"K+	c #050C00",
"L+	c #122400",
"M+	c #172F00",
"N+	c #1C3801",
"O+	c #214301",
"P+	c #2A5401",
"Q+	c #376C02",
"R+	c #428103",
"S+	c #458703",
"T+	c #3E7903",
"U+	c #1E3C01",
"V+	c #142800",
"W+	c #091100",
"X+	c #244601",
"Y+	c #2A5301",
"Z+	c #305E02",
"`+	c #386D02",
" @	c #4C9404",
".@	c #4F9904",
"+@	c #498E04",
"@@	c #346602",
"#@	c #274D01",
"$@	c #203F01",
"%@	c #172D01",
"&@	c #0E1B00",
"*@	c #0A1400",
"=@	c #142801",
"-@	c #2A5302",
";@	c #386C03",
">@	c #3F7B03",
",@	c #498D04",
"'@	c #519E04",
")@	c #54A305",
"!@	c #458704",
"~@	c #3C7503",
"{@	c #356802",
"]@	c #274C02",
"^@	c #1C3701",
"/@	c #091200",
"(@	c #122401",
"_@	c #1D3901",
":@	c #264C02",
"<@	c #2D5902",
"[@	c #336403",
"}@	c #3B7303",
"|@	c #4E9904",
"1@	c #519E05",
"2@	c #4B9304",
"3@	c #418004",
"4@	c #386D03",
"5@	c #316002",
"6@	c #193201",
"7@	c #0F1E00",
"8@	c #204001",
"9@	c #2F5B02",
"0@	c #3B7203",
"a@	c #488D04",
"b@	c #366A03",
"c@	c #244602",
"d@	c #193001",
"e@	c #122301",
"f@	c #0A1500",
"g@	c #070D00",
"h@	c #172E01",
"i@	c #214101",
"j@	c #3F7A03",
"k@	c #376C03",
"l@	c #2A5102",
"m@	c #152A01",
"n@	c #060C00",
"o@	c #264A02",
"p@	c #132600",
"q@	c #0B1600",
"r@	c #316102",
"s@	c #2A5202",
"t@	c #203E01",
"u@	c #142700",
". . . . . . + @ # $ % & * = - . . . . . ",
". . . . . ; > , ' ) ! ~ { ] ^ ; . . . . ",
". . . . ; / ] ( _ : < [ ~ } > - . . . . ",
". . . ; + > # | 1 2 3 4 5 6 7 + . . . . ",
". ; + ^ 8 9 0 a b c d e [ f * g - ; . . ",
"; + > h i j k l m n o p q r $ s t g + ; ",
"+ u v w x y z A B C D E F G r ' H I 9 ^ ",
"g i J K L M N O o P Q R S T U G z V 0 9 ",
"@ 0 r W X O Y Z `  ...+.R @.#.$.< %.&.# ",
"7 *.! < =.S -.;.+.>.,...'.).!.~.{.1 ].} ",
"7 $ ) : ^./.(._.:.<.[.}.P |.1.2.3.4.5.I ",
"6.# k z 7.8.9.0.a.b.+.` c.d.X e.f.g.{ h.",
"+ u # 6 V i.L j.0.k.l.Z m.n.o.~ p.$ * > ",
"; + > h v 0 q.r.{.s.|.Y j.t.u.v.* @ g - ",
". . ; + g w.0 ) x.y.z.A.B.C.D.u / + ; . ",
". . . . ; g v E.F.$.=.G.%.J h + . . . . ",
". . . . . + h 6 z H.< 7.I.& u - . . . . ",
". . . . . - > J.K.a ! ].{ h.^ ; . . . . ",
". . . . . . + L.M.N.O.P.Q.= - . . . . . ",
". . . . . . R.S.T.U.V.W.X.Y.Z.. . . . . ",
". . . . . `. +.+++@+#+$+%+&+*+. . . . . ",
". . . `.=+-+;+>+,+'+)+!+~+{+]+`.. . . . ",
". . `.=+-+^+/+(+_+:+<+[+}+|+1+`.. . . . ",
". `.=+-+2+3+4+5+6+7+8+9+0+~+;+*+. . . . ",
". =+-+a+b+c+d+e+f+g+h+i+j+k+l+ +=+`.. . ",
"`.m+^+l+n+4+o+p+q+r+s+t+u+5+4+l+v+w+m+`.",
"*+1+c+x+(+y+z+u+A+B+C+D+E+F+G+H+I+J+;+ +",
" +K+d+L+M+N+O+P+Q+R+S+T+h+E+U+F+V+o+W+;+",
"^+>+G+[+X+Y+Z+`+R+ @.@+@T+@@A+#@$@%@&@c+",
";+*@=@$@-@h+;@>@,@'@)@.@!@~@{@g+]@^@}+|+",
"^+/@(@_@:@<@[@}@!@|@1@2@3@4@5@8+9+6@7@J+",
"w+c+H+=@[+8@q+9@0@S+a@R+b@8+c@U+d@e@f@{+",
"*+^+g@~+o+(@h@i@9@}@j@k@l@_@m@}+k+/@l+w+",
"`.*+w+b+n@>+(+h@o@r+k@g+8@p@q@J+{+^+ +*+",
". . `.*+ +v+>+L+$@<@r@i+[+,+c+1+m+*+`.. ",
". . . . `.-+K+o+[+]@s@9+0+q@;+m+`.. . . ",
". . . . . *+;+~+=@_@t@j+}+|+1+`.. . . . ",
". . . . . `.w+g@H+L+u@y+f@{+m+`.. . . . ",
". . . . . . *+^+c+/@*@|+{+w+`.. . . . . ",
". . . . . . `.*+w+^+v+1+ +*+. . . . . . "};
