/* XPM */
static char * hideI_xpm[] = {
"15 30 3 1",
" 	c #B6DAAEBAB6DA",
".	c #618561856185",
"X	c #000051446185",
"               ",
"...............",
"....XXXXXX.....",
"XXXX......XXXXX",
"   ........    ",
"..X......... ..",
"XXX..........XX",
"  ...........  ",
"..X......... ..",
"..X......... ..",
"..X........ ...",
"XXXX.......XXXX",
"     .....     ",
".....     .....",
"XXXXXXXXXXXXXXX",
"               ",
"...............",
"....XXXXXX.....",
"XXXXXXXXXXXXXXX",
"   XX......    ",
"..XX.......  ..",
"XXXX.......  XX",
"  .X.......    ",
"..XX.......  ..",
"..XX.......  ..",
"..XX......  ...",
"XXXXX..... XXXX",
"     .         ",
".....     .....",
"XXXXXXXXXXXXXXX"};
