/* XPM */
static char * menuButtonA_xpm[] = {
"15 30 3 1",
" 	c #B6DAAEBAB6DA",
".	c #861782078617",
"X	c #000051446185",
"               ",
"...............",
"...............",
"XXXXXXXXXXXXXXX",
"               ",
"...............",
"XXXXXXXXXXXXXXX",
"               ",
"...............",
"...............",
"...............",
"XXXXXXXXXXXXXXX",
"               ",
"...............",
"XXXXXXXXXXXXXXX",
"               ",
"...............",
"...............",
"XXXXXXXXXXXXXXX",
"               ",
"...............",
"XXXXXXXXXXXXXXX",
"               ",
"...............",
"...............",
"...............",
"XXXXXXXXXXXXXXX",
"               ",
"...............",
"XXXXXXXXXXXXXXX"};
