/* XPM */
static char * linux_xpm[] = {
"48 20 5 1",
" 	c none",
".	c #FFFFFFFFFFFF",
"X	c #000000000000",
"o	c #79E77DF779E7",
"O	c #28A228A228A2",
"                                                ",
"                                                ",
"            ..                                  ",
"   ...      ..X                    ...o    ..   ",
"   ...X      XX                     ...X   .oX  ",
"   ...X        ..     .. ...    ..  ...o  ..X   ",
"   ...X     .. ...    ..X...X   ..X  ...X .oX   ",
"   ...X     ..X....   ..X...X   ..X  ......X    ",
"   ...X     ..X.....  ..X...X   ..X   ....oX    ",
"   ...X     ..X...... ..X...X   ..X   ....X     ",
"   ...X     ..X..X......X...X   ..X   ....X     ",
"   ...X     ..X..X .....X...X   ..X   ....o     ",
"   ...X     ..X..X  ....X...X   ..O  ..X...X    ",
"   ...X     ..X..X   ...X ...  ..oX  .XX...o    ",
"   .......  ..X..X    ..X .......X  .oX  ...X   ",
"   .......X ..X XX     .X  X...oXX ..X   ...o   ",
"    XXXXXXX  XX         X    XXX   .XX    ...X  ",
"                                    X      XXX  ",
"                                                ",
"                                                "};
