/* XPM */
static char * frameAB_xpm[] = {
"1 5 3 1",
" 	c #28A24D344924",
".	c #18612CB228A2",
"X	c #000000000000",
" ",
".",
".",
".",
"X"};
