/* XPM */
static char * frameABR_xpm[] = {
"22 22 12 1",
" 	c None",
".	c #FFFFFF",
"+	c #2A2A2A",
"@	c #545454",
"#	c #7E7E7E",
"$	c #A8A8A8",
"%	c #D2D2D2",
"&	c #66707C",
"*	c #B0C1D6",
"=	c #9EADBF",
"-	c #8B98A8",
";	c #788492",
"................+@#$%&",
"................+@#$%&",
"................+@#$%&",
"................+@#$%&",
"................+@#$%&",
"................+@#$%&",
"................+@#$%&",
"................+@#$%&",
"................+@#$%&",
"................+@#$%&",
"................+@#$%&",
"................+@#$%&",
"................+@#$%&",
"................+@#$%&",
"................+@#$%&",
"................+@#$%&",
"@@@@@@@@@@@@@@@@@@@@@&",
"@********************&",
"@====================&",
"@--------------------&",
"@;;;;;;;;;;;;;;;;;;;;&",
"@&&&&&&&&&&&&&&&&&&&&&"};
