/* XPM */
static char * hideI_xpm[] = {
"18 36 5 1",
" 	c None",
".	c #B2B2B2",
"+	c #6A6D6A",
"@	c #EAEAEA",
"#	c #608090",
"..................",
"..++++++++++++++..",
".+.@@@@@@@@@@@@@+@",
".+@.............+@",
".+@.............+@",
".+@..+++...+++..+@",
".+@..+.......+..+@",
".+@..+.......+..+@",
".+@.............+@",
".+@.............+@",
".+@..+.......+..+@",
".+@..+.......+..+@",
".+@..+++...+++..+@",
".+@.............+@",
".+@.............+@",
".+@.............+@",
"..++++++++++++++..",
"..@@@@@@@@@@@@@@..",
"..................",
"..++++++++++++++..",
".+##############+.",
".+##############+.",
".+##############+.",
".+###+++###+++##+.",
".+###+#######+##+.",
".+###+#######+##+.",
".+##############+.",
".+##############+.",
".+###+#######+##+.",
".+###+#######+##+.",
".+###+++###+++##+.",
".+##############+.",
".+##############+.",
".+##############+.",
"..++++++++++++++..",
".................."};
