/* XPM */
static char * titleAR_xpm[] = {
"18 18 80 1",
" 	c None",
".	c #C0C0C0",
"+	c #4F6783",
"@	c #516984",
"#	c #526A84",
"$	c #516983",
"%	c #506882",
"&	c #4D657E",
"*	c #4C647B",
"=	c #4D667A",
"-	c #4F687C",
";	c #4C6579",
">	c #4C657B",
",	c #4F6880",
"'	c #4F6780",
")	c #526B86",
"!	c #526A83",
"~	c #506880",
"{	c #4D667D",
"]	c #4C667C",
"^	c #4F687E",
"/	c #526B81",
"(	c #4D667C",
"_	c #526A82",
":	c #4C647E",
"<	c #4B637D",
"[	c #526A86",
"}	c #516A84",
"|	c #516A83",
"1	c #506883",
"2	c #4E6780",
"3	c #4B647C",
"4	c #4D657F",
"5	c #506881",
"6	c #4D667F",
"7	c #4C647F",
"8	c #4C657F",
"9	c #536B85",
"0	c #546B85",
"a	c #506783",
"b	c #4D6580",
"c	c #4C637F",
"d	c #4D6481",
"e	c #4E6682",
"f	c #4F6882",
"g	c #506884",
"h	c #4D6581",
"i	c #4C6480",
"j	c #4E6783",
"k	c #4D6480",
"l	c #4D6582",
"m	c #4F6782",
"n	c #4D6682",
"o	c #4F6781",
"p	c #4C6580",
"q	c #4F6884",
"r	c #4E6681",
"s	c #4E6782",
"t	c #4F6784",
"u	c #4F6683",
"v	c #4F677F",
"w	c #4E6582",
"x	c #4E6683",
"y	c #516986",
"z	c #516985",
"A	c #506885",
"B	c #526A85",
"C	c #4E677B",
"D	c #536B87",
"E	c #4A627C",
"F	c #4E667B",
"G	c #4C657E",
"H	c #4F6883",
"I	c #506984",
"J	c #546C88",
"K	c #536B86",
"L	c #4A6279",
"M	c #4E6781",
"N	c #546C87",
"O	c #4B627D",
"..................",
"+@#$%&*=-;>,'.....",
")#!#~{]^/(^_~:<...",
"[}|12:344&'$5678..",
"901ab7cde4fg+hii..",
"$}jehk7l+bm+1enbg.",
"%ohpdhkqgbrstunh+.",
"v&ikwxqyz+AzB1l7b.",
"C:he+gz[DgzDD[+iE.",
"FGbrmHIDJHgBK@o:L.",
";>,'MMINJ+@#$%&*=.",
"(^_~:<Ojz)#!#~{]^.",
"&'$5678xz[}|12:34.",
"4fg+hiiHz901ab7c..",
"bm+1enbgz$}jehk7..",
"brstunh+z%ohpdh...",
"+AzB1l7bzv&ik.....",
".................."};
