/* XPM */
static char * taskbarbg_xpm[] = {
"5 30 31 1",
" 	c None",
".	c #6B828C",
"+	c #69818A",
"@	c #677F89",
"#	c #657E87",
"$	c #637C86",
"%	c #617A84",
"&	c #5F7983",
"*	c #5D7781",
"=	c #5C7580",
"-	c #5A747E",
";	c #58727D",
">	c #56707C",
",	c #546F7A",
"'	c #526D79",
")	c #506B77",
"!	c #4F6A76",
"~	c #4D6874",
"{	c #4B6673",
"]	c #496571",
"^	c #476370",
"/	c #45616F",
"(	c #43606D",
"_	c #425E6C",
":	c #405C6A",
"<	c #3E5B69",
"[	c #3C5967",
"}	c #3A5766",
"|	c #385664",
"1	c #365463",
"2	c #345361",
".....",
"+++++",
"@@@@@",
"#####",
"$$$$$",
"%%%%%",
"&&&&&",
"*****",
"=====",
"-----",
";;;;;",
">>>>>",
",,,,,",
"'''''",
")))))",
"!!!!!",
"~~~~~",
"{{{{{",
"]]]]]",
"^^^^^",
"/////",
"(((((",
"_____",
":::::",
"<<<<<",
"[[[[[",
"}}}}}",
"|||||",
"11111",
"22222"};
