/* XPM */
static char * closeA_xpm[] = {
"16 34 107 2",
"  	c None",
". 	c #000000",
"+ 	c #1F2E43",
"@ 	c #1D2B40",
"# 	c #151E2B",
"$ 	c #121A26",
"% 	c #1A2532",
"& 	c #151E2A",
"* 	c #1E2A38",
"= 	c #FFFFFF",
"- 	c #E7E8EA",
"; 	c #D1D3D6",
"> 	c #BBBEC3",
", 	c #A7ABB1",
"' 	c #9299A0",
") 	c #7F8791",
"! 	c #6C7681",
"~ 	c #56616E",
"{ 	c #17202B",
"] 	c #121923",
"^ 	c #D4D6D8",
"/ 	c #1E2937",
"( 	c #222E3D",
"_ 	c #263342",
": 	c #293747",
"< 	c #2D3C4C",
"[ 	c #314052",
"} 	c #2A3746",
"| 	c #0C1118",
"1 	c #293646",
"2 	c #C0C3C7",
"3 	c #3F546B",
"4 	c #354557",
"5 	c #283441",
"6 	c #1A2430",
"7 	c #17202C",
"8 	c #ADB1B6",
"9 	c #4B627A",
"0 	c #5F7790",
"a 	c #394A5C",
"b 	c #242F3A",
"c 	c #0D121A",
"d 	c #324253",
"e 	c #9AA0A7",
"f 	c #59708A",
"g 	c #3C4E61",
"h 	c #202A33",
"i 	c #1B2633",
"j 	c #1D2937",
"k 	c #899098",
"l 	c #6A849D",
"m 	c #405366",
"n 	c #1B232B",
"o 	c #0C131B",
"p 	c #767F89",
"q 	c #44576B",
"r 	c #161C22",
"s 	c #1B2736",
"t 	c #243243",
"u 	c #66717C",
"v 	c #485C71",
"w 	c #0F1318",
"x 	c #0C131D",
"y 	c #465A6F",
"z 	c #525E6B",
"A 	c #010101",
"B 	c #1A2839",
"C 	c #4B5F75",
"D 	c #1A273A",
"E 	c #50657C",
"F 	c #19283C",
"G 	c #1C2D42",
"H 	c #010102",
"I 	c #11151A",
"J 	c #181F25",
"K 	c #1E2730",
"L 	c #242E39",
"M 	c #293441",
"N 	c #2E3A48",
"O 	c #313E4E",
"P 	c #586572",
"Q 	c #4C6177",
"R 	c #44576C",
"S 	c #415367",
"T 	c #3D4E62",
"U 	c #6C7784",
"V 	c #7C97B0",
"W 	c #7B8590",
"X 	c #718BA4",
"Y 	c #8D959E",
"Z 	c #657F97",
"` 	c #2E3C4D",
" .	c #9EA4AC",
"..	c #546A83",
"+.	c #2A3748",
"@.	c #B0B5BA",
"#.	c #263343",
"$.	c #C2C6CA",
"%.	c #D6D8DA",
"&.	c #5C6875",
"*.	c #717C89",
"=.	c #838C97",
"-.	c #969DA6",
";.	c #AAAFB6",
">.	c #BDC1C6",
",.	c #D3D5D8",
"'.	c #E8E9EB",
". . . . . . . . . . . . . . . . ",
"+ + + + + + + + + + + + + + @ . ",
"# # # # # # # # # # # # # # $ . ",
"% % . . . . . . . . . . . % & . ",
"* * . = - ; > , ' ) ! ~ . * { . ",
"] ] . ^ % / ( _ : < [ } . ] | . ",
"1 1 . 2 / 3 _ : < [ 4 5 . 1 6 . ",
"7 7 . 8 ( _ 9 < [ 0 a b . 7 c . ",
"d d . e _ : < f 0 a g h . d i . ",
"j j . k : < f 4 a l m n . j o . ",
"g g . p < f 4 a g m q r . g s . ",
"t t . u [ 4 a g m q v w . t x . ",
"y y . z } 5 b h n r w A . y B . ",
"C C . . . . . . . . . . . C D . ",
"E E E E E E E E E E E E E E F . ",
"G G G G G G G G G G G G G G G . ",
". . . . . . . . . . . . . . . . ",
". . . . . . . . . . . . . . . . ",
"+ + + + + + + + + + + + + + @ . ",
"# # # # # # # # # # # # # # $ . ",
"% % . . . . . . . . . . . % & . ",
"* * . H I J K L M N O P . * { . ",
"] ] . I E Q v R S T a U . ] | . ",
"1 1 . J Q V R S T a 4 W . 1 6 . ",
"7 7 . K v R X T a 0 [ Y . 7 c . ",
"d d . L R S T Z 0 [ `  .. d i . ",
"j j . M S T Z 4 [ ..+.@.. j o . ",
"g g . N T Z 4 [ ` +.#.$.. g s . ",
"t t . O a 4 [ ` +.#.( %.. t x . ",
"y y . &.*.=.-.;.>.,.'.= . y B . ",
"C C . . . . . . . . . . . C D . ",
"E E E E E E E E E E E E E E F . ",
"G G G G G G G G G G G G G G G . ",
". . . . . . . . . . . . . . . . "};
