/* XPM */
static char * maximizeA_xpm[] = {
"13 34 102 2",
"  	c None",
". 	c #000000",
"+ 	c #1F2E43",
"@ 	c #151E2B",
"# 	c #1A2532",
"$ 	c #1E2A38",
"% 	c #FFFFFF",
"& 	c #E7E8EA",
"* 	c #D1D3D6",
"= 	c #BBBEC3",
"- 	c #A7ABB1",
"; 	c #9299A0",
"> 	c #7F8791",
", 	c #6C7681",
"' 	c #56616E",
") 	c #121923",
"! 	c #D4D6D8",
"~ 	c #1E2937",
"{ 	c #222E3D",
"] 	c #263342",
"^ 	c #293747",
"/ 	c #2D3C4C",
"( 	c #314052",
"_ 	c #2A3746",
": 	c #293646",
"< 	c #C0C3C7",
"[ 	c #3F546B",
"} 	c #465C73",
"| 	c #4B627A",
"1 	c #526A81",
"2 	c #59708A",
"3 	c #354557",
"4 	c #283441",
"5 	c #17202C",
"6 	c #ADB1B6",
"7 	c #5F7790",
"8 	c #394A5C",
"9 	c #242F3A",
"0 	c #324253",
"a 	c #9AA0A7",
"b 	c #364658",
"c 	c #657F97",
"d 	c #3C4E61",
"e 	c #202A33",
"f 	c #1D2937",
"g 	c #899098",
"h 	c #4D647A",
"i 	c #6A849D",
"j 	c #405366",
"k 	c #1B232B",
"l 	c #767F89",
"m 	c #708BA3",
"n 	c #44576B",
"o 	c #161C22",
"p 	c #243243",
"q 	c #66717C",
"r 	c #485C71",
"s 	c #0F1318",
"t 	c #465A6F",
"u 	c #525E6B",
"v 	c #010101",
"w 	c #4B5F75",
"x 	c #50657C",
"y 	c #1C2D42",
"z 	c #010102",
"A 	c #11151A",
"B 	c #181F25",
"C 	c #1E2730",
"D 	c #242E39",
"E 	c #293441",
"F 	c #2E3A48",
"G 	c #313E4E",
"H 	c #586572",
"I 	c #4C6177",
"J 	c #44576C",
"K 	c #415367",
"L 	c #3D4E62",
"M 	c #6C7784",
"N 	c #7C97B0",
"O 	c #7690AA",
"P 	c #718BA4",
"Q 	c #6B849E",
"R 	c #7B8590",
"S 	c #8D959E",
"T 	c #2E3C4D",
"U 	c #9EA4AC",
"V 	c #657D96",
"W 	c #546A83",
"X 	c #2A3748",
"Y 	c #B0B5BA",
"Z 	c #4D627C",
"` 	c #263343",
" .	c #C2C6CA",
"..	c #D6D8DA",
"+.	c #5C6875",
"@.	c #717C89",
"#.	c #838C97",
"$.	c #969DA6",
"%.	c #AAAFB6",
"&.	c #BDC1C6",
"*.	c #D3D5D8",
"=.	c #E8E9EB",
". . . . . . . . . . . . . ",
"+ + + + + + + + + + + + + ",
"@ @ @ @ @ @ @ @ @ @ @ @ @ ",
"# . . . . . . . . . . . # ",
"$ . % & * = - ; > , ' . $ ",
") . ! # ~ { ] ^ / ( _ . ) ",
": . < ~ [ } | 1 2 3 4 . : ",
"5 . 6 { } | 1 2 7 8 9 . 5 ",
"0 . a ] | / ( b c d e . 0 ",
"f . g ^ h ( 3 8 i j k . f ",
"d . l / 2 7 c i m n o . d ",
"p . q ( 3 8 d j n r s . p ",
"t . u _ 4 9 e k o s v . t ",
"w . . . . . . . . . . . w ",
"x x x x x x x x x x x x x ",
"y y y y y y y y y y y y y ",
". . . . . . . . . . . . . ",
". . . . . . . . . . . . . ",
"+ + + + + + + + + + + + + ",
"@ @ @ @ @ @ @ @ @ @ @ @ @ ",
"# . . . . . . . . . . . # ",
"$ . z A B C D E F G H . $ ",
") . A x I r J K L 8 M . ) ",
": . B I N O P Q c 3 R . : ",
"5 . C r O P Q c 7 ( S . 5 ",
"0 . D J P L 8 b 2 T U . 0 ",
"f . E K V 8 3 ( W X Y . f ",
"d . F L c 7 2 W Z `  .. d ",
"p . G 8 3 ( T X ` { ... p ",
"t . +.@.#.$.%.&.*.=.% . t ",
"w . . . . . . . . . . . w ",
"x x x x x x x x x x x x x ",
"y y y y y y y y y y y y y ",
". . . . . . . . . . . . . "};
