/* XPM */
static char * n8_xpm[] = {
"14 20 3 1",
" 	c None",
".	c #C6C6C6",
"+	c #52719C",
"..............",
"..............",
"...++++++++...",
"..++++++++++..",
"..++......++..",
"..++......++..",
"..++......++..",
"..++......++..",
"..++......++..",
"...++++++++...",
"...++++++++...",
"..++......++..",
"..++......++..",
"..++......++..",
"..++......++..",
"..++......++..",
"..++++++++++..",
"...++++++++...",
"..............",
".............."};
