/* XPM */
static char * n1_xpm[] = {
"14 20 12 1",
" 	c None",
".	c #DDDDDD",
"+	c #414041",
"@	c #585658",
"#	c #B2AFB2",
"$	c #6D6C6D",
"%	c #AFACAF",
"&	c #999799",
"*	c #2C2B2C",
"=	c #000000",
"-	c #161616",
";	c #838183",
"..............",
"..............",
"..........+@..",
".........@+#..",
".......#$%$...",
".......#.@#...",
"........#+....",
"........@&....",
".......#*.....",
".......@$.....",
"......#=......",
"......@+......",
".....#=&......",
".....*=.......",
"....&=+.......",
"....-=;.......",
"...@==#.......",
"..;===........",
".&-@;&........",
".&#..........."};
