/* XPM */
static char * n3_xpm[] = {
"14 20 11 1",
" 	c None",
".	c #DDDDDD",
"+	c #B2AFB2",
"@	c #999799",
"#	c #585658",
"$	c #414041",
"%	c #2C2B2C",
"&	c #838183",
"*	c #000000",
"=	c #6D6C6D",
"-	c #161616",
"..............",
".........+@...",
".......@#$$%&.",
"......&@...&*@",
".....&+.....*$",
".....&.....+*$",
"....&......#*@",
"..........=*&.",
"........+%#+..",
".......#*=....",
"......&+@--+..",
".........=*#..",
".........+*$..",
".........+*$..",
"+#$-$#@..=*@..",
"*-&+..&&@-#...",
"%.......%-....",
"=......$$+&...",
"-+...@%=......",
"@=#&$&........"};
