/* XPM */
static char * n5_xpm[] = {
"14 20 57 1",
" 	c None",
".	c #E4E4E4",
"+	c #A7A7A7",
"@	c #092101",
"#	c #051300",
"$	c #0D2C01",
"%	c #18350C",
"&	c #2E4823",
"*	c #223F17",
"=	c #071900",
"-	c #1C2C16",
";	c #485543",
">	c #32412D",
",	c #113701",
"'	c #2A4C1B",
")	c #5B7550",
"!	c #214512",
"~	c #082000",
"{	c #263B1F",
"]	c #63725E",
"^	c #11280A",
"/	c #154201",
"(	c #365C24",
"_	c #77916B",
":	c #4B6D3B",
"<	c #0A2800",
"[	c #16320D",
"}	c #304928",
"|	c #64775E",
"1	c #7E8E79",
"2	c #4A6043",
"3	c #194D01",
"4	c #769568",
"5	c #91AA86",
"6	c #416C2D",
"7	c #0C3100",
"8	c #788D72",
"9	c #98A793",
"0	c #3A5831",
"a	c #1C5800",
"b	c #4C7B36",
"c	c #8BA97D",
"d	c #7B9E6B",
"e	c #ABC1A1",
"f	c #6B9259",
"g	c #0E3A00",
"h	c #315726",
"i	c #9FB09A",
"j	c #B2C0AE",
"k	c #688460",
"l	c #1F4813",
"m	c #206300",
"n	c #104300",
"o	c #246E00",
"p	c #B7D0AA",
"q	c #454545",
"r	c #151515",
"..............",
"++++++++++++++",
"@@@@@@@@@@@@@@",
"##############",
"$$$%&&&&&*$$$$",
"===-;;;;;>====",
",,,')''''!,,,,",
"~~~{]{{^~~~~~~",
"///(____://///",
"<<<[}}|112<<<<",
"33333334556333",
"77777778990777",
"aaabcdceefaaaa",
"ggghijjjklgggg",
"mmmmmmmmmmmmmm",
"nnnnnnnnnnnnnn",
"oooooooooooooo",
"pppppppppppppp",
"qqqqqqqqqqqqqq",
"rrrrrrrrrrrrrr"};
