/* XPM */
static char * titleIR_xpm[] = {
"3 20 37 1",
" 	c None",
".	c #E4E4E4",
"+	c #A7A7A7",
"@	c #8B8B8B",
"#	c #A1A1A1",
"$	c #868686",
"%	c #9B9B9B",
"&	c #828282",
"*	c #969696",
"=	c #7D7D7D",
"-	c #909090",
";	c #787878",
">	c #8A8A8A",
",	c #747474",
"'	c #848484",
")	c #707070",
"!	c #7F7F7F",
"~	c #6B6B6B",
"{	c #797979",
"]	c #666666",
"^	c #737373",
"/	c #616161",
"(	c #6D6D6D",
"_	c #5D5D5D",
":	c #676767",
"<	c #595959",
"[	c #626262",
"}	c #545454",
"|	c #5C5C5C",
"1	c #4F4F4F",
"2	c #565656",
"3	c #4A4A4A",
"4	c #505050",
"5	c #464646",
"6	c #4B4B4B",
"7	c #454545",
"8	c #151515",
"...",
"+++",
"@##",
"$%%",
"&**",
"=--",
";>>",
",''",
")!!",
"~{{",
"]^^",
"/((",
"_::",
"<[[",
"}||",
"122",
"344",
"566",
"777",
"888"};
