/* XPM */
static char * titleIL_xpm[] = {
"3 20 37 1",
" 	c None",
".	c #E4E4E4",
"+	c #A7A7A7",
"@	c #A1A1A1",
"#	c #8B8B8B",
"$	c #9B9B9B",
"%	c #868686",
"&	c #969696",
"*	c #828282",
"=	c #909090",
"-	c #7D7D7D",
";	c #8A8A8A",
">	c #787878",
",	c #848484",
"'	c #747474",
")	c #7F7F7F",
"!	c #707070",
"~	c #797979",
"{	c #6B6B6B",
"]	c #737373",
"^	c #666666",
"/	c #6D6D6D",
"(	c #616161",
"_	c #676767",
":	c #5D5D5D",
"<	c #626262",
"[	c #595959",
"}	c #5C5C5C",
"|	c #545454",
"1	c #565656",
"2	c #4F4F4F",
"3	c #505050",
"4	c #4A4A4A",
"5	c #4B4B4B",
"6	c #464646",
"7	c #454545",
"8	c #151515",
"...",
"+++",
"@@#",
"$$%",
"&&*",
"==-",
";;>",
",,'",
"))!",
"~~{",
"]]^",
"//(",
"__:",
"<<[",
"}}|",
"112",
"334",
"556",
"777",
"888"};
