/* XPM */
static char * frameAL_xpm[] = {
"2 2 3 1",
" 	c None",
".	c #4C4C4C",
"+	c #C9C9C9",
".+",
".+"};
