/* XPM */
static char * titleAB_xpm[] = {
"2 13 3 1",
" 	c None",
".	c #666666",
"+	c #888F99",
"..",
"++",
"..",
"++",
"..",
"++",
"..",
"++",
"..",
"++",
"..",
"++",
".."};
