/* XPM */
static char * titleAM_xpm[] = {
"15 23 297 2",
"  	c None",
". 	c #325E97",
"+ 	c #315F98",
"@ 	c #345C93",
"# 	c #335183",
"$ 	c #28467F",
"% 	c #334D89",
"& 	c #657599",
"* 	c #9FA4B3",
"= 	c #E0E0E0",
"- 	c #E9E9E9",
"; 	c #EEEEEE",
"> 	c #F0F0F0",
", 	c #808483",
"' 	c #80A1C7",
") 	c #80A1C6",
"! 	c #7EA0C9",
"~ 	c #7199CB",
"{ 	c #648DC7",
"] 	c #4771B2",
"^ 	c #234989",
"/ 	c #19386C",
"( 	c #657B9A",
"_ 	c #9AAAC1",
": 	c #E2E2E2",
"< 	c #EBEBEB",
"[ 	c #FFFFFF",
"} 	c #A6BED8",
"| 	c #A6BED6",
"1 	c #9FBAD0",
"2 	c #98B6D3",
"3 	c #8DB1D7",
"4 	c #6A95C6",
"5 	c #2D5D99",
"6 	c #053878",
"7 	c #1C4B8D",
"8 	c #8F98AE",
"9 	c #DCDCDC",
"0 	c #EAEAEA",
"a 	c #AFC7E1",
"b 	c #B0C7E2",
"c 	c #AEC7E1",
"d 	c #AAC5DE",
"e 	c #A8C4DE",
"f 	c #A6C3E4",
"g 	c #97BAE5",
"h 	c #6892C9",
"i 	c #205596",
"j 	c #033B81",
"k 	c #25447F",
"l 	c #8E9AAD",
"m 	c #DFDFDF",
"n 	c #EDEDED",
"o 	c #B2CAE5",
"p 	c #B3CBE6",
"q 	c #B1CAE6",
"r 	c #AFC9E4",
"s 	c #AEC7DF",
"t 	c #ADC3E0",
"u 	c #A7C3E8",
"v 	c #85ACDD",
"w 	c #417AB8",
"x 	c #1555A0",
"y 	c #0B3F8C",
"z 	c #42618F",
"A 	c #CCCCCC",
"B 	c #E6E6E6",
"C 	c #B0CBE8",
"D 	c #B1CBE8",
"E 	c #AEC9E8",
"F 	c #AAC8E6",
"G 	c #ACC5E2",
"H 	c #AAC1DE",
"I 	c #A1BDE0",
"J 	c #7FA7D6",
"K 	c #4A83C0",
"L 	c #286BB4",
"M 	c #1558AB",
"N 	c #1B4C8D",
"O 	c #6A809D",
"P 	c #DADADA",
"Q 	c #9BBCDE",
"R 	c #9CBDDF",
"S 	c #9BBCDF",
"T 	c #99BBDF",
"U 	c #94B3D8",
"V 	c #8EAED2",
"W 	c #86AAD2",
"X 	c #6C99C8",
"Y 	c #4E86BE",
"Z 	c #3C7BBA",
"` 	c #2B6FBA",
" .	c #2059A0",
"..	c #456693",
"+.	c #C9C9C9",
"@.	c #88AFD6",
"#.	c #8AAFD7",
"$.	c #85ADD5",
"%.	c #7FABD6",
"&.	c #7DA8D5",
"*.	c #78A5D3",
"=.	c #75A4D4",
"-.	c #689ACC",
";.	c #5F93C7",
">.	c #5389BE",
",.	c #407EB7",
"'.	c #326CB0",
").	c #2D5B9B",
"!.	c #8F97A4",
"~.	c #D9D9D9",
"{.	c #8BB4DE",
"].	c #89B3DE",
"^.	c #86B4E3",
"/.	c #85B4E5",
"(.	c #7BACDF",
"_.	c #74A6DA",
":.	c #6EA1D3",
"<.	c #6FA0D0",
"[.	c #6696C4",
"}.	c #5087B7",
"|.	c #3C78B7",
"1.	c #2E64A7",
"2.	c #647692",
"3.	c #CBCBCB",
"4.	c #96B9E1",
"5.	c #97BAE2",
"6.	c #96B8E2",
"7.	c #94B7E5",
"8.	c #91B6E3",
"9.	c #8BB0DD",
"0.	c #85ACD9",
"a.	c #80ABD8",
"b.	c #78A4D1",
"c.	c #6F9BC8",
"d.	c #608EC6",
"e.	c #4985C8",
"f.	c #306EB0",
"g.	c #61758F",
"h.	c #BEBEBE",
"i.	c #9CBFE7",
"j.	c #9DC0E8",
"k.	c #9CBEE8",
"l.	c #99BCE8",
"m.	c #96BBE7",
"n.	c #8BB2DF",
"o.	c #85B0DD",
"p.	c #7DA9D6",
"q.	c #74A0CE",
"r.	c #6B99D0",
"s.	c #5690CF",
"t.	c #3E77B4",
"u.	c #667890",
"v.	c #B7B7B7",
"w.	c #A6C9F0",
"x.	c #A5C8EF",
"y.	c #A1C5ED",
"z.	c #9EC4EC",
"A.	c #99BFE8",
"B.	c #93BCE7",
"C.	c #8DB8E4",
"D.	c #84B0DD",
"E.	c #7BA7D6",
"F.	c #6F9DD4",
"G.	c #5D94CE",
"H.	c #4E7FB4",
"I.	c #758397",
"J.	c #B5B5B5",
"K.	c #B0D3F7",
"L.	c #B0D4F8",
"M.	c #AED2F6",
"N.	c #AAD0F2",
"O.	c #A8CEF2",
"P.	c #A2C8EF",
"Q.	c #9BC4ED",
"R.	c #94BFEA",
"S.	c #8BB7E4",
"T.	c #81ADDD",
"U.	c #74A3D9",
"V.	c #6798CD",
"W.	c #648BB6",
"X.	c #8992A2",
"Y.	c #B8B8B8",
"Z.	c #B9DEFB",
"`.	c #BADFFC",
" +	c #B8DDF9",
".+	c #B5DBF7",
"++	c #B2D9F8",
"@+	c #ACD3F7",
"#+	c #A3CCF4",
"$+	c #9CC7F1",
"%+	c #91BDEA",
"&+	c #86B2E2",
"*+	c #7AACE0",
"=+	c #709ACA",
"-+	c #6E87A4",
";+	c #8D8F94",
">+	c #C1C1C1",
",+	c #C3E8FD",
"'+	c #C4E9FE",
")+	c #C2E7FC",
"!+	c #BFE5FE",
"~+	c #BCE3FE",
"{+	c #B5DCFD",
"]+	c #ACD5FA",
"^+	c #A2CDF7",
"/+	c #96C1EE",
"(+	c #8AB7E6",
"_+	c #7BADE2",
":+	c #7197C2",
"<+	c #71849C",
"[+	c #A4A4A4",
"}+	c #D0D0D0",
"|+	c #C9F0FF",
"1+	c #C9EFFF",
"2+	c #C5ECFF",
"3+	c #C2EAFF",
"4+	c #BBE3FF",
"5+	c #B1DBFF",
"6+	c #A6D2FB",
"7+	c #9AC6F2",
"8+	c #8EBBEA",
"9+	c #7BADE1",
"0+	c #708EAF",
"a+	c #8B8E92",
"b+	c #BDBDBD",
"c+	c #D2F5FE",
"d+	c #D3F5FE",
"e+	c #D0F4FE",
"f+	c #C6F2FF",
"g+	c #BFEEFF",
"h+	c #B6E7FF",
"i+	c #ADDFFF",
"j+	c #A5D7FF",
"k+	c #9AC8F9",
"l+	c #8FB8E9",
"m+	c #8999B4",
"n+	c #828A9B",
"o+	c #ACACAC",
"p+	c #D4D4D4",
"q+	c #CBF7FF",
"r+	c #C6F1FF",
"s+	c #BCEAFF",
"t+	c #B2E4FF",
"u+	c #B0DFFF",
"v+	c #AAD5FE",
"w+	c #94BAE5",
"x+	c #81A1CA",
"y+	c #7E8798",
"z+	c #979797",
"A+	c #C5C5C5",
"B+	c #EFEFEF",
"C+	c #C8F7FF",
"D+	c #C9F8FF",
"E+	c #C8F6FF",
"F+	c #C7EFFF",
"G+	c #C0EAFF",
"H+	c #B3DFFA",
"I+	c #A5CCE9",
"J+	c #93B4D2",
"K+	c #778DA8",
"L+	c #6A7C91",
"M+	c #909090",
"N+	c #9EBED1",
"O+	c #9FBED2",
"P+	c #9EBDD0",
"Q+	c #9ABBCE",
"R+	c #94B5CB",
"S+	c #84A4BC",
"T+	c #70899D",
"U+	c #6D7D8C",
"V+	c #7C7E80",
"W+	c #989898",
"X+	c #D5D5D5",
"Y+	c #E8E8E8",
"Z+	c #5A6672",
"`+	c #5B6673",
" @	c #5B6A74",
".@	c #60707B",
"+@	c #677581",
"@@	c #7C8184",
"#@	c #939393",
"$@	c #AEAEAE",
"%@	c #C6C6C6",
"&@	c #CECECE",
"*@	c #929292",
"=@	c #959595",
"-@	c #9E9E9E",
";@	c #B0B0B0",
">@	c #C3C3C3",
",@	c #D7D7D7",
"'@	c #D0D0CE",
")@	c #CECECC",
"!@	c #CDCDCB",
"~@	c #C8C8C8",
"{@	c #767573",
"]@	c #777674",
"^@	c #757472",
". + @ # $ % & * = - ; > , , , ",
"' ) ! ~ { ] ^ / ( _ : < > [ [ ",
"} } | 1 2 3 4 5 6 7 8 9 0 > [ ",
"a b c d e f g h i j k l m n > ",
"o p q r s t u v w x y z A B > ",
"C D E F G H I J K L M N O P n ",
"Q R S T U V W X Y Z `  ...+.B ",
"@.#.$.%.&.*.=.-.;.>.,.'.).!.~.",
"{.{.].^./.(._.:.<.[.}.|.1.2.3.",
"4.5.6.7.8.9.0.a.b.c.d.e.f.g.h.",
"i.j.k.l.m.8.n.o.p.q.r.s.t.u.v.",
"w.w.x.y.z.A.B.C.D.E.F.G.H.I.J.",
"K.L.M.N.O.P.Q.R.S.T.U.V.W.X.Y.",
"Z.`. +.+++@+#+$+%+&+*+=+-+;+>+",
",+'+)+!+~+{+]+^+/+(+_+:+<+[+}+",
"|+|+1+2+3+4+5+6+7+8+9+0+a+b+m ",
"c+d+e+f+g+h+i+j+k+l+m+n+o+p+0 ",
"q+q+q+r+s+t+u+v+w+x+y+z+A+: B+",
"C+D+E+F+G+H+I+J+K+L+M+Y.P < 0 ",
"N+O+P+Q+R+S+T+U+V+W+Y.X+Y+> ~.",
"Z+`+`+ @.@+@@@#@$@%@P Y+B+&@&@",
"*@*@*@*@=@-@;@>@,@: < > '@)@!@",
"%@%@%@%@~@&@,@: < B+{@]@]@{@^@"};
