/* XPM */
static char * titleAR_xpm[] = {
"4 18 3 1",
" 	c None",
".	c #684075",
"+	c #C0C0C0",
".+++",
"..++",
"...+",
"...+",
"...+",
"...+",
"...+",
"...+",
"...+",
"...+",
"...+",
"...+",
"...+",
"...+",
"...+",
"...+",
"..++",
"++++"};
