/* XPM */
static char * taskbuttonbg_xpm[] = {
"8 25 20 1",
" 	c None",
".	c #D2D2D2",
"+	c #D1D1D1",
"@	c #D0D0D0",
"#	c #CECECE",
"$	c #CCCCCC",
"%	c #CBCBCB",
"&	c #C9C9C9",
"*	c #C7C7C7",
"=	c #C6C6C6",
"-	c #C4C4C4",
";	c #C3C3C3",
">	c #C1C1C1",
",	c #BEBEBE",
"'	c #BDBDBD",
")	c #BCBCBC",
"!	c #BABABA",
"~	c #B8B8B8",
"{	c #B7B7B7",
"]	c #B6B6B6",
"........",
"++++++++",
"@@@@@@@@",
"@@@@@@@@",
"########",
"$$$$$$$$",
"%%%%%%%%",
"&&&&&&&&",
"&&&&&&&&",
"********",
"********",
"========",
"--------",
";;;;;;;;",
">>>>>>>>",
">>>>>>>>",
",,,,,,,,",
",,,,,,,,",
"''''''''",
"))))))))",
"!!!!!!!!",
"~~~~~~~~",
"{{{{{{{{",
"]]]]]]]]",
"]]]]]]]]"};
