/* XPM */
static char *restoreI[] = {
/* columns rows colors chars-per-pixel */
"16 38 163 2",
"   c #1D1D1C1C1515",
".  c #2E2E2D2D2E2E",
"X  c #3C3C3C3C3232",
"o  c #40403F3F2F2F",
"O  c #414140403030",
"+  c #424241413131",
"@  c #444444443232",
"#  c #454544443333",
"$  c #464645453232",
"%  c #464645453333",
"&  c #474746463333",
"*  c #474746463434",
"=  c #484847473434",
"-  c #484847473636",
";  c #494948483636",
":  c #4C4C4B4B3939",
">  c #4C4C4B4B3C3C",
",  c #4E4E4D4D3B3B",
"<  c #4E4E4D4D3D3D",
"1  c #4E4E4C4C3F3F",
"2  c #525250503B3B",
"3  c #525251513B3B",
"4  c #515150503C3C",
"5  c #525250503D3D",
"6  c #545452523C3C",
"7  c #545452523D3D",
"8  c #575755553E3E",
"9  c #575756563F3F",
"0  c #4A4A4D4D4A4A",
"q  c #515150504040",
"w  c #545453534141",
"e  c #565655554747",
"r  c #565654544848",
"t  c #585857574040",
"y  c #595957574040",
"u  c #595958584242",
"i  c #5A5A58584141",
"p  c #595958584444",
"a  c #5A5A59594646",
"s  c #5C5C5B5B4343",
"d  c #5E5E5C5C4343",
"f  c #5F5F5D5D4444",
"g  c #5C5C5B5B4F4F",
"h  c #5E5E5D5D4949",
"j  c #5E5E5D5D4C4C",
"k  c #5E5E5D5D4F4F",
"l  c #616160604646",
"z  c #626260604747",
"x  c #636361614747",
"c  c #636361614D4D",
"v  c #656563634848",
"b  c #656564644F4F",
"n  c #6E6E6C6C4F4F",
"m  c #626261615050",
"M  c #626261615151",
"N  c #666665655151",
"B  c #6D6D6B6B5353",
"V  c #6E6E6C6C5151",
"C  c #6F6F6D6D5555",
"Z  c #6E6E6C6C5E5E",
"A  c #6E6E6D6D5E5E",
"S  c #71716F6F5252",
"D  c #727270705252",
"F  c #747473735454",
"G  c #717170705F5F",
"H  c #747473735959",
"J  c #777776765A5A",
"K  c #7C7C7A7A5A5A",
"L  c #7C7C7A7A5B5B",
"P  c #7C7C7A7A5F5F",
"I  c #7E7E7C7C5B5B",
"U  c #7F7F7D7D5C5C",
"Y  c #70706F6F6161",
"T  c #71716F6F6767",
"R  c #727271716060",
"E  c #757573736969",
"W  c #747472726B6B",
"Q  c #777775756D6D",
"!  c #7E7E7D7D6A6A",
"~  c #80807E7E5D5D",
"^  c #81817E7E5D5D",
"/  c #81817F7F5D5D",
"(  c #848482825F5F",
")  c #838381816060",
"_  c #848481816060",
"`  c #858583836060",
"'  c #848482826363",
"]  c #858583836464",
"[  c #878785856262",
"{  c #878785856565",
"}  c #888886866363",
"|  c #8A8A87876363",
" . c #888886866565",
".. c #888886866666",
"X. c #898987876767",
"o. c #8B8B88886464",
"O. c #8C8C8A8A6565",
"+. c #8E8E8C8C6767",
"@. c #8C8C8A8A6D6D",
"#. c #8F8F8D8D6868",
"$. c #8E8E8C8C6F6F",
"%. c #8E8E8C8C7070",
"&. c #8F8F8D8D7171",
"*. c #92928F8F6969",
"=. c #90908E8E7171",
"-. c #92928F8F7777",
";. c #959593936F6F",
":. c #949492927676",
">. c #979794947070",
",. c #979795957171",
"<. c #979795957979",
"1. c #999997977272",
"2. c #999997977474",
"3. c #989895957C7C",
"4. c #9A9A97977E7E",
"5. c #9A9A98987474",
"6. c #9B9B99997575",
"7. c #9D9D9B9B7D7D",
"8. c #A0A09D9D7B7B",
"9. c #A0A09E9E7B7B",
"0. c #A0A09E9E7C7C",
"q. c #A1A19E9E7C7C",
"w. c #A1A19F9F7E7E",
"e. c #A2A29F9F7D7D",
"r. c #91918E8E8888",
"t. c #91918F8F8888",
"y. c #939391918A8A",
"u. c #949492928A8A",
"i. c #999996968383",
"p. c #9C9C9B9B8080",
"a. c #9F9F9C9C8585",
"s. c #A2A2A0A08080",
"d. c #A3A3A1A18080",
"f. c #A4A4A2A28181",
"g. c #A4A4A2A28282",
"h. c #A5A5A3A38383",
"j. c #A6A6A4A48484",
"k. c #A5A5A2A28D8D",
"l. c #A6A6A5A58888",
"z. c #A9A9A8A88C8C",
"x. c #ACACAAAA8C8C",
"c. c #AEAEACAC8F8F",
"v. c #AAAAA8A89494",
"b. c #AEAEADAD9090",
"n. c #AFAFADAD9393",
"m. c #B0B0ADAD9C9C",
"M. c #B2B2B0B09494",
"N. c #B4B4B2B29797",
"B. c #B7B7B6B69F9F",
"V. c #B8B8B7B79D9D",
"C. c #B6B6B3B3A3A3",
"Z. c #B9B9B6B6ABAB",
"A. c #B9B9B8B8A2A2",
"S. c #BBBBB9B9A2A2",
"D. c #BBBBBABAA2A2",
"F. c #BFBFBEBEA7A7",
"G. c #BBBBB8B8AAAA",
"H. c #BEBEBABAB5B5",
"J. c #C1C1BEBEB2B2",
"K. c #C6C6C3C3BABA",
"L. c #CCCCC8C8C1C1",
"P. c #D2D2CECEC8C8",
"I. c #D7D7D3D3CFCF",
/* pixels */
"0 0 0 0 0 0 0 0 0 0 0 0 0 0 0 0 ",
". . . . . . . . . . . . . . . . ",
"I.I.I.I.I.I.I.I.I.I.I.I.I.I.I.I.",
"P.P.P.P.H.W A A R Y Q H.P.P.P.P.",
"L.L.L.t.k l.M.N.B.F.D.A y.L.L.L.",
"K.K.t.c g.j.j.h.w.f.x.D.! y.K.K.",
"J.Z.< q.s.s.U ; = * % H c.M Z.J.",
"G.T ] q.q.a 5 / / / K 8 , <.E G.",
"C.r 2.q.S d ' F 3 3 D I z c g C.",
"m.q 2.q.= [ S w n.V.M n I o e m.",
"v.< 1.7.y  .= 1.h.N.S.3 / 8 X v.",
"k.< >.p.v O.= >.7.e.c.3 U ' i.k.",
"a.k K z.i +.v f 1.6.B f / &.a.a.",
"4.-.+ s.a +.*.s % % y ( ' <.4.4.",
":.:.N y $.5 #.#.O.| [ ` &.:.:.:.",
"$.$.%.h : B # K O.[  .@.$.$.$.$.",
"X.X.X.X.J * +   ]  .X.X.X.X.X.X.",
"/ ) ) ) ) ) ) ) ) ) ) ) ) ) ) ) ",
". . . . . . . . . . . . . . . . ",
"0 0 0 0 0 0 0 0 0 0 0 0 0 0 0 0 ",
". . . . . . . . . . . . . . . . ",
"I.I.I.I.I.I.I.I.I.I.I.I.I.I.I.I.",
"P.P.P.P.H.W Z Y R Y Q H.P.P.P.P.",
"L.L.L.t.k j.M.N.V.F.D.A y.L.L.L.",
"K.K.t.N h.j.j.j.s.f.x.D.! y.K.K.",
"J.Z.> q.s.s.U * ; % % H c.M Z.J.",
"G.W ` q.w.a 5 / / U I 8 , <.E G.",
"C.e 5.7.C d ( F 3 3 D I z c g C.",
"m.q 2.q.; ` D w c.B.M n I X e m.",
"v.< 1.7.i o.% 2.h.N.D.4 U 9 X v.",
"k.q ;.p.v O.% >.q.q.c.4 / ) i.k.",
"a.k L z.y #.z z 1.2.B f / -.a.a.",
"i.-.o f.s +.+.d = = 9 ( / 4.4.7.",
":.:.N y @.5 +.+.O.| ' ' &.:.:.:.",
"$.$.%.h : n # K [ [ { @.$.$.&.$.",
"o.X.X.X.J # #    . .#.X. .X.X. .",
") ) ) ' ) ) ) ) ' / ( ' / ( ' ' ",
". . . . . . . . . . . . . . . . "
};
