/* XPM */
static char * maximizeI_xpm[] = {
"12 40 21 1",
" 	c None",
".	c #101010",
"+	c #9E9E9E",
"@	c #696969",
"#	c #3A3A3A",
"$	c #A2A2A2",
"%	c #969696",
"&	c #B6B6B6",
"*	c #C2C2C2",
"=	c #161616",
"-	c #5D5D5D",
";	c #CACACA",
">	c #808080",
",	c #1A1A1A",
"'	c #737373",
")	c #444444",
"!	c #D2D2D2",
"~	c #DDDDDD",
"{	c #252525",
"]	c #6E6E6E",
"^	c #2A2A2A",
"            ",
"            ",
"            ",
"            ",
"%++$$+%+++++",
"~~~~~~;~!~!~",
"'@]@]]@@]']]",
">%)#{){^{^{]",
"]+-%>%%&&;.]",
"@+))){#{==)@",
"]*)->>>&!!{@",
"'!^)''>>%&)@",
"'*)-@]-''&#@",
"'*{--@''@%^@",
"@!{#-@@-@-)@",
"'!=,{){,)))]",
"@>!*!**+*%%]",
"@@]@@'-@'@@@",
"))))))))))))",
",={{{==.,.,.",
"            ",
"            ",
"            ",
"            ",
"%++$$+%+++++",
"~~~~~~;~!~!~",
"'@]@]]@@]']]",
">%{{=^=,=,=]",
"]+#))###{{.@",
"@%^^{={=..{@",
"'*^))####^=@",
"]!=)))###^^@",
"'*^)#)#)##{@",
"'*.-)))))#=@",
"@!=--))#)#^@",
"'!..=^=.^^^]",
"@>;*!**+*%%]",
"@@]@@'-@]@@@",
"))))))))))#)",
",={{{=..,.,."};
