/* XPM */
static char * titleIL_xpm[] = {
"1 20 9 1",
" 	c None",
".	c #8A8A8A",
"+	c #6C6C6C",
"@	c #6B6B6B",
"#	c #6A6A6A",
"$	c #050505",
"%	c #222222",
"&	c #2B2B2B",
"*	c #0C0C0C",
".",
"+",
"@",
"@",
"@",
"@",
"@",
"@",
"@",
"@",
"#",
"#",
"#",
"#",
"#",
"#",
"$",
"%",
"&",
"*"};
