/* XPM */
static char * dframeAR_xpm[] = {
"2 32 3 1",
" 	c None",
".	c #1B3887",
"+	c #101F47",
".+",
".+",
".+",
".+",
".+",
".+",
".+",
".+",
".+",
".+",
".+",
".+",
".+",
".+",
".+",
".+",
".+",
".+",
".+",
".+",
".+",
".+",
".+",
".+",
".+",
".+",
".+",
".+",
".+",
".+",
".+",
".+"};
