/* XPM */
static char * closeI_xpm[] = {
"19 36 17 1",
" 	c None",
".	c #DBDBDB",
"+	c #DADADA",
"@	c #D9D9D9",
"#	c #D7D7D7",
"$	c #7F7F7F",
"%	c #D5D5D5",
"&	c #D4D4D4",
"*	c #D2D2D2",
"=	c #D1D1D1",
"-	c #CFCFCF",
";	c #CECECE",
">	c #CCCCCC",
",	c #CBCBCB",
"'	c #C9C9C9",
")	c #C8C8C8",
"!	c #828282",
"...................",
"...................",
"+++++++++++++++++++",
"@@@@@@@@@@@@@@@@@@@",
"#####$$####$$######",
"%%%%$$$$%%$$$$%%%%%",
"%%%%$$$$$$$$$$%%%%%",
"&&&&&$$$$$$$$&&&&&&",
"******$$$$$$*******",
"======$$$$$$=======",
"-----$$$$$$$$------",
";;;;$$$$$$$$$$;;;;;",
">>>>$$$$>>$$$$>>>>>",
",,,,,$$,,,,$$,,,,,,",
"'''''''''''''''''''",
"'''''''''''''''''''",
")))))))))))))))))))",
"!!!!!!!!!!!!!!!!!!!",
"...................",
"...................",
"+++++++++++++++++++",
"@@@@@@@@@@@@@@@@@@@",
"#####$$####$$######",
"%%%%$$$$%%$$$$%%%%%",
"%%%%$$$$$$$$$$%%%%%",
"&&&&&$$$$$$$$&&&&&&",
"******$$$$$$*******",
"======$$$$$$=======",
"-----$$$$$$$$------",
";;;;$$$$$$$$$$;;;;;",
">>>>$$$$>>$$$$>>>>>",
",,,,,$$,,,,$$,,,,,,",
"'''''''''''''''''''",
"'''''''''''''''''''",
")))))))))))))))))))",
"!!!!!!!!!!!!!!!!!!!"};
