/* XPM */
static char * dframeABL_xpm[] = {
"22 21 5 1",
" 	c None",
".	c #000000",
"+	c #949CD0",
"@	c #3F497F",
"#	c #5B68B0",
".+@@@#                ",
".+@@@#                ",
".+@@@#                ",
".+@@@#                ",
".+@@@#                ",
".+@@@#                ",
".+@@@#                ",
".+@@@#                ",
".+@@@#                ",
".+@@@#                ",
".+@@@#                ",
".+@@@#                ",
".+@@@#                ",
".+@@@#                ",
".+@@@#                ",
".+@@@@################",
" .+@@@@+++++++++++++++",
" .+@@@@@@@@@@@@@@@@@@@",
"  .##@@@@@@@@@@@@@@@@@",
"   ..#################",
"    .................."};
