/* XPM */
static char * dframeAR_xpm[] = {
"4 12 3 1",
" 	c None",
".	c #E7E7E7",
"+	c #000000",
"...+",
"...+",
"...+",
"...+",
"...+",
"...+",
"...+",
"...+",
"...+",
"...+",
"...+",
"...+"};
