/* XPM */
static char * restoreA_xpm[] = {
"18 36 34 1",
" 	c None",
".	c #FFFFFF",
"+	c #DFDFDF",
"@	c #A9A9A9",
"#	c #FDFDFD",
"$	c #FCFCFC",
"%	c #FBFBFB",
"&	c #F9F9F9",
"*	c #434343",
"=	c #F8F8F8",
"-	c #F7F7F7",
";	c #E0E0E0",
">	c #F5F5F5",
",	c #E2E2E2",
"'	c #E3E3E3",
")	c #E4E4E4",
"!	c #E5E5E5",
"~	c #F4F4F4",
"{	c #E6E6E6",
"]	c #E7E7E7",
"^	c #E8E8E8",
"/	c #E9E9E9",
"(	c #F3F3F3",
"_	c #E1E1E1",
":	c #EBEBEB",
"<	c #ECECEC",
"[	c #EDEDED",
"}	c #EEEEEE",
"|	c #F2F2F2",
"1	c #EAEAEA",
"2	c #EFEFEF",
"3	c #F0F0F0",
"4	c #F1F1F1",
"5	c #F6F6F6",
".++++++++++++++++@",
".++++++++++++++++@",
"#++++++++++++++++@",
"$++++++++++++++++@",
"%++++++++++++++++@",
"&++++++******++++@",
"=++++++******++++@",
"-++++++*++++*+++;@",
">++++******;*,')!@",
"~++++******;*{]^/@",
"(;_,'*!{{]***:<[}@",
"|!{{]*/1:<*}}234|@",
"3/1:<*/1:<*|(~>55@",
"2}}23******555555@",
"}|(~>555555555555@",
"<5555555555555555@",
":5555555555555555@",
"@@@@@@@@@@@@@@@@@@",
".++++++++++++++++@",
".++++++++++++++++@",
"#++++++++++++++++@",
"$++++++++++++++++@",
"%++++++++++++++++@",
"&++++++******++++@",
"=++++++******++++@",
"-++++++*++++*+++;@",
">++++******;*,')!@",
"~++++******;*{]^/@",
"(;_,'*!{{]***:<[}@",
"|!{{]*/1:<*}}234|@",
"3/1:<*/1:<*|(~>55@",
"2}}23******555555@",
"}|(~>555555555555@",
"<5555555555555555@",
":5555555555555555@",
"@@@@@@@@@@@@@@@@@@"};
