/* XPM */
static char * titleAM_xpm[] = {
"4 18 43 1",
" 	c None",
".	c #8C92DE",
"+	c #737DCE",
"@	c #848AD6",
"#	c #7382CE",
"$	c #6B79C6",
"%	c #7B8ACE",
"&	c #6B7DCE",
"*	c #848ACE",
"=	c #7379CE",
"-	c #6B75C6",
";	c #6B71C6",
">	c #636DBD",
",	c #7B86C6",
"'	c #5A69B5",
")	c #7382C6",
"!	c #6371BD",
"~	c #5265B5",
"{	c #6B7DC6",
"]	c #5A6DBD",
"^	c #6B79BD",
"/	c #5A65B5",
"(	c #525DAD",
"_	c #5261AD",
":	c #4A59A5",
"<	c #6B75B5",
"[	c #5265AD",
"}	c #4A559C",
"|	c #6B71AD",
"1	c #5261A5",
"2	c #525D9C",
"3	c #4A5194",
"4	c #6B6DA5",
"5	c #4A518C",
"6	c #6B6D9C",
"7	c #525D94",
"8	c #42518C",
"9	c #636D9C",
"0	c #4A5D94",
"a	c #63699C",
"b	c #4A598C",
"c	c #424D84",
"d	c #080808",
"....",
"++@#",
"$%&$",
"*=--",
";>>,",
"'')!",
"~{]~",
"^/((",
"_::<",
"::<[",
"}|1}",
"|1}}",
"2334",
"5567",
"8908",
"abcc",
"::::",
"dddd"};
