/* XPM */
static char * folder_16x16_xpm_xpm[] = {
"16 16 80 1",
" 	c None",
".	c #6671A7",
"+	c #8F96CA",
"@	c #626DA7",
"#	c #BBC0E6",
"$	c #5B6588",
"%	c #9DA3AA",
"&	c #FFFFFF",
"*	c #C3C7C8",
"=	c #6E799B",
"-	c #777FB2",
";	c #878EC4",
">	c #5964A4",
",	c #B3B7E2",
"'	c #AEB3DF",
")	c #727B9D",
"!	c #9BA1AA",
"~	c #687399",
"{	c #6D77B0",
"]	c #8087BD",
"^	c #535EA0",
"/	c #7B83BA",
"(	c #7981B8",
"_	c #8990B0",
":	c #A9AFDC",
"<	c #A5ABDA",
"[	c #A1A4D6",
"}	c #6A749B",
"|	c #9BA1A8",
"1	c #637098",
"2	c #636EAE",
"3	c #7980B8",
"4	c #767EB7",
"5	c #424B85",
"6	c #9DA2D4",
"7	c #999ED0",
"8	c #959ACE",
"9	c #616B98",
"0	c #B6BCC3",
"a	c #515C8C",
"b	c #7179B6",
"c	c #6E76B5",
"d	c #A5AADA",
"e	c #A0A6D7",
"f	c #9DA4D4",
"g	c #989FD1",
"h	c #9198CC",
"i	c #8D94C8",
"j	c #606AA5",
"k	c #E1E3E4",
"l	c #737D98",
"m	c #6D75B4",
"n	c #5460AB",
"o	c #7980AA",
"p	c #9197CA",
"q	c #8990C6",
"r	c #848CC3",
"s	c #979DA6",
"t	c #707B97",
"u	c #6770B4",
"v	c #9499CD",
"w	c #8890C5",
"x	c #8188BE",
"y	c #647097",
"z	c #636CB2",
"A	c #8B92C8",
"B	c #858CC2",
"C	c #7D85BC",
"D	c #515C9E",
"E	c #6E7A97",
"F	c #4E5BA5",
"G	c #747CB7",
"H	c #959CA4",
"I	c #6D7996",
"J	c #727AB7",
"K	c #6E77B5",
"L	c #5E6991",
"M	c #6C7895",
"N	c #455092",
"O	c #454F66",
"                ",
"                ",
"     .+@        ",
" #$%&*=-;>      ",
"  ,')!&*~{]^/(  ",
" _':<[}|&*12345 ",
"  :<[67890&*abc ",
"  defg8hijk&lmn ",
"  ofg8piqrs&tu  ",
"   gvpiwrxy&tz  ",
"    pAwBxCDkEF  ",
"      BxC(GHI   ",
"        (JKLM   ",
"          uNO   ",
"                ",
"                "};
