/* XPM */
static char * linux_xpm[] = {
"50 20 132 2",
"  	c None",
". 	c #DADFE3",
"+ 	c #D9DEE3",
"@ 	c #D8DDE2",
"# 	c #D7DCE1",
"$ 	c #D6DBE0",
"% 	c #D5DADF",
"& 	c #D4D9DE",
"* 	c #D3D8DD",
"= 	c #D2D7DD",
"- 	c #D1D7DC",
"; 	c #D0D6DB",
"> 	c #CFD5DA",
", 	c #CED4D9",
"' 	c #CDD3D8",
") 	c #CCD2D7",
"! 	c #CAD1D7",
"~ 	c #C9D0D6",
"{ 	c #C8D0D5",
"] 	c #C7CFD4",
"^ 	c #C6CED3",
"/ 	c #C5CDD2",
"( 	c #C4CCD1",
"_ 	c #C3CBD1",
": 	c #C2CAD0",
"< 	c #C1C9CF",
"[ 	c #C0C9CE",
"} 	c #BFC8CD",
"| 	c #BEC7CC",
"1 	c #BDC6CB",
"2 	c #BCC5CA",
"3 	c #BAC4CA",
"4 	c #B9C3C9",
"5 	c #B8C2C8",
"6 	c #B7C1C7",
"7 	c #B6C1C6",
"8 	c #B5C0C5",
"9 	c #B4BFC4",
"0 	c #B3BEC4",
"a 	c #B2BDC3",
"b 	c #B1BCC2",
"c 	c #B0BBC1",
"d 	c #AFBAC0",
"e 	c #AEBABF",
"f 	c #ADB9BE",
"g 	c #ABB8BE",
"h 	c #AAB7BD",
"i 	c #A9B6BC",
"j 	c #A8B5BB",
"k 	c #A7B4BA",
"l 	c #A6B3B9",
"m 	c #DADEE3",
"n 	c #D9DDE2",
"o 	c #D8DCE1",
"p 	c #D2D7DC",
"q 	c #CFD5DB",
"r 	c #CED4DA",
"s 	c #CDD4D9",
"t 	c #CCD3D8",
"u 	c #CBD2D7",
"v 	c #CAD1D6",
"w 	c #C9D0D5",
"x 	c #C8CFD4",
"y 	c #C7CED4",
"z 	c #C6CDD3",
"A 	c #C3CBD0",
"B 	c #C1CACF",
"C 	c #BFC8CE",
"D 	c #BEC7CD",
"E 	c #BDC6CC",
"F 	c #BCC6CB",
"G 	c #BBC5CA",
"H 	c #BAC4C9",
"I 	c #B9C3C8",
"J 	c #B6C0C6",
"K 	c #B5BFC5",
"L 	c #B4BEC4",
"M 	c #B3BEC3",
"N 	c #B1BDC2",
"O 	c #B0BCC2",
"P 	c #AFBBC1",
"Q 	c #AEBAC0",
"R 	c #ADB9BF",
"S 	c #ACB8BE",
"T 	c #ABB7BD",
"U 	c #AAB7BC",
"V 	c #A9B6BB",
"W 	c #D3D9DE",
"X 	c #D2D8DD",
"Y 	c #CCD2D8",
"Z 	c #CBD1D7",
"` 	c #C4CCD2",
" .	c #BCC5CB",
"..	c #BBC4CA",
"+.	c #BAC3C9",
"@.	c #B7C2C7",
"#.	c #B4BFC5",
"$.	c #B0BCC1",
"%.	c #AFBBC0",
"&.	c #AAB6BC",
"*.	c #A6B4B9",
"=.	c #A5B3B9",
"-.	c #D1D6DC",
";.	c #C8CFD5",
">.	c #C2CACF",
",.	c #C0C8CE",
"'.	c #BDC7CC",
").	c #ACB9BE",
"!.	c #ABB8BD",
"~.	c #A5B2B8",
"{.	c #D7DBE0",
"].	c #D6DAE0",
"^.	c #CDD3D9",
"/.	c #C7CED3",
"(.	c #C3CCD1",
"_.	c #4A4E51",
":.	c #343434",
"<.	c #0D0D0D",
"[.	c #A8B5BA",
"}.	c #A4B2B8",
"|.	c #C4C4C4",
"1.	c #E8E8E8",
"2.	c #808182",
"3.	c #CCCCCC",
"4.	c #AEB3B5",
"5.	c #9B9FA1",
"6.	c #A5B3B8",
"7.	c #A4B1B7",
"8.	c #C2EAFE",
"9.	c #606365",
"0.	c #AACEE2",
"a.	c #B8C2C7",
". + @ # $ % & * = - ; > , ' ) ! ~ { ] ^ / ( _ : < [ } | 1 2 3 4 5 6 7 8 9 0 a b c d e f g h i j k l ",
"m n o # $ % & * p ; q r s t u v w x y z / ( A B [ C D E F G H I 5 6 J K L M N O P Q R S T U V j k l ",
"m n o $ % & W X - ; > , ' Y Z v w ] ^ / ` _ : B [ } | E  ...+.I @.7 8 #.0 a b $.%.e R S T &.j k *.=.",
"n @ # $ % & * p -.; > s t u v ~ ;.y ^ / ( A >.< ,.D '.F G H 4 5 6 J 8 9 M a b c Q R ).!.h i j k l ~.",
"n o {.].% W X - ; > , ^.t u v w x /.z ` (._._.:.} <._._.:.H <._._.J _._._.:.$.<._._._.T &.V [.k =.}.",
"@ # $ % & * = - ; > , ' ) ! ~ { ] ^ / ( :.|.1.1.<.2.1.1.3.<.4.1.1.<.1.1.1.5.<._.1.1.1._.i j k l 6.}.",
"o # $ % & * p _._.r s t u v w x y z / ( :.5.1.1.:.3.1.1.1.:.4.1.1.<.1.1.1.1.<.5.1.1.1._.V j k l ~.7.",
"o $ % & W X _.8.8.<.' Y Z v w ] ^ / ` _ :.:.3.1.2.1.1.1.1.2.1.1.5.<.1.1.|.1.<.|.1.1.1._.j k *.=.<.<.",
"# $ % & * p _.8.8.<.t <._._.:.<.:.<.<._._.<.<.5.1.1.1.4.1.1.1.1.2.<.1.1.4.1._.1.5.1.1.9.j k l <._.1.",
"{.].% W X - _.8.8.<.<.0.8.8.8.4.<._.8.8.8.8._.:.1.1.5.9.1.1.1.1._.<.1.1._.:.:.<.<.1.1._.[.k =.<.1.|.",
"$ % & * = - _.8.8.<.2.8.2.<.2.9.<.0.8.9.9.8.0.<.1.1.2.<.1.1.1.1.<.<.1.1.<.4.5.9.:.1.1._.k l :.4.1.4.",
"$ % & * p ; _.8.8.<.5.8._.x <.<.<.8.8.5.5.5.5.:.1.1.<.<.3.1.1.4.<.<.1.<.5.5.5.2._.<.:.<.k <.5.1.1.|.",
"% & W X - ; _.8.8.<.9.8.5._.0.0.<.4.8.9._.5.2._.1.1.<.:.2.1.1.5.:.<.<.9.3.9.5.5.2._.2._.<.<.3.3.1.1.",
"% & * p -.; _.8.8.<.<.2.8.8.0.9.:.<.0.8.8.4.<.:._.:.<.5 :.9._.<.<.:.9.2.4.5.2.5.2.9.9.2._.2.|.5.3.1.",
"% W X - ; > , <.<.u v <.<.<.<.<.(.:.<.<.<.<.E  ...H I a.6 J <.<.2.3.4.9.5.2.2.4.2.2.9._.9.|.5.4.5.1.",
"& * = - ; > , ' ) ! ~ { ] ^ / ( _ : < [ } | 1 2 3 4 5 <.:.:.9.|.1.5.5.5.2.9.5.|.2.9.9.:.5.5.|.4.4.1.",
"& * p ; q r s t u v w x y z _.:.:.<.<.<.<.<.:.<.<.:.:.9.9.2.4.1.|.2.5.9.2.9.|.5.2.2.9.2.3.5.2.4.3.|.",
"W X - ; > , ' Y Z v w ] ^ <._.9.2.2.2.2.2.2.5.5.2.5.2.5.3.3.|.3.2.5.4.9.9.4.2.5.5.9._.1.4.4.9.5.1.|.",
"* p -.; > s t u v <.<.:._.9.9.2.2.2.5.2.5.4.4.5.2.5.4.3.1.4.1.2.2.2.2.9.5.4.2.4.2.2.2.3.2.2._.|.3.3.",
"X - ; > , ^.t u <.9.9.9.9.9.9.2.2.2.2.2.5.2.2.5.3.1.3.|.|.3.5.2.2.9.9.4.3.2.3.4.5.5.3.2.9._._.3.|.4."};
