/* XPM */
static char *closeA[] = {
/* columns rows colors chars-per-pixel */
"16 38 246 2",
"   c #313130303131",
".  c #0D0D4B4B0101",
"X  c #0B0B5D5D0101",
"o  c #151553530202",
"O  c #121258580101",
"+  c #010162620101",
"@  c #00006F6F0000",
"#  c #000072720000",
"$  c #03037D7D0000",
"%  c #0D0D74740505",
"&  c #101064640E0E",
"*  c #2A2A59591515",
"=  c #2A2A79792525",
"-  c #3A3A62622D2D",
";  c #46462A2A0909",
":  c #545435B60B8C",
">  c #5A5A36360909",
",  c #4F4F40401818",
"<  c #58584D4D0606",
"1  c #56565D5D1212",
"2  c #5BDC43C421A2",
"3  c #56564C4C3131",
"4  c #454562E32020",
"5  c #656545450F0F",
"6  c #656550501E1E",
"7  c #7C7C5B5B0909",
"8  c #66665C5C2F2F",
"9  c #6C6C51D223A4",
"0  c #6D6D5C5C2121",
"q  c #6C6C5A5A3636",
"w  c #727251512222",
"e  c #6D6D74741212",
"r  c #70707F7F1212",
"t  c #7A7A72721515",
"y  c #7D7D78781A1A",
"u  c #666665652D2D",
"i  c #626261613D3D",
"p  c #656571712C2C",
"a  c #777762622626",
"s  c #737366662929",
"d  c #74746A6A3434",
"f  c #7F7F76763636",
"g  c #4A4A4D4D4A4A",
"h  c #65655DDE40C1",
"j  c #646462624141",
"k  c #646460604848",
"l  c #6E6E6B6B5252",
"z  c #71716E6E5050",
"x  c #757575754343",
"c  c #7DD37F2940EB",
"v  c #727271715252",
"b  c #7D7D7B7B5E5E",
"n  c #000084840000",
"m  c #00008B0B0000",
"M  c #0B0B8F8F0909",
"N  c #000093930000",
"B  c #090991910808",
"V  c #131382821212",
"C  c #0000ABAB0000",
"Z  c #0000B5350000",
"A  c #1F1FA9A91B1B",
"S  c #242499991E1E",
"D  c #2121A6A61D1D",
"F  c #3838AEAE3030",
"G  c #797980801111",
"H  c #7C7C93930E0E",
"J  c #6D6D85852626",
"K  c #7B7B80802626",
"L  c #747489893333",
"P  c #787887873A3A",
"I  c #787888883434",
"U  c #6F6FB7B71616",
"Y  c #7878A1A10B0B",
"T  c #7F7FBFBF0707",
"R  c #5E5E9F9F4F4F",
"E  c #6F6FA1A15C5C",
"W  c #848472721414",
"Q  c #838370701C1C",
"!  c #868679792424",
"~  c #83837D7D3E3E",
"^  c #98987D7D2121",
"/  c #A7A75E5E0303",
"(  c #A4A465650707",
")  c #A0A068680A0A",
"_  c #A5A57E7E1414",
"`  c #AAAA7DFE1293",
"'  c #BDBD76760A0A",
"]  c #BCBC7AFB0D0D",
"[  c #84847F7F7070",
"{  c #E7E77E7E0303",
"}  c #8C8C9F9F1010",
"|  c #939392922C2C",
" . c #9B9B92922B2B",
".. c #949495953030",
"X. c #949490903A3A",
"o. c #9999A8A80A0A",
"O. c #8282BEBE2B2B",
"+. c #B6B680801D1D",
"@. c #B4B487872020",
"#. c #B0B08A8A2323",
"$. c #ABABA3A32D2D",
"%. c #BDBDA0A02B2B",
"&. c #8C0C8D8D56D7",
"*. c #8C8C8C8C5959",
"=. c #898990904141",
"-. c #828281416565",
";. c #878786066B6B",
":. c #8F8F8B8B7C7C",
">. c #82029E1E62E3",
",. c #969694946E6E",
"<. c #96969A9A7171",
"1. c #999997977A7A",
"2. c #9CAE9AE375D1",
"3. c #9C9C99997D7D",
"4. c #ADADB8B85F5F",
"5. c #B8B8B5B54242",
"6. c #A2A2A7A76363",
"7. c #A1A1A8A86262",
"8. c #A2A2A0A07F7F",
"9. c #8282CECE0505",
"0. c #8C8CE2E21313",
"q. c #8C0CF5F50000",
"w. c #9797EDED0101",
"e. c #9C9CE2E20202",
"r. c #9595F2F20909",
"t. c #9999F1F10808",
"y. c #AEAECBCB0505",
"u. c #A0A0E8E81E1E",
"i. c #A5A5F3F30000",
"p. c #BC3CEA6A1C1C",
"a. c #A5A5CACA5050",
"s. c #C1C19F9F2525",
"d. c #D2529C1C2323",
"f. c #C1C1A12129AA",
"g. c #CFCFA0A02525",
"h. c #C7C7BABA3B3B",
"j. c #E8E883830505",
"k. c #EEEE8D8D0909",
"l. c #E0E09F9F1616",
"z. c #F0F099990E0E",
"x. c #FCFC91910707",
"c. c #FCFC95950909",
"v. c #FCFC9D9D0D0D",
"b. c #F7F7A2A21D1D",
"n. c #F7F7A8A81E1E",
"m. c #FBA5A54F1167",
"M. c #FD63ABDE1447",
"N. c #FEFEABAB1A1A",
"B. c #F7F7BCBC1E1E",
"V. c #FEFEB3B31717",
"C. c #FD7DB63619DA",
"Z. c #FEFEBD121C72",
"A. c #EEEEBBBB2020",
"S. c #FBFBAFAF3939",
"D. c #F6F6B2B22121",
"F. c #FFFFB7B72020",
"G. c #FD7DBDBD23A4",
"H. c #FEFEBABA2A2A",
"J. c #FEFEB7B74B4B",
"K. c #FFFFB5B55555",
"L. c #C6C6F0F00000",
"P. c #CBCBF1F10000",
"I. c #C0C0E0E03030",
"U. c #FEFEC2C21F1F",
"Y. c #ECECC3C32C2C",
"T. c #F5F5CECE2929",
"R. c #FF54C48B2379",
"E. c #FED3CBCB2525",
"W. c #FE90CD5F2904",
"Q. c #FF7FCD4D3232",
"!. c #FEFED0D02626",
"~. c #FF47D58C2B74",
"^. c #FDCADD0F2DFB",
"/. c #FFFFD2D23030",
"(. c #FE64DCA93265",
"). c #F7F7E9E93E3E",
"_. c #FF44E412341D",
"`. c #FFFFE6E63C3C",
"'. c #FFB2EC053B88",
"]. c #FFFFF1F13F3F",
"[. c #E2E2CDCD5757",
"{. c #FFFFDDDD4040",
"}. c #FFFFD9D94D4D",
"|. c #FEFED55553D4",
" X c #FFFFD4D45F5F",
".X c #EEEEC1C16262",
"XX c #E5E5DFDF7373",
"oX c #FDFDCECE6565",
"OX c #F9F9CCCC6E6E",
"+X c #FFFFDBDB6565",
"@X c #FFFFD9D97171",
"#X c #FF7FEB6B4949",
"$X c #FBFBEDED5252",
"%X c #FFCCF58E4343",
"&X c #FEFEF0F04D4D",
"*X c #FFFFF8F84747",
"=X c #FFFFF9F94848",
"-X c #FCFCF8F85050",
";X c #FDFDFCFC5F5F",
":X c #EDEDE2E26767",
">X c #F8F8ECEC6D6D",
",X c #FFFFEFEF7C7C",
"<X c #FFFFF2F26767",
"1X c #FFFFFBFB64E5",
"2X c #FD7DFAFA6B6B",
"3X c #FFFFF0F07373",
"4X c #FDFDFAFA7272",
"5X c #FDFDFDFD7C7C",
"6X c #959592928787",
"7X c #9F9F9C9C9191",
"8X c #A3A3A1218303",
"9X c #A9A9A6A68787",
"0X c #AAAAA7A78B8B",
"qX c #AE58AB558E8E",
"wX c #ADADAAAA9E9E",
"eX c #B0B0ADAD9090",
"rX c #B6B6B3B39898",
"tX c #B2B2AFAFA3A3",
"yX c #B636B434AB2B",
"uX c #BCBCBABAA1A1",
"iX c #BBBBB8B8AFAF",
"pX c #BC11B963B1B1",
"aX c #C1C1BE3EB737",
"sX c #C242BF3FB9B9",
"dX c #C2C2C0C0A9A9",
"fX c #C7C7C444BEBE",
"gX c #C9C9C6C6B2B2",
"hX c #D0D0CCCCBABA",
"jX c #F0F0DDDD8080",
"kX c #EEEEECEC8787",
"lX c #FAFAE7E78E8E",
"zX c #FDFDEAEA8484",
"xX c #F9F9F6F68E8E",
"cX c #FDFDFDFD9393",
"vX c #CACAC6C6C0C0",
"bX c #CECECACAC5C5",
"nX c #D6D6D2D2C3C3",
"mX c #D4D4DFDFCACA",
"MX c #DCDCD8D8CBCB",
"NX c #D6D6E0E0CCCC",
"BX c #E2E2DFDFD4D4",
"VX c #E464EDEDCBCB",
"CX c #E9E9E5E5DCDC",
"ZX c #EEAEEC2BE2E2",
"AX c #F0F0ECECE5E5",
"SX c #F6F6F1F1EDED",
/* pixels */
"g g g g g g g g g g g g g g g g ",
"                                ",
"SXSXSXSXSXSXSXSXSXSXSXSXSXSXSXSX",
"AXAXAXsXu 6XZXmXNXAXfXj sXAXAXAX",
"CXZXpXP ;X$.& m n V P $Xs pXZXZX",
"BXyXc 4X#X_.y # m 4 >X|.T.9 yXBX",
"MXq =X#X_._.^.1 * :X|.W.E.A.: NX",
"bXwX! ^.^.^.~.T.[. XW.R.B._ [ nX",
"hXhX= y ~.!.!.E.Q.R.R.B.` - hXhX",
"gXgXM # W E.E.R.U.Z.C.` X D gXgX",
"dXdXB N + s.R.Z.B.C.l.. C A dXdX",
"uXuXS m p oXH.C.V.V.m.7 N F uXuX",
"rXrXR 4 OXJ.C.M.M.m.m.v.< E rXrX",
"eXeXh .XK.N.m.] ) v.v.c.k.2 9XeX",
"9X8X6 S.N.m.] O $ ( c.x.j.> 1.9X",
"8X8.-.5 z.' o Z Z % ( { > -.8.8.",
"2.3.1.b : 3 2.E >.<.k ; b 3.2.3.",
",.,.,.,.,.,.,.,.,.,.,.,.,.,.,.,.",
"                                ",
"g g g g g g g g g g g g g g g g ",
"                                ",
"SXSXSXSXSXSXSXSXSXSXSXSXSXSXSXSX",
"AXAXAXfXc 0XAXVXVXAXbXv fXAXZXZX",
"CXCXaX*.xX$.U q.q.0.&.2X~ pXZXCX",
"BXiX&.cX1X=X..9.w.L xX<X'.f pXBX",
"MXv 1X1X=X*X*Xy J kX3X'.'.(.8 MX",
"nXtXX.%X*X%X%X).XX,X'.`.(.%.:.nX",
"hXhXO.| '.'.'.'.#X`._.(.%.P hXhX",
"gXgXr.T  .'.`._._.(.(.s.H p.gXgX",
"dXdXt.i.Y h._._.(.(.Y.e P.p.dXdX",
"uXuXu.e.=.zX(.(.^.~.W.^ y.I.uXuX",
"rXrXa.P lX+X/.~.W.W.W.R.Q 4.rXrX",
"eXeXz jX@X/.W.g.#.R.R.G.C.q 0XeX",
"9X8Xd |.Q.E.d.G o.@.G.F.n.9 6X9X",
"8.8.;.a Y.d.r L.P.} +.n.w ;.8.8.",
"2.2.2.-.9 q 2.7.6.2.l 2 -.2.2.2.",
",.,.,.,.,.,.,.,.,.,.,.,.,.,.,.,.",
"                                "
};
