/* XPM */
static char *dframeITL[] = {
/* width height num_colors chars_per_pixel */
"    40    40        3            1",
/* colors */
". c #000080",
"# c #909090",
"a c #c0c0c0",
/* pixels */
"########################################",
"#aaaaaaaaaaaaaaaaaaaaaaaaaaaaaaaaaaaaaaa",
"#a######################################",
"#a######################################",
"#a##....................................",
"#a##....................................",
"#a##....................................",
"#a##....................................",
"#a##....................................",
"#a##....................................",
"#a##....................................",
"#a##....................................",
"#a##....................................",
"#a##....................................",
"#a##....................................",
"#a##....................................",
"#a##....................................",
"#a##....................................",
"#a##....................................",
"#a##....................................",
"#a##....................................",
"#a##....................................",
"#a##....................................",
"#a##....................................",
"#a##....................................",
"#a##....................................",
"#a##....................................",
"#a##....................................",
"#a##....................................",
"#a##....................................",
"#a##....................................",
"#a##....................................",
"#a##....................................",
"#a##....................................",
"#a##....................................",
"#a##....................................",
"#a##....................................",
"#a##....................................",
"#a##....................................",
"#a##...................................."
};
