/* XPM */
static char *noname[] = {
/* width height ncolors chars_per_pixel */
"40 40 6 1",
/* colors */
"` c #000000",
"a c #C0C0C0",
"b c #909090",
"c c #808080",
"d c #000080",
"e c #606060",
/* pixels */
"babbbedddddddddddddddddddddddddddddddddd",
"beeeeedddddddddddddddddddddddddddddddddd",
"``````dddddddddddddddddddddddddddddddddd",
"bbbbbbdddddddddddddddddddddddddddddddddd",
"baaaaedddddddddddddddddddddddddddddddddd",
"babbbedddddddddddddddddddddddddddddddddd",
"babbbedddddddddddddddddddddddddddddddddd",
"babbbedddddddddddddddddddddddddddddddddd",
"babbbedddddddddddddddddddddddddddddddddd",
"babbbedddddddddddddddddddddddddddddddddd",
"babbbedddddddddddddddddddddddddddddddddd",
"babbbedddddddddddddddddddddddddddddddddd",
"babbbedddddddddddddddddddddddddddddddddd",
"babbbedddddddddddddddddddddddddddddddddd",
"babbbedddddddddddddddddddddddddddddddddd",
"babbbedddddddddddddddddddddddddddddddddd",
"babbbedddddddddddddddddddddddddddddddddd",
"babbbedddddddddddddddddddddddddddddddddd",
"babbbedddddddddddddddddddddddddddddddddd",
"babbbedddddddddddddddddddddddddddddddddd",
"babbbedddddddddddddddddddddddddddddddddd",
"babbbedddddddddddddddddddddddddddddddddd",
"babbbedddddddddddddddddddddddddddddddddd",
"babbbedddddddddddddddddddddddddddddddddd",
"babbbedddddddddddddddddddddddddddddddddd",
"babbbedddddddddddddddddddddddddddddddddd",
"babbbedddddddddddddddddddddddddddddddddd",
"babbbedddddddddddddddddddddddddddddddddd",
"babbbedddddddddddddddddddddddddddddddddd",
"babbbedddddddddddddddddddddddddddddddddd",
"babbbedddddddddddddddddddddddddddddddddd",
"babbbedddddddddddddddddddddddddddddddddd",
"babbbedddddddddddddddddddddddddddddddddd",
"babbbedddddddddddddddddddddddddddddddddd",
"babbbebbbbbbbbbbbbbbbbbbbbbbbbbbbbbbb`bb",
"babbbaaaaaaaaaaaaaaaaaaaaaaaaaaaaaaac`ba",
"babbbbbbbbbbbbbbbbbbbbbbbbbbbbbbbbbbc`ba",
"babbbbbbbbbbbbbbbbbbbbbbbbbbbbbbbbbbc`ba",
"babbbbbbbbbbbbbbbbbbbbbbbbbbbbbbbbbbc`ba",
"bcccccccccccccccccccccccccccccccccccc`be"
};
