/* XPM */
static char * minimizeA_xpm[] = {
"43 68 242 2",
"  	c None",
". 	c #000013",
"+ 	c #000012",
"@ 	c #000025",
"# 	c #000024",
"$ 	c #000030",
"% 	c #00002F",
"& 	c #000038",
"* 	c #000039",
"= 	c #000040",
"- 	c #00003F",
"; 	c #000046",
"> 	c #000045",
", 	c #00004C",
"' 	c #00004B",
") 	c #000051",
"! 	c #000050",
"~ 	c #000055",
"{ 	c #000054",
"] 	c #000059",
"^ 	c #00005A",
"/ 	c #00005D",
"( 	c #00005C",
"_ 	c #000061",
": 	c #000060",
"< 	c #000064",
"[ 	c #000063",
"} 	c #000067",
"| 	c #000066",
"1 	c #000069",
"2 	c #00006A",
"3 	c #00006C",
"4 	c #00006B",
"5 	c #00006E",
"6 	c #00006F",
"7 	c #000071",
"8 	c #000070",
"9 	c #000073",
"0 	c #000072",
"a 	c #000074",
"b 	c #000075",
"c 	c #000076",
"d 	c #000077",
"e 	c #07076D",
"f 	c #08086B",
"g 	c #08086A",
"h 	c #040470",
"i 	c #000079",
"j 	c #202049",
"k 	c #4B4B0C",
"l 	c #545400",
"m 	c #535301",
"n 	c #3A3A24",
"o 	c #0A0A69",
"p 	c #000078",
"q 	c #00007A",
"r 	c #242444",
"s 	c #727200",
"t 	c #A2A200",
"u 	c #A8A800",
"v 	c #949400",
"w 	c #5B5B00",
"x 	c #4A4A0D",
"y 	c #06066F",
"z 	c #00007B",
"A 	c #040474",
"B 	c #505004",
"C 	c #7B7B00",
"D 	c #DEDE00",
"E 	c #E0E000",
"F 	c #C1C100",
"G 	c #555500",
"H 	c #2C2C39",
"I 	c #15155B",
"J 	c #B7B700",
"K 	c #747400",
"L 	c #41411B",
"M 	c #00007C",
"N 	c #15155D",
"O 	c #B0B000",
"P 	c #707000",
"Q 	c #3F3F1D",
"R 	c #020279",
"S 	c #4C4C0B",
"T 	c #717100",
"U 	c #DADA00",
"V 	c #B6B600",
"W 	c #272742",
"X 	c #00007D",
"Y 	c #1B1B53",
"Z 	c #646400",
"` 	c #909000",
" .	c #9A9A00",
"..	c #989800",
"+.	c #7F7F00",
"@.	c #42421A",
"#.	c #030378",
"$.	c #00007E",
"%.	c #40401D",
"&.	c #525202",
"*.	c #303034",
"=.	c #050576",
"-.	c #00007F",
";.	c #C0C0C0",
">.	c #808080",
",.	c #010158",
"'.	c #1E1E39",
").	c #2A2A2B",
"!.	c #262630",
"~.	c #0A0A4F",
"{.	c #000058",
"].	c #1A1A3C",
"^.	c #27272E",
"/.	c #0F0F48",
"(.	c #0A0A51",
"_.	c #46460E",
":.	c #525201",
"<.	c #202038",
"[.	c #050557",
"}.	c #404015",
"|.	c #535300",
"1.	c #2B2B2C",
"2.	c #424214",
"3.	c #5C5C00",
"4.	c #B3B300",
"5.	c #CDCD00",
"6.	c #797900",
"7.	c #181845",
"8.	c #00005F",
"9.	c #3E3E18",
"0.	c #585800",
"a.	c #AAAA00",
"b.	c #DDDD00",
"c.	c #D4D400",
"d.	c #838300",
"e.	c #1B1B40",
"f.	c #12124E",
"g.	c #A5A500",
"h.	c #D9D900",
"i.	c #6B6B00",
"j.	c #4E4E05",
"k.	c #0B0B56",
"l.	c #2F2F2B",
"m.	c #676700",
"n.	c #3D3D1A",
"o.	c #191948",
"p.	c #C4C400",
"q.	c #CCCC00",
"r.	c #5D5D00",
"s.	c #464610",
"t.	c #050561",
"u.	c #1F1F40",
"v.	c #8C8C00",
"w.	c #7E7E00",
"x.	c #4A4A0B",
"y.	c #111153",
"z.	c #BABA00",
"A.	c #393920",
"B.	c #000068",
"C.	c #111152",
"D.	c #515103",
"E.	c #757500",
"F.	c #3D3D1C",
"G.	c #424216",
"H.	c #CBCB00",
"I.	c #A1A100",
"J.	c #2A2A35",
"K.	c #080860",
"L.	c #636300",
"M.	c #D3D300",
"N.	c #919100",
"O.	c #1A1A49",
"P.	c #0A0A60",
"Q.	c #4E4E07",
"R.	c #6A6A00",
"S.	c #D7D700",
"T.	c #868600",
"U.	c #1A1A4B",
"V.	c #02026A",
"W.	c #404019",
"X.	c #C5C500",
"Y.	c #31312D",
"Z.	c #161652",
"`.	c #DBDB00",
" +	c #4F4F05",
".+	c #0F0F5C",
"++	c #32322C",
"@+	c #ADAD00",
"#+	c #C2C200",
"$+	c #3F3F1B",
"%+	c #01016D",
"&+	c #242440",
"*+	c #979700",
"=+	c #D0D000",
"-+	c #606000",
";+	c #49490E",
">+	c #05056A",
",+	c #232342",
"'+	c #939300",
")+	c #D2D200",
"!+	c #626200",
"~+	c #4A4A0C",
"{+	c #070767",
"]+	c #35352A",
"^+	c #BEBE00",
"/+	c #565600",
"(+	c #434317",
"_+	c #0F0F5D",
":+	c #020272",
"<+	c #595900",
"[+	c #C6C600",
"}+	c #D6D600",
"|+	c #8A8A00",
"1+	c #1E1E4B",
"2+	c #09096A",
"3+	c #4C4C0A",
"4+	c #666600",
"5+	c #C8C800",
"6+	c #2D2D36",
"7+	c #14145C",
"8+	c #777700",
"9+	c #BDBD00",
"0+	c #3D3D20",
"a+	c #212149",
"b+	c #CFCF00",
"c+	c #5F5F00",
"d+	c #484811",
"e+	c #050572",
"f+	c #323231",
"g+	c #6E6E00",
"h+	c #4F4F06",
"i+	c #0E0E65",
"j+	c #010179",
"k+	c #1A1A55",
"l+	c #070771",
"m+	c #9F9F00",
"n+	c #2A2A3E",
"o+	c #0F0F66",
"p+	c #393928",
"q+	c #1C1C52",
"r+	c #434319",
"s+	c #040476",
". . . . . . . . . . . + . . . . . . . . . . + + + + + + + + + + + + + + + + + + + + + ",
"@ @ @ @ @ @ @ @ @ @ @ @ @ @ @ @ @ @ @ @ @ @ @ # # # # # # # # # # # # # # # # # # # # ",
"$ $ $ $ $ $ $ $ $ $ $ $ $ $ $ $ $ $ $ $ $ $ $ % % % % % % % % % % % % % % % % % % % % ",
"& & & * * * * * * * * & * * * * * * * * * * & & & & & & & & & & & & & & & & & & & & & ",
"= - = = = = = = = = = = = = = = = = = = = = = - - - - - - - - - - - - - - - - - - - - ",
"; ; ; ; ; ; ; ; ; ; ; ; ; ; ; ; ; ; ; ; ; ; ; > > > > > > > > > > > > > > > > > > > > ",
", ' , , , , , , , , , , , , , , , , , , , , , ' ' ' ' ' ' ' ' ' ' ' ' ' ' ' ' ' ' ' ' ",
") ) ) ) ) ) ) ) ) ) ) ) ) ) ) ) ) ) ) ) ) ) ) ! ! ! ! ! ! ! ! ! ! ! ! ! ! ! ! ! ! ! ! ",
"~ ~ ~ ~ ~ ~ ~ ~ ~ ~ ~ ~ ~ ~ ~ ~ ~ ~ ~ ~ ~ ~ ~ { { { { { { { { { { { { { { { { { { { { ",
"] ] ] ^ ^ ^ ] ] ^ ^ ^ ] ] ^ ^ ^ ^ ] ] ^ ^ ^ ] ] ] ] ] ] ] ] ] ] ] ] ] ] ] ] ] ] ] ] ] ",
"/ / / / / / / / / / / / / / / / / / / / / / / ( ( ( ( ( ( ( ( ( ( ( ( ( ( ( ( ( ( ( ( ",
"_ _ _ _ _ _ _ _ _ _ _ _ _ _ _ _ _ _ _ _ _ _ _ : : : : : : : : : : : : : : : : : : : : ",
"< < < < < < < < < < < < < < < < < < < < < < < [ [ [ [ [ [ [ [ [ [ [ [ [ [ [ [ [ [ [ [ ",
"} } } } } } } } } } } } } } } } } } } } } } } | | | | | | | | | | | | | | | | | | | | ",
"1 1 1 2 2 2 2 2 2 2 2 2 2 2 2 2 2 2 2 2 2 2 2 1 1 1 1 1 1 1 1 1 1 1 1 1 1 1 1 1 1 1 1 ",
"3 3 3 3 3 3 3 3 3 3 3 3 3 3 3 3 3 3 3 3 3 3 3 4 4 4 4 4 4 4 4 4 4 4 4 4 4 4 4 4 4 4 4 ",
"5 5 5 6 6 6 5 5 6 6 6 5 5 5 6 6 6 6 5 6 6 6 5 5 5 5 5 5 5 5 5 5 5 5 5 5 5 5 5 5 5 5 5 ",
"7 8 7 7 7 7 7 7 7 7 7 7 7 7 7 7 7 7 7 7 7 7 8 8 8 8 8 8 8 8 8 8 8 8 8 8 8 8 8 8 8 8 8 ",
"9 0 9 9 9 9 9 9 9 9 9 9 9 9 9 9 9 9 9 9 9 9 0 0 0 0 0 0 0 0 0 0 0 0 0 0 0 0 0 0 0 0 0 ",
"a a a a a a a a a a a a a a a a a a a a a a a 9 9 9 9 9 9 9 9 9 9 9 9 9 9 9 9 9 9 9 9 ",
"b b b c c c c c c c c c c c c c c c c c c c c b b b b b b b b b b b b b b b b b b b b ",
"d d d d d e f f f f f f f f f f f f f f f f f g g g g g g g g g f g g g g g h c c c c ",
"i i i j k l l l l l l l l l l l l l l l l l l l l l l l l l l l l l l l l l m n o p p ",
"q q r l s t u u u u u u u u u u u u u u u u u u u u u u u u u u u u u u u u v w x y i ",
"z A B C D E E E E E E E E E E E E E E E E E E E E E E E E E E E E E E E E E E F G H q ",
"z I l J E E E E E E E E E E E E E E E E E E E E E E E E E E E E E E E E E E E E K L z ",
"M N l O E E E E E E E E E E E E E E E E E E E E E E E E E E E E E E E E E E E E P Q M ",
"M R S T U E E E E E E E E E E E E E E E E E E E E E E E E E E E E E E E E E E V l W M ",
"X X Y m Z `  . . . . . . . . . . . . . . . . . . . . . . . . . . . . . . ...+.G @.#.X ",
"X $.$.N %.&.l l l l l l l l l l l l l l l l l l l l l l l l l l l l l l l l S *.=.X X ",
"$.$.$.-.-.-.-.-.-.-.-.$.-.-.-.-.-.-.-.-.-.-.$.$.$.$.$.$.$.$.$.$.$.$.$.$.$.$.$.$.$.$.$.",
"$.$.$.-.-.-.-.-.-.-.-.$.-.-.-.-.-.-.-.-.-.-.$.$.$.$.$.$.$.$.$.$.$.$.$.$.$.$.$.$.$.$.$.",
";.;.;.;.;.;.;.;.;.;.;.;.;.;.;.;.;.;.;.;.;.;.;.;.;.;.;.;.;.;.;.;.;.;.;.;.;.;.;.;.;.;.;.",
">.>.>.>.>.>.>.>.>.>.>.>.>.>.>.>.>.>.>.>.>.>.>.>.>.>.>.>.>.>.>.>.>.>.>.>.>.>.>.>.>.>.>.",
". . . . . . . . . . . + . . . . . . . . . . + + + + + + + + + + + + + + + + + + + + + ",
"@ @ @ @ @ @ @ @ @ @ @ @ @ @ @ @ @ @ @ @ @ @ @ # # # # # # # # # # # # # # # # # # # # ",
"$ $ $ $ $ $ $ $ $ $ $ $ $ $ $ $ $ $ $ $ $ $ $ % % % % % % % % % % % % % % % % % % % % ",
"& & & * * * * * * * * & * * * * * * * * * * & & & & & & & & & & & & & & & & & & & & & ",
"= - = = = = = = = = = = = = = = = = = = = = = - - - - - - - - - - - - - - - - - - - - ",
"; ; ; ; ; ; ; ; ; ; ; ; ; ; ; ; ; ; ; ; ; ; ; > > > > > > > > > > > > > > > > > > > > ",
", ' , , , , , , , , , , , , , , , , , , , , , ' ' ' ' ' ' ' ' ' ' ' ' ' ' ' ' ' ' ' ' ",
") ) ) ) ) ) ) ) ) ) ) ) ) ) ) ) ) ) ) ) ) ) ) ! ! ! ! ! ! ! ! ! ! ! ! ! ! ! ! ! ! ! ! ",
"~ ~ ~ ~ ~ ~ ~ ~ ~ ~ ~ ~ ~ ~ ~ ~ ~ ~ ~ ~ ~ ~ ~ { { { { { { { { { { { { { { { { { { { { ",
"] ] ] ^ ^ ^ ] ] ^ ,.'.).!.~.^ ^ ^ ] ] ^ ^ ^ ] ] ] ] ] ] ] {.].).^./.] ] ] ] ] ] ] ] ] ",
"/ / / / / / / / (._.l l l :.<./ / / / / / / / ( ( ( ( ( [.}.l l l |.1.( ( ( ( ( ( ( ( ",
"_ _ _ _ _ _ _ _ 2.3.4.D 5.6.|.7._ _ _ _ _ _ _ : : : : 8.9.0.a.b.c.d.l e.: : : : : : : ",
"< < < < < < < f.l g.E E E h.i.j.k.< < < < < < [ [ [ [ l.l u E E E b.m.n.[ [ [ [ [ [ [ ",
"} } } } } } } o.l p.E E E E q.r.s.t.} } } } } | | | u.l v.E E E E E w.x.| | | | | | | ",
"1 1 1 2 2 2 2 y.l g.E E E E E z.G A.B.2 2 2 2 1 1 C.D.E.b.E E E E b.m.F.1 1 1 1 1 1 1 ",
"3 3 3 3 3 3 3 3 G.3.H.E E E E E I.l J.3 3 3 3 4 K.x.L.M.E E E E E N.l O.4 4 4 4 4 4 4 ",
"5 5 5 6 6 6 5 5 P.Q.R.S.E E E E E T.l U.6 6 5 V.W.0.X.E E E E E a.l Y.5 5 5 5 5 5 5 5 ",
"7 8 7 7 7 7 7 7 7 Z.m +.D E E E E `.P  +.+7 8 ++l @+E E E E E #+0.$+%+8 8 8 8 8 8 8 8 ",
"9 0 9 9 9 9 9 9 9 9 &+l *+E E E E E =+-+;+>+,+l '+E E E E E )+!+~+{+0 0 0 0 0 0 0 0 0 ",
"a a a a a a a a a a a ]+l 4.E E E E E ^+/+(+&.6.D E E E E `.K D._+9 9 9 9 9 9 9 9 9 9 ",
"b b b c c c c c c c c :+(+<+[+E E E E E u l m.}+E E E E E |+l 1+b b b b b b b b b b b ",
"d d d d d d d d d d d d 2+3+4+}+E E E E E '+5+E E E E E g.l 6+c d c c c c c c c c c c ",
"i i i i i i i i i i i i i 7+D.8+D E E E E E E E E E E 9+/+0+d p p p p p p p p p p p p ",
"q q q q q q q q q q q q q q a+l N.E E E E E E E E E b+c+d+e+i i i i i i i i i i i i i ",
"z q z z z z z z z z z z z z z f+l a.E E E E E E E `.g+h+i+q q q q q q q q q q q q q q ",
"z z z M M M M M M M M M M M M j+Q 0.#+E E E E E E d.m k+z z z z z z z z z z z z z z z ",
"M M M X X X X M X X X M M X X X l+x L.)+E E E E m+l n+M M M M M M M M M M M M M M M M ",
"M M X X X X X X X X X X X X X X X o+D.K U E E V G p+z M M M M M M M M M M M M M M M M ",
"X X X $.$.$.X X $.$.$.X X X $.$.$.$.q+m Z ` +.G r+s+X X X X X X X X X X X X X X X X X ",
"X $.$.$.$.$.$.$.$.$.$.$.$.$.$.$.$.$.$.N %.&.S *.=.X X $.X X $.X X $.X X X X $.X X X X ",
"$.$.$.-.-.-.-.-.-.-.-.$.-.-.-.-.-.-.-.-.-.-.$.$.$.$.$.$.$.$.$.$.$.$.$.$.$.$.$.$.$.$.$.",
"$.$.$.-.-.-.-.-.-.-.-.$.-.-.-.-.-.-.-.-.-.-.$.$.$.$.$.$.$.$.$.$.$.$.$.$.$.$.$.$.$.$.$.",
";.;.;.;.;.;.;.;.;.;.;.;.;.;.;.;.;.;.;.;.;.;.;.;.;.;.;.;.;.;.;.;.;.;.;.;.;.;.;.;.;.;.;.",
">.>.>.>.>.>.>.>.>.>.>.>.>.>.>.>.>.>.>.>.>.>.>.>.>.>.>.>.>.>.>.>.>.>.>.>.>.>.>.>.>.>.>."};
