/* XPM */
static char *noname[] = {
/* width height ncolors chars_per_pixel */
"38 68 108 2",
/* colors */
"`` c #9F9F9F",
"`a c #999999",
"`b c #959595",
"`c c #939393",
"`d c #919191",
"`e c #8B8B8B",
"`f c #878787",
"`g c #858585",
"`h c #818181",
"`i c #7F7F7F",
"`j c #7B7B7B",
"`k c #797979",
"`l c #777777",
"`m c #757575",
"`n c #737373",
"`o c #717171",
"`p c #6F6F6F",
"`q c #6D6D6D",
"`r c #6B6B6B",
"`s c #696969",
"`t c #676767",
"`u c #656565",
"`v c #636363",
"`w c #616161",
"`x c #5F5F5F",
"`y c #5D5D5D",
"`z c #5B5B5B",
"a` c #595959",
"aa c #575757",
"ab c #555555",
"ac c #535353",
"ad c #515151",
"ae c #4F4F4F",
"af c #4D4D4D",
"ag c #4B4B4B",
"ah c #494949",
"ai c #474747",
"aj c #454545",
"ak c #414141",
"al c #3D3D3D",
"am c #373737",
"an c #333333",
"ao c #2F2F2F",
"ap c #2D2D2D",
"aq c #292929",
"ar c #252525",
"as c #232323",
"at c #1F1F1F",
"au c #1D1D1D",
"av c #1B1B1B",
"aw c #191919",
"ax c #151515",
"ay c #0F0F0F",
"az c #C0C0C0",
"b` c #070707",
"ba c #A0A0A0",
"bb c #9A9A9A",
"bc c #989898",
"bd c #969696",
"be c #949494",
"bf c #929292",
"bg c #909090",
"bh c #8C8C8C",
"bi c #8A8A8A",
"bj c #888888",
"bk c #868686",
"bl c #808080",
"bm c #7E7E7E",
"bn c #7C7C7C",
"bo c #7A7A7A",
"bp c #787878",
"bq c #767676",
"br c #747474",
"bs c #727272",
"bt c #707070",
"bu c #6E6E6E",
"bv c #6C6C6C",
"bw c #6A6A6A",
"bx c #686868",
"by c #666666",
"bz c #646464",
"c` c #626262",
"ca c #606060",
"cb c #5E5E5E",
"cc c #5C5C5C",
"cd c #5A5A5A",
"ce c #585858",
"cf c #565656",
"cg c #545454",
"ch c #505050",
"ci c #4E4E4E",
"cj c #4C4C4C",
"ck c #4A4A4A",
"cl c #464646",
"cm c #444444",
"cn c #424242",
"co c #3E3E3E",
"cp c #3C3C3C",
"cq c #3A3A3A",
"cr c #363636",
"cs c #323232",
"ct c #303030",
"cu c #2E2E2E",
"cv c #262626",
"cw c #242424",
"cx c #202020",
"cy c #1E1E1E",
"cz c #1A1A1A",
/* pixels */
"b`b`b`b`b`b`b`b`b`b`b`b`b`b`b`b`b`b`b`b`b`b`b`b`b`b`b`b`b`b`b`b`b`b`b`b`b`b`",
"ayayayayayayayayayayayayayayayayayayayayayayayayayayayayayayayayayayayayayay",
"axaxaxaxauakabcecececececececececececececececececececececececececeaccpawaxax",
"avavavasce`wbs`k`k`k`k`k`k`k`k`k`k`k`k`k`k`k`k`k`k`k`k`k`k`k`k`k`kbtcacgatav",
"cxcxcxag`vbfbababababababababababababababababababababababababababababhcacncx",
"cwcwarcb`jbababababababababababababababababababababababababababababababsaacw",
"aqaqcucablbabababababababababababababababababababababababababababababa`kcdaq",
"apapcscablbabababababababababababababababababababababababababababababa`kcdap",
"cscscrcablbababababdbhbhbhbhbhbhbhbhbhbhbhbhbhbhbhbhbhbhbhbhbbbabababa`k`zcs",
"crcrcqcablbabababablcacacacacacacacacacacacacacacacacacacacabhbabababa`k`zcr",
"cqcqalcablbabababablcaakakakakakakakakakakakakakakakakakaicabhbabababa`kcccq",
"alalakcablbabababablcaalalalalalalalalalalalalalalalalalcmcabhbabababa`kccal",
"akakcmcablbabababablcaakakakakakakakakakakakakakakakakakaicabhbabababa`kccak",
"ajajaicablbabababablcaajajajajajajajajajajajajajajajajajckcabhbabababa`k`yaj",
"ahahagcablbabababablcaahahahahahahahahahahahahahahahahahafcabhbabababa`k`yah",
"cjcjcicablbabababablcacjcjcjcjcjcjcjcjcjcjcjcjcjcjcjcjcjchcabhbabababa`kcbcj",
"chchadcablbabababablcachchchchchchchchchchchchchchchchchaccabhbabababa`kcbch",
"acaccgcablbabababablcaacacacacacacacacacacacacacacacacacabcabhbabababa`kcbac",
"cfcfaacablbabababablcacfcfcfcfcfcfcfcfcfcfcfcfcfcfcfcfcfcecabhbabababa`k`xcf",
"cdcdcdcablbabababablcacdcdcdcdcdcdcdcdcdcdcdcdcdcdcdcdcd`zcabhbabababa`k`xcd",
"`y`y`ycablbabababablca`y`y`y`y`y`y`y`y`y`y`y`y`y`y`y`y`y`ycabhbabababa`k`x`y",
"cacacacablbabababablcacacacacacacacacacacacacacacacacacacacabhbabababa`kcaca",
"`v`vc`cablbabababablcacacacacacacacacacacacacacacacacacacacabhbabababa`kca`v",
"byby`ucablbabababa`cbkbkbkbkbkbkbkbkbkbkbkbkbkbkbkbkbkbkbkbkbcbabababa`kcaby",
"`s`sbxcablbabababababababababababababababababababababababababababababa`kca`s",
"bvbvbwcablbabababababababababababababababababababababababababababababa`k`wbv",
"`p`pbucabnbababababababababababababababababababababababababababababababrc``p",
"bsbsbs`u`ubdbabababababababababababababababababababababababababababa`d`w`tbs",
"`m`m`m`o`w`vbpblblblblblblblblblblblblblblblblblblblblblblblblblblbq`wc``n`m",
"bpbpbpbpbr`t`wcacacacacacacacacacacacacacacacacacacacacacacacacaca`w`sbqbpbp",
"`j`j`j`j`j`j`j`j`j`j`j`j`j`j`j`j`j`j`j`j`j`j`j`j`j`j`j`j`j`j`j`j`j`j`j`j`j`j",
"bmbmbmbmbmbmbmbmbmbmbmbmbmbmbmbmbmbmbmbmbmbmbmbmbmbmbmbmbmbmbmbmbmbmbmbmbmbm",
"azazazazazazazazazazazazazazazazazazazazazazazazazazazazazazazazazazazazazaz",
"blblblblblblblblblblblblblblblblblblblblblblblblblblblblblblblblblblblblblbl",
"b`b`b`b`b`b`b`b`b`b`b`b`b`b`b`b`b`b`b`b`b`b`b`b`b`b`b`b`b`b`b`b`b`b`b`b`b`b`",
"ayayayayayayayayayayayayayayayayayayayayayayayayayayayayayayayayayayayayayay",
"axaxaxaxaxaxaxaxaxaxaxaxaxaxaxaxaxcycnabcgalczaxaxaxaxaxaxaxaxaxaxaxaxaxaxax",
"avavavavavavavavavavavavavavavavcv`zc`brbscaabcxavavavavavavavavavavavavavav",
"cxcxcxcxcxcxcxcxcxcxcxcxcxcxcxcxae`u`bbababg`wclcxcxcxcxcxcxcxcxcxcxcxcxcxcx",
"cwcwcwcwcwcwcwcwcwcvaoctctctctcsca`ibabababa`mcdctctctctctaparcwcwcwcwcwcwcw",
"aqaqaqaqaqaqaqaqcm`ycacacacacacacabkbabababa`kcacacacacacacacccoaqaqaqaqaqaq",
"apapapapapapapahcabrbjbhbhbhbhbhbhbcbababababebhbhbhbhbhbh`f`pcaakapapapapap",
"cscscscscscsam`x`lbababababababababababababababababababababa``btccancscscscs",
"crcrcrcrcrcrcmca`dbababababababababababababababababababababababjcaalcrcrcrcr",
"cqcqcqcqcqcqahca`cbababababababababababababababababababababababhcaakcqcqcqcq",
"alalalalalalagca`cbababababababababababababababababababababababhcacmalalalal",
"akakakakclcf`xca`cbabababa`h`k`k`k`k`k`k`k`k`k`k`k`kbjbababababhcacbcgcmakak",
"ajajajahcbbzbobl`abababababv`x`y`y`y`y`y`y`y`y`y`y`x`kbababababdbl`lc``yaiaj",
"ahahaha``ubcbabababababababva`ahahahahahahahahahah`y`kbabababababababf`wcfah",
"cjcjcj`xbnbababababababababvcdcjcjcjcjcjcjcjcjcjcjcb`kbababababababababr`ycj",
"chchchcabmbababababababababv`zchchchchchchchchchchcb`kbabababababababa`mcbch",
"acacac`y`tbbbabababababababvccacacacacacacacacacaccb`kbabababababababdc``zac",
"cfcfcfce`x`t`hbkbbbababababv`x`y`y`y`y`y`y`y`y`y`y`x`kbababababcbkbmbz`xaacf",
"cdcdcdcd`z`xcaca`cbababababn`n`n`n`n`n`n`n`n`n`n`n`n`gbababababhca`xcb`zcdcd",
"`y`y`y`y`y`ycbca`cbababababababababababababababababababababababhca`y`y`y`y`y",
"cacacacacacacaca`cbababababababababababababababababababababababhcacacacacaca",
"`v`v`v`v`v`vc`ca`dbababababababababababababababababababababababicac``v`v`v`v",
"bybybybybyby`ucabnbabababababababababababababababababababababa`ncabybybybyby",
"`s`s`s`s`s`s`s`vcabobhbhbhbhbhbhbhbcbababababebhbhbhbhbhbh`ebrcabz`s`s`s`s`s",
"bvbvbvbvbvbvbv`rbzcacacacacacacacabkbabababa`kcacacacacacacacabybvbvbvbvbvbv",
"`p`p`p`p`p`p`p`p`p`q`rbwbwbwbwbwca`hbababababq`wbwbwbwbwbw`rbu`p`p`p`p`p`p`p",
"bsbsbsbsbsbsbsbsbsbsbsbsbsbsbsbs`v`t`ababa`cc`bybsbsbsbsbsbsbsbsbsbsbsbsbsbs",
"`m`m`m`m`m`m`m`m`m`m`m`m`m`m`m`mbtca`ubo`lc`c`bs`m`m`m`m`m`m`m`m`m`m`m`m`m`m",
"bpbpbpbpbpbpbpbpbpbpbpbpbpbpbpbpbp`n`t`w`wbx`mbpbpbpbpbpbpbpbpbpbpbpbpbpbpbp",
"`j`j`j`j`j`j`j`j`j`j`j`j`j`j`j`j`j`j`j`j`j`j`j`j`j`j`j`j`j`j`j`j`j`j`j`j`j`j",
"bmbmbmbmbmbmbmbmbmbmbmbmbmbmbmbmbmbmbmbmbmbmbmbmbmbmbmbmbmbmbmbmbmbmbmbmbmbm",
"azazazazazazazazazazazazazazazazazazazazazazazazazazazazazazazazazazazazazaz",
"blblblblblblblblblblblblblblblblblblblblblblblblblblblblblblblblblblblblblbl"
};
