/* XPM */
static char * frameAL_xpm[] = {
"5 1 6 1",
" 	c None",
".	c #0D213B",
"+	c #77869C",
"@	c #394765",
"#	c #26334A",
"$	c #192436",
".+@#$"};
