/* XPM */
static char * titleAR_xpm[] = {
"5 16 56 1",
" 	c None",
".	c #54647B",
"+	c #011230",
"@	c #021533",
"#	c #707E93",
"$	c #1D2E4A",
"%	c #2B3D57",
"&	c #263F63",
"*	c #68778C",
"=	c #1A2B48",
"-	c #384963",
";	c #243D60",
">	c #606F85",
",	c #192845",
"'	c #44546D",
")	c #22395D",
"!	c #57667D",
"~	c #1A2946",
"{	c #4F5F76",
"]	c #1F375A",
"^	c #4E5E76",
"/	c #576780",
"(	c #1D3456",
"_	c #021534",
":	c #46566F",
"<	c #20304D",
"[	c #627189",
"}	c #1A3153",
"|	c #031634",
"1	c #3F4F68",
"2	c #243351",
"3	c #717F94",
"4	c #192F51",
"5	c #021634",
"6	c #374861",
"7	c #253653",
"8	c #828FA2",
"9	c #172E4F",
"0	c #30415B",
"a	c #253553",
"b	c #95A2B3",
"c	c #162C4C",
"d	c #293B55",
"e	c #1C2D49",
"f	c #A5B2C2",
"g	c #142A4B",
"h	c #21334E",
"i	c #A0ADBD",
"j	c #A7B4C4",
"k	c #05111F",
"l	c #192B47",
"m	c #0C2039",
"n	c #112440",
"o	c #142843",
"p	c #091C39",
"q	c #0D213B",
".....",
"+@@@#",
"$%&@*",
"=-;@>",
",')@!",
"~{]@^",
"$/(_:",
"<[}|1",
"23456",
"789@0",
"abc@d",
"efg@h",
"ijk@l",
"m@@@n",
"o@@@p",
"qqqqq"};
