/* XPM */
static char *noname[] = {
/* width height ncolors chars_per_pixel */
"27 27 5 1",
/* colors */
"  c #000000",
". c #C0C0C0",
"X c #808080",
"o c #000080",
"O c #FFFFFF",
/* pixels */
".O..ooooooooooooooooooooooo",
".O..ooooooooooooooooooooooo",
".O..ooooooooooooooooooooooo",
".O..ooooooooooooooooooooooo",
".O..ooooooooooooooooooooooo",
".O..ooooooooooooooooooooooo",
".O..ooooooooooooooooooooooo",
".O..ooooooooooooooooooooooo",
".O..ooooooooooooooooooooooo",
".O..ooooooooooooooooooooooo",
".O..ooooooooooooooooooooooo",
".O..ooooooooooooooooooooooo",
".O..ooooooooooooooooooooooo",
".O..ooooooooooooooooooooooo",
".O..ooooooooooooooooooooooo",
".O..ooooooooooooooooooooooo",
".O..ooooooooooooooooooooooo",
".O..ooooooooooooooooooooooo",
".O..ooooooooooooooooooooooo",
".O..ooooooooooooooooooooooo",
".O..ooooooooooooooooooooooo",
".O..ooooooooooooooooooooooo",
".O..ooooooooooooooooooooooo",
".O.........................",
".O.........................",
".XXXXXXXXXXXXXXXXXXXXXXXXXX",
"                           "
};
