/* XPM */
static char * minimizeA_xpm[] = {
"27 44 176 2",
"  	c None",
". 	c #000018",
"+ 	c #000019",
"@ 	c #00002F",
"# 	c #00002E",
"$ 	c #00003C",
"% 	c #00003B",
"& 	c #000047",
"* 	c #000046",
"= 	c #00004F",
"- 	c #00004E",
"; 	c #000056",
"> 	c #000057",
", 	c #00005C",
"' 	c #00005D",
") 	c #000062",
"! 	c #000063",
"~ 	c #000067",
"{ 	c #000066",
"] 	c #00006B",
"^ 	c #00006C",
"/ 	c #00006F",
"( 	c #00006E",
"_ 	c #000072",
": 	c #000071",
"< 	c #000074",
"[ 	c #000075",
"} 	c #000077",
"| 	c #07076C",
"1 	c #191953",
"2 	c #1A1A52",
"3 	c #1A1A51",
"4 	c #090969",
"5 	c #00007A",
"6 	c #161659",
"7 	c #585805",
"8 	c #848400",
"9 	c #888800",
"0 	c #868600",
"a 	c #5E5E02",
"b 	c #1D1D4E",
"c 	c #000079",
"d 	c #444417",
"e 	c #BFBF00",
"f 	c #DFDF00",
"g 	c #E0E000",
"h 	c #CCCC00",
"i 	c #4E4E0A",
"j 	c #00007C",
"k 	c #4C4C0B",
"l 	c #D4D400",
"m 	c #DDDD00",
"n 	c #595902",
"o 	c #010179",
"p 	c #2D2D39",
"q 	c #7F7F00",
"r 	c #C5C500",
"s 	c #C2C200",
"t 	c #898900",
"u 	c #36362C",
"v 	c #00007D",
"w 	c #01017C",
"x 	c #262644",
"y 	c #3D3D21",
"z 	c #3F3F1F",
"A 	c #3E3E1F",
"B 	c #3E3E20",
"C 	c #2B2B3C",
"D 	c #020279",
"E 	c #00007E",
"F 	c #00007F",
"G 	c #C0C0C0",
"H 	c #808080",
"I 	c #010155",
"J 	c #040451",
"K 	c #010154",
"L 	c #1B1B3E",
"M 	c #515106",
"N 	c #616100",
"O 	c #3E3E17",
"P 	c #060655",
"Q 	c #030358",
"R 	c #39391C",
"S 	c #5F5F00",
"T 	c #555504",
"U 	c #222235",
"V 	c #06065B",
"W 	c #585803",
"X 	c #CBCB00",
"Y 	c #9C9C00",
"Z 	c #3E3E18",
"` 	c #010161",
" .	c #000061",
"..	c #373721",
"+.	c #8E8E00",
"@.	c #DEDE00",
"#.	c #D2D200",
"$.	c #636300",
"%.	c #0C0C53",
"&.	c #111152",
"*.	c #777700",
"=.	c #858500",
"-.	c #30302C",
";.	c #272736",
">.	c #787800",
",.	c #1B1B44",
"'.	c #030367",
").	c #525207",
"!.	c #C6C600",
"~.	c #DADA00",
"{.	c #6F6F00",
"].	c #1F1F42",
"^.	c #17174C",
"/.	c #646401",
"(.	c #D5D500",
"_.	c #D0D000",
":.	c #5C5C03",
"<.	c #09095E",
"[.	c #18184F",
"}.	c #666601",
"|.	c #D6D600",
"1.	c #CFCF00",
"2.	c #111157",
"3.	c #0B0B5E",
"4.	c #545407",
"5.	c #DBDB00",
"6.	c #707000",
"7.	c #202043",
"8.	c #27273C",
"9.	c #797900",
"0.	c #BDBD00",
"a.	c #4D4D0B",
"b.	c #0C0C61",
"c.	c #464612",
"d.	c #AFAF00",
"e.	c #31312F",
"f.	c #383826",
"g.	c #929200",
"h.	c #A4A400",
"i.	c #515104",
"j.	c #959500",
"k.	c #A1A100",
"l.	c #3F3F1C",
"m.	c #010172",
"n.	c #000078",
"o.	c #030372",
"p.	c #454515",
"q.	c #ADAD00",
"r.	c #A8A800",
"s.	c #BBBB00",
"t.	c #4B4B0D",
"u.	c #0B0B69",
"v.	c #525209",
"w.	c #C4C400",
"x.	c #CDCD00",
"y.	c #5B5B04",
"z.	c #101060",
"A.	c #00007B",
"B.	c #16165A",
"C.	c #626202",
"D.	c #D3D300",
"E.	c #D9D900",
"F.	c #6D6D00",
"G.	c #1E1E4E",
"H.	c #252545",
"I.	c #767600",
"J.	c #838300",
"K.	c #2E2E37",
"L.	c #35352D",
"M.	c #828200",
"N.	c #8C8C00",
"O.	c #01017B",
"P.	c #282842",
"Q.	c #3D3D22",
"R.	c #2C2C3A",
"S.	c #030378",
". . . . . . + . . . . . . + . . . . . . . . . . . . . ",
"@ @ @ @ @ @ @ @ @ @ @ @ @ @ # # # # # # # # # # # # # ",
"$ $ $ $ $ $ $ $ $ $ $ $ $ $ $ % % % % % % % % % % % % ",
"& & & & & & & & & & & & & & * * * * * * * * * * * * * ",
"= = = = = = = = = = = = = = = - - - - - - - - - - - - ",
"; ; > > > > > > > > > > > > ; ; ; ; ; ; ; ; ; ; ; ; ; ",
", ' ' ' ' ' ' ' ' ' ' ' ' ' , , , , , , , , , , , , , ",
") ) ) ) ) ) ! ) ) ) ! ) ) ! ) ) ) ) ) ) ) ) ) ) ) ) ) ",
"~ ~ ~ ~ ~ ~ ~ ~ ~ ~ ~ ~ ~ ~ ~ { { { { { { { { { { { { ",
"] ] ^ ] ] ^ ^ ] ] ^ ] ] ^ ^ ] ] ] ] ] ] ] ] ] ] ] ] ] ",
"/ / / / / / / / / / / / / / ( ( ( ( ( ( ( ( ( ( ( ( ( ",
"_ _ _ _ _ _ _ _ _ _ _ _ _ _ _ : : : : : : : : : : : : ",
"< [ [ [ [ [ [ [ [ [ [ [ [ [ < < < < < < < < < < < < < ",
"} } | 1 2 2 2 2 2 2 2 2 2 2 3 3 3 3 3 3 3 3 3 3 4 } } ",
"5 6 7 8 9 9 9 9 9 9 9 9 9 9 9 9 9 9 9 9 9 9 9 0 a b c ",
"5 d e f g g g g g g g g g g g f g g f g g g f f h i c ",
"j k l f g g g g g g g g g g g f g g f g g g f f m n o ",
"j p q e r r r r r r r r r r r r r r r r r r r s t u v ",
"v w x y z z z z z z z z z z z A z z z z z z z B C D v ",
"E E E E F F F E F F F F E F E E E E E E E E E E E E E ",
"G G G G G G G G G G G G G G G G G G G G G G G G G G G ",
"H H H H H H H H H H H H H H H H H H H H H H H H H H H ",
". . . . . . + . . . . . . + . . . . . . . . . . . . . ",
"@ @ @ @ @ @ @ @ @ @ @ @ @ @ # # # # # # # # # # # # # ",
"$ $ $ $ $ $ $ $ $ $ $ $ $ $ $ % % % % % % % % % % % % ",
"& & & & & & & & & & & & & & * * * * * * * * * * * * * ",
"= = = = = = = = = = = = = = = - - - - - - - - - - - - ",
"; ; > > > > I J > > > > > > ; ; ; ; ; J K ; ; ; ; ; ; ",
", ' ' ' ' L M N O P ' ' ' ' , , , Q R S T U , , , , , ",
") ) ) ) V W X f Y Z ` ) ) ! ) )  ...+.@.#.$.%.) ) ) ) ",
"~ ~ ~ ~ &.*.g g f =.-.~ ~ ~ ~ { ;.>.m g g =.,.{ { { { ",
"] ] ^ ] '.).!.g g ~.{.].^ ^ ] ^./.(.f g _.:.<.] ] ] ] ",
"/ / / / / [.}.|.g g 1.:.2./ 3.4.!.g f 5.6.7.( ( ( ( ( ",
"_ _ _ _ _ _ 8.9.@.g g 0.a.b.c.d.g g f 0 e.: : : : : : ",
"< [ [ [ [ [ [ f.g.g g g h.i.j.f g g k.l.m.< < < < < < ",
"} } n.n.n.n.n.o.p.q.g g g r.@.f g s.t.| } } } } } } } ",
"5 5 5 5 5 5 5 5 u.v.w.g g g g f x.y.z.c c c c c c c c ",
"5 A.A.A.A.A.A.A.A.B.C.D.g g g E.F.G.5 5 5 5 5 5 5 5 5 ",
"j j j j j v v j j v H.I.m g f J.K.j j j j j j j j j j ",
"j v E v v E E v v E v L.M.0.N.y O.v j v v v v j v v v ",
"v E E E E E E E E E E w P.Q.R.S.v v v v v v v v v v v ",
"E E E E F F F E F F F F E F E E E E E E E E E E E E E ",
"G G G G G G G G G G G G G G G G G G G G G G G G G G G ",
"H H H H H H H H H H H H H H H H H H H H H H H H H H H "};
