/* XPM */
static char * maximizeA_xpm[] = {
"17 42 33 1",
" 	c None",
".	c #CCCCCC",
"+	c #989898",
"@	c #272727",
"#	c #323232",
"$	c #000000",
"%	c #0D2005",
"&	c #317511",
"*	c #48AC19",
"=	c #50BF1C",
"-	c #1B410A",
";	c #317411",
">	c #0D1F05",
",	c #3B8C15",
"'	c #60E522",
")	c #3A8B15",
"!	c #102706",
"~	c #102606",
"{	c #214E0C",
"]	c #56CE1F",
"^	c #162B08",
"/	c #509C1D",
"(	c #76E52A",
"_	c #83FF2F",
":	c #2D5710",
"<	c #509B1D",
"[	c #162A08",
"}	c #29610E",
"|	c #439F17",
"1	c #0B1B04",
"2	c #0B1A04",
"3	c #173608",
"4	c #3C8F15",
".................",
"+++++++++++++++++",
"@@@@@@@@@@@@@@@@@",
"#################",
"$$$$$$$$$$$$$$$$$",
"$$$$$%&*=*&%$$$$$",
"$$$$-=======-$$$$",
"$$$%==;>$>;==%$$$",
"$$$&=;$$$$$;=&$$$",
"$$$$$$$$$$$$$$$$$",
"$$$$$$$$$$$$$$$$$",
"$$$$$$$$$$$$$$$$$",
"$$$,')$$$$$)',$$$",
"$$$!'')~$~)''!$$$",
"$$$${'''''''{$$$$",
"$$$$$!,]'],!$$$$$",
"$$$$$$$$$$$$$$$$$",
"$$$$$$$$$$$$$$$$$",
"$$$$$$$$$$$$$$$$$",
"$$$$$$$$$$$$$$$$$",
"$$$$$$$$$$$$$$$$$",
".................",
"+++++++++++++++++",
"@@@@@@@@@@@@@@@@@",
"#################",
"$$$$$$$$$$$$$$$$$",
"$$$$$$$$$$$$$$$$$",
"$$$$$^/(_(/^$$$$$",
"$$$$:_______:$$$$",
"$$$^__<[$[<__^$$$",
"$$$/_<$$$$$<_/$$$",
"$$$$$$$$$$$$$$$$$",
"$$$$$$$$$$$$$$$$$",
"$$$$$$$$$$$$$$$$$",
"$$$}|}$$$$$}|}$$$",
"$$$1||}2$2}||1$$$",
"$$$$3|||||||3$$$$",
"$$$$$1}4|4}1$$$$$",
"$$$$$$$$$$$$$$$$$",
"$$$$$$$$$$$$$$$$$",
"$$$$$$$$$$$$$$$$$",
"$$$$$$$$$$$$$$$$$"};
