/* XPM */
static char * n3_xpm[] = {
"9 20 54 1",
" 	c None",
".	c #DDE3EB",
"+	c #DCE2EA",
"@	c #76797E",
"#	c #000000",
"$	c #494A4D",
"%	c #ACB1B7",
"&	c #191A1B",
"*	c #111112",
"=	c #696C6F",
"-	c #5D5F62",
";	c #B6BBC2",
">	c #0B0B0C",
",	c #2C2D2E",
"'	c #A9ADB4",
")	c #090A0A",
"!	c #3B3C3E",
"~	c #989CA2",
"{	c #070708",
"]	c #4E5052",
"^	c #8B8E93",
"/	c #050606",
"(	c #5D5F63",
"_	c #D9DEE6",
":	c #6A6D71",
"<	c #080808",
"[	c #404244",
"}	c #5C5E61",
"|	c #92969B",
"1	c #606266",
"2	c #030303",
"3	c #4D5052",
"4	c #4E5053",
"5	c #A1A5AB",
"6	c #5C5F62",
"7	c #020202",
"8	c #909499",
"9	c #D7DDE4",
"0	c #525457",
"a	c #080909",
"b	c #999DA2",
"c	c #D0D6DE",
"d	c #45474A",
"e	c #A3A7AD",
"f	c #CBD1D8",
"g	c #3B3D3F",
"h	c #181819",
"i	c #ABB0B6",
"j	c #B8BDC4",
"k	c #0F1010",
"l	c #626468",
"m	c #616467",
"n	c #C2C7CE",
"o	c #4D4F52",
".........",
".........",
".........",
".+@####$.",
".+%&##*=-",
"......;>,",
"......')!",
"......~{]",
"......^/(",
"._:<##[}|",
"._12##345",
".....+678",
".....90ab",
".....cd*e",
".....fghi",
".j,##klmn",
".@####o9.",
".........",
".........",
"........."};
