/* XPM */
static char * n8_xpm[] = {
"9 20 82 1",
" 	c None",
".	c #DDE3EB",
"+	c #DCE2EA",
"@	c #76797E",
"#	c #000000",
"$	c #494A4D",
"%	c #D3D8E0",
"&	c #6D7074",
"*	c #686B6F",
"=	c #191A1B",
"-	c #111112",
";	c #696C6F",
">	c #5D5F62",
",	c #C5CAD1",
"'	c #2C2D2E",
")	c #1D1E1F",
"!	c #BCC1C8",
"~	c #B6BBC2",
"{	c #0B0B0C",
"]	c #252627",
"^	c #27282A",
"/	c #C1C6CD",
"(	c #A9ADB4",
"_	c #090A0A",
":	c #3B3C3E",
"<	c #B2B7BD",
"[	c #1D1D1E",
"}	c #343537",
"|	c #C8CDD4",
"1	c #989CA2",
"2	c #070708",
"3	c #4E5052",
"4	c #A9AEB4",
"5	c #161717",
"6	c #3E3F42",
"7	c #CDD2DA",
"8	c #8B8E93",
"9	c #050606",
"0	c #5D5F63",
"a	c #B5BAC0",
"b	c #575A5D",
"c	c #56585B",
"d	c #080808",
"e	c #404244",
"f	c #5C5E61",
"g	c #92969B",
"h	c #ADB1B8",
"i	c #525458",
"j	c #595C5F",
"k	c #030303",
"l	c #4D5052",
"m	c #4E5053",
"n	c #A1A5AB",
"o	c #8A8E93",
"p	c #626568",
"q	c #5C5F62",
"r	c #020202",
"s	c #909499",
"t	c #7B7F83",
"u	c #6F7277",
"v	c #D7DDE4",
"w	c #525457",
"x	c #080909",
"y	c #999DA2",
"z	c #040404",
"A	c #808488",
"B	c #D0D6DE",
"C	c #45474A",
"D	c #A3A7AD",
"E	c #595B5F",
"F	c #060606",
"G	c #8E9297",
"H	c #CBD1D8",
"I	c #3B3D3F",
"J	c #181819",
"K	c #ABB0B6",
"L	c #7B7E83",
"M	c #0F1010",
"N	c #626468",
"O	c #616467",
"P	c #C2C7CE",
"Q	c #4D4F52",
".........",
".........",
".........",
".+@####$.",
"%&*=##-;>",
",')!..~{'",
"!]^/..(_:",
"<[}|..123",
"4567..890",
"abcd##efg",
"hijk##lmn",
"o#p..+qrs",
"tru..vwxy",
"*zA..BC-D",
"EFG..HIJK",
"L0'##MNOP",
".@####Qv.",
".........",
".........",
"........."};
