/* XPM */
static char * slash_xpm[] = {
"8 20 45 1",
" 	c None",
".	c #DDE3EB",
"+	c #D8DEE6",
"@	c #454749",
"#	c #050505",
"$	c #989CA2",
"%	c #D0D6DD",
"&	c #3D3F41",
"*	c #0D0D0E",
"=	c #A0A4AA",
"-	c #66696C",
";	c #000000",
">	c #777A7F",
",	c #56595C",
"'	c #878A8F",
")	c #BFC5CC",
"!	c #2F3032",
"~	c #1E1E1F",
"{	c #AEB3B9",
"]	c #7D8085",
"^	c #606366",
"/	c #C8CED5",
"(	c #4D4E51",
"_	c #151516",
":	c #90959A",
"<	c #9B9FA5",
"[	c #080808",
"}	c #424446",
"|	c #D5DBE3",
"1	c #8F9398",
"2	c #4E5053",
"3	c #CDD3DA",
"4	c #2D2E30",
"5	c #101011",
"6	c #B0B5BB",
"7	c #B6BBC1",
"8	c #27282A",
"9	c #A6AAB1",
"0	c #37393A",
"a	c #B8BDC3",
"b	c #242527",
"c	c #252628",
"d	c #B9BEC4",
"e	c #1D1D1E",
"f	c #C0C6CD",
"........",
"........",
"........",
"....+@#$",
"....%&*=",
"....-;>.",
"....,;'.",
"...)!~{.",
"...];^..",
"../(_:..",
"..<[}|..",
"..1;2...",
".3456...",
".7;8....",
".9;0....",
"abcd....",
"6e4f....",
"........",
"........",
"........"};
