/* XPM */
static char * linux_xpm[] = {
"39 19 2 1",
" 	c None",
".	c #000000",
"                                       ",
"                                       ",
"                                       ",
"                                       ",
"  ..                                   ",
"                                       ",
"                                       ",
" ..   ..   .   .       ..  ..  ... ... ",
"  .  .    . .  ..  ..  .  .  ..   .  . ",
"  . .    . .   . . . . .    ..    .  . ",
" .  .    ..    . . . . .   . .    . .  ",
" .  .   ..  .  .  ..  ..  . .    .  .  ",
" ... ...  ..  ..       .   .   ..   .. ",
"                                       ",
"                                       ",
"                                   ..  ",
"                                       ",
"                                       ",
"                                       "};
