/* XPM */
static char * titleIB_xpm[] = {
"1 16 3 1",
" 	c None",
".	c #595959",
"+	c #000000",
".",
".",
".",
".",
".",
".",
".",
"+",
".",
".",
".",
".",
".",
".",
".",
"."};
