/* XPM */
static char * m_xpm[] = {
"15 20 17 1",
" 	c None",
".	c #C1C1C1",
"+	c #608090",
"@	c #839FBA",
"#	c #738BA3",
"$	c #6286AE",
"%	c #517298",
"&	c #4E7AA8",
"*	c #507CAF",
"=	c #466D99",
"-	c #5985B8",
";	c #486B90",
">	c #547DA8",
",	c #6E9BC9",
"'	c #648EB9",
")	c #7CAADB",
"!	c #5D7FA4",
"...............",
"...............",
"...............",
".+++@.....#++..",
".++++.....+++..",
".++++$...%+++..",
".++&++...++++..",
".++.++*.=+=++..",
".++.-++.++.++..",
".++..++;+>.++..",
".++..,+++..++..",
".++...++'..++..",
".++...)!...++..",
".++........++..",
".++........++..",
".++........++..",
"...............",
"...............",
"...............",
"..............."};
