/* XPM */
static char * n3_xpm[] = {
"15 20 12 1",
" 	c None",
".	c #C1C1C1",
"+	c #728191",
"@	c #608090",
"#	c #5C7A8D",
"$	c #617F98",
"%	c #507CAF",
"&	c #6D8DAA",
"*	c #7392AA",
"=	c #B7C3CA",
"-	c #7796AA",
";	c #8BB0C7",
"...............",
"...............",
"......+++......",
"....@@@@@@@....",
"...#@...@@@$...",
"..........@@...",
"..........@@...",
".........@@%...",
"......@@@@@....",
"......@@@@@....",
".........@@@...",
"..........@@...",
"..........@@...",
"..........@@...",
"...@@...@@@&...",
"....@@@@@@*....",
".....=--;......",
"...............",
"...............",
"..............."};
