/* XPM */
static char * n5_xpm[] = {
"15 20 8 1",
" 	c None",
".	c #C1C1C1",
"+	c #728191",
"@	c #608090",
"#	c #5B7E98",
"$	c #5985B8",
"%	c #5D83A1",
"&	c #7796AA",
"...............",
"...............",
"....+++++++....",
"...@@@@@@@@@...",
"...@@..........",
"...@@..........",
"...@@..........",
"...@@@@@#......",
"...@@@@@@@$....",
"........@@@....",
".........@@%...",
".........@@@...",
".........@@@...",
".........@@....",
"...@@...@@@....",
"...@@@@@@@.....",
".....&&&.......",
"...............",
"...............",
"..............."};
