/* XPM */
static char * n7_xpm[] = {
"15 20 6 1",
" 	c None",
".	c #C1C1C1",
"+	c #608090",
"@	c #5A7A93",
"#	c #56799E",
"$	c #769DC5",
"...............",
"...............",
"...............",
"...+++++++++...",
"...+++++++++...",
".........@++...",
".........+++...",
".........++....",
"........++.....",
"........++.....",
".......++......",
".......+#......",
"......++.......",
".....++$.......",
".....++........",
"....++.........",
"...............",
"...............",
"...............",
"..............."};
