/* XPM */
static char * n8_xpm[] = {
"15 20 14 1",
" 	c None",
".	c #C1C1C1",
"+	c #728191",
"@	c #839FBA",
"#	c #608090",
"$	c #627F9D",
"%	c #5985B8",
"&	c #72A2D3",
"*	c #648EB9",
"=	c #769DC5",
"-	c #91BCE3",
";	c #7FA5C7",
">	c #9AC3E3",
",	c #7796AA",
"...............",
"...............",
"......++.......",
"...@######@....",
"...##$..###....",
"..###....###...",
"..###....###...",
"...###..###....",
"...%######.....",
"....######.....",
"...##...###....",
"..##&....*#....",
"..##......##...",
"..##=....=##...",
"..-###..;##-...",
"...>######>....",
"......,,.......",
"...............",
"...............",
"..............."};
