/* XPM */
static char * frameATL_xpm[] = {
"16 16 5 1",
" 	c None",
".	c #00858E",
"+	c #005151",
"@	c #000000",
"#	c #FFFFFF",
".+++++++++++++++",
"+++++++++++++++.",
"+++++++++++++++@",
"+++++++++++++++@",
"+++++++++++++++@",
"++++++++++++++++",
"++++++##########",
"++++++##########",
"++++++##########",
"++++++##########",
"++++++##########",
"++++++##########",
"++++++##########",
"++++++##########",
"++++++##########",
"+....+##########"};
