/* XPM */
static char * frameAR_xpm[] = {
"6 147 3 1",
" 	c None",
".	c #005151",
"+	c #00858E",
".+....",
".+....",
".+....",
".+....",
".+....",
".+....",
".+....",
".+....",
".+....",
".+....",
".+....",
".+....",
".+....",
".+....",
".+....",
".+....",
".+....",
".+....",
".+....",
".+....",
".+....",
".+....",
".+....",
".+....",
".+....",
".+....",
".+....",
".+....",
".+....",
".+....",
".+....",
".+....",
".+....",
".+....",
".+....",
".+....",
".+....",
".+....",
".+....",
".+....",
".+....",
".+....",
".+....",
".+....",
".+....",
".+....",
".+....",
".+....",
".+....",
".+....",
".+....",
".+....",
".+....",
".+....",
".+....",
".+....",
".+....",
".+....",
".+....",
".+....",
".+....",
".+....",
".+....",
".+....",
".+....",
".+....",
".+....",
".+....",
".+....",
".+....",
".+....",
".+....",
".+....",
".+....",
".+....",
".+....",
".+....",
".+....",
".+....",
".+....",
".+....",
".+....",
".+....",
".+....",
".+....",
".+....",
".+....",
".+....",
".+....",
".+....",
".+....",
".+....",
".+....",
".+....",
".+....",
".+....",
".+....",
".+....",
".+....",
".+....",
".+....",
".+....",
".+....",
".+....",
".+....",
".+....",
".+....",
".+....",
".+....",
".+....",
".+....",
".+....",
".+....",
".+....",
".+....",
".+....",
".+....",
".+....",
".+....",
".+....",
".+....",
".+....",
".+....",
".+....",
".+....",
".+....",
".+....",
".+....",
".+....",
".+....",
".+....",
".+....",
".+....",
".+....",
".+....",
".+....",
".+....",
".+....",
".+....",
".+....",
".+....",
".+....",
".+....",
".+....",
".+....",
".+....",
".+...."};
