/* XPM */
static char * menuButtonI_xpm[] = {
"17 32 68 1",
" 	c None",
".	c #B8B8B8",
"+	c #A2A2A2",
"@	c #A0A0A0",
"#	c #676767",
"$	c #9B9B9B",
"%	c #A7A7A7",
"&	c #F3F3F3",
"*	c #F2F2F2",
"=	c #DFDFDF",
"-	c #787878",
";	c #969696",
">	c #ABABAB",
",	c #E9EAE9",
"'	c #E3E4E3",
")	c #C5C5C5",
"!	c #686868",
"~	c #919191",
"{	c #E7E7E7",
"]	c #E0E0E0",
"^	c #DFE0E0",
"/	c #E0E0DF",
"(	c #C2C3C3",
"_	c #8A8A8A",
":	c #E2E3E2",
"<	c #DADADA",
"[	c #DADBDA",
"}	c #BFBFBF",
"|	c #888888",
"1	c #DDDEDD",
"2	c #D3D5D3",
"3	c #D3D4D4",
"4	c #D3D4D3",
"5	c #BBBCBB",
"6	c #858585",
"7	c #D9DAD9",
"8	c #CFD0CF",
"9	c #CED0CE",
"0	c #CFD0CE",
"a	c #B8B9B8",
"b	c #838383",
"c	c #D5D6D5",
"d	c #C9CAC9",
"e	c #B5B5B5",
"f	c #808080",
"g	c #D1D1D1",
"h	c #C3C4C3",
"i	c #B1B1B1",
"j	c #7E7E7E",
"k	c #9F9F9F",
"l	c #B6B6B6",
"m	c #A8A8A8",
"n	c #A7A8A8",
"o	c #A7A8A7",
"p	c #7B7B7B",
"q	c #5E5E5E",
"r	c #616161",
"s	c #565656",
"t	c #7A7A7A",
"u	c #6F6F6F",
"v	c #777777",
"w	c #818181",
"x	c #999999",
"y	c #828282",
"z	c #797979",
"A	c #6C6C6C",
"B	c #717171",
"C	c #6A6A6A",
".................",
"+++++++++++++++++",
"@##########@@@@@@",
"$%&******=-$$$$$$",
";>,'''''')!;;;;;;",
"~>{]]^]//(!~~~~~~",
"_>:<[<<<[}!______",
"|>12324425!||||||",
"6>7899800a!666666",
"b>cdddddde!bbbbbb",
"f>ghhhhhhi!ffffff",
"jklmnnnno@!jjjjjj",
"pqrqqqqqqqspppppp",
"ttttttttttttttttt",
"-----------------",
"uuuuuuuuuuuuuuuuu",
".................",
"+++++++++++++++++",
"@vvvvvvvvvv@@@@@@",
"$wxxxxxxxx-$$$$$$",
";y$$$$$$$$z;;;;;;",
"~y$$$$$$$$z~~~~~~",
"_y$$$$$$$$z______",
"|y$$$$$$$$z||||||",
"6y$$$$$$$$z666666",
"by$$$$$$$$zbbbbbb",
"fy$$$$$$$$zffffff",
"jy$$$$$$$$zjjjjjj",
"pABBBBBBBBCpppppp",
"ttttttttttttttttt",
"-----------------",
"uuuuuuuuuuuuuuuuu"};
