/* XPM */
static char * rollupA_xpm[] = {
"13 32 124 2",
"  	c None",
". 	c #F3F3F3",
"+ 	c #A7A7A7",
"@ 	c #BBBBBB",
"# 	c #CCCCCC",
"$ 	c #6A6A6A",
"% 	c #242424",
"& 	c #909090",
"* 	c #D5D5D5",
"= 	c #616161",
"- 	c #727272",
"; 	c #EFEFEF",
"> 	c #EDEDED",
", 	c #E9EAE9",
"' 	c #7F7F7F",
") 	c #878787",
"! 	c #D8D8D8",
"~ 	c #787878",
"{ 	c #E8E8E8",
"] 	c #DDDFDE",
"^ 	c #DEDFDE",
"/ 	c #DEDEDE",
"( 	c #D8D9D8",
"_ 	c #5A5A5A",
": 	c #E4E4E4",
"< 	c #C0C1C0",
"[ 	c #494A49",
"} 	c #494949",
"| 	c #9E9F9E",
"1 	c #D4D5D4",
"2 	c #DFE0E0",
"3 	c #B3B3B3",
"4 	c #1D1D1D",
"5 	c #1D1E1D",
"6 	c #888988",
"7 	c #CDCECE",
"8 	c #DADBDA",
"9 	c #CBCDCB",
"0 	c #CBCCCB",
"a 	c #9A9B9A",
"b 	c #C7C8C7",
"c 	c #D6D7D6",
"d 	c #C5C6C5",
"e 	c #939493",
"f 	c #1B1B1B",
"g 	c #090909",
"h 	c #777777",
"i 	c #C1C2C1",
"j 	c #D1D2D1",
"k 	c #A5A5A5",
"l 	c #222222",
"m 	c #121212",
"n 	c #1B1C1B",
"o 	c #828383",
"p 	c #BABBBB",
"q 	c #CCCDCC",
"r 	c #B7B7B7",
"s 	c #B6B8B7",
"t 	c #B7B8B7",
"u 	c #B3B4B4",
"v 	c #ACACAC",
"w 	c #969696",
"x 	c #959696",
"y 	c #959695",
"z 	c #949494",
"A 	c #676767",
"B 	c #1E1E1E",
"C 	c #292929",
"D 	c #8D8D8D",
"E 	c #F0F0F0",
"F 	c #A4A4A4",
"G 	c #181818",
"H 	c #3D3D3D",
"I 	c #4B4B4B",
"J 	c #4E4E4E",
"K 	c #373737",
"L 	c #565656",
"M 	c #737473",
"N 	c #797A79",
"O 	c #202020",
"P 	c #5F5F5F",
"Q 	c #2D2D2D",
"R 	c #646464",
"S 	c #8A8B8A",
"T 	c #626262",
"U 	c #5E5F5E",
"V 	c #6C6C6C",
"W 	c #131313",
"X 	c #585958",
"Y 	c #898989",
"Z 	c #1F1F1F",
"` 	c #5B5B5B",
" .	c #7C7D7C",
"..	c #838484",
"+.	c #646564",
"@.	c #848584",
"#.	c #5D5E5D",
"$.	c #606060",
"%.	c #111211",
"&.	c #060606",
"*.	c #4D4E4D",
"=.	c #808180",
"-.	c #5A5B5A",
";.	c #555655",
">.	c #161616",
",.	c #0B0B0B",
"'.	c #0B0C0B",
").	c #555555",
"!.	c #7C7C7C",
"~.	c #585858",
"{.	c #1C1C1C",
"].	c #525252",
"^.	c #707070",
"/.	c #767776",
"(.	c #777877",
"_.	c #545454",
":.	c #1A1A1A",
"<.	c #707271",
"[.	c #707171",
"}.	c #707170",
"|.	c #717170",
"1.	c #505050",
"2.	c #111111",
"3.	c #212121",
". . . . . . . . . . . . . ",
"+ + + + + + + + + + + @ # ",
"$ % % % % % % % % % % & * ",
"= - ; > > > > > > , ' ) ! ",
"= ~ { ] ^ / ^ ^ ^ ( _ ) ! ",
"= ~ : < [ } [ [ | 1 _ ) ! ",
"= ~ 2 3 4 5 4 4 6 7 _ ) ! ",
"= ~ 8 9 0 a 6 0 0 b _ ) ! ",
"= ~ c d e f g h d i _ ) ! ",
"= ~ j k l m m n o p _ ) ! ",
"= ~ q r s t t t t u _ ) ! ",
"= $ v w x x x x y z _ ) ! ",
"A B C % % % % % % % 4 D ! ",
"* E E E E E E E E E E E * ",
"F F F F F F F F F F F F F ",
"B B B B B B B B B B B B B ",
". . . . . . . . . . . . . ",
"+ + + + + + + + + + + @ # ",
"$ % % % % % % % % % % & * ",
"= G H I J J J J J J K ) ! ",
"= B L M N N N N N N L ) ! ",
"= O P - Q Q Q Q R S T ) ! ",
"= O U V W W W W X Y = ) ! ",
"= Z `  ...+.X @.@.@.#.) ! ",
"= B X N $.%.&.*.=.=.-.) ! ",
"= 4 ;.R >.,.'.m ).!.~.) ! ",
"= {.].^./.h (.h (.h _.) ! ",
"= :.J $ ^.<.<.[.}.|.1.) ! ",
"A 2.f O 3.3.3.3.3.3.f D ! ",
"* E E E E E E E E E E E * ",
"F F F F F F F F F F F F F ",
"B B B B B B B B B B B B B "};
