/* XPM */
static char * xterm_16x16_xpm[] = {
"16 16 45 1",
" 	c None",
".	c #838583",
"+	c #9C9DCD",
"@	c #9C9D62",
"#	c #62619C",
"$	c #393839",
"%	c #FFFFCD",
"&	c #FFFFFF",
"*	c #FFFFF6",
"=	c #CDCEFF",
"-	c #414041",
";	c #F6F6F6",
">	c #6261CD",
",	c #000031",
"'	c #003062",
")	c #CDEEFF",
"!	c #4A484A",
"~	c #9CCEFF",
"{	c #9CFFFF",
"]	c #62BAF6",
"^	c #398DEE",
"/	c #0061FF",
"(	c #B4B6B4",
"_	c #31BAEE",
":	c #3169CD",
"<	c #6285D5",
"[	c #CDFFFF",
"}	c #292C10",
"|	c #313031",
"1	c #ACAE94",
"2	c #DEDEDE",
"3	c #101010",
"4	c #ACA5A4",
"5	c #080808",
"6	c #000000",
"7	c #EED6C5",
"8	c #CD9DCD",
"9	c #5A657B",
"0	c #623031",
"a	c #73694A",
"b	c #9C9D00",
"c	c #C5C6C5",
"d	c #EEEEEE",
"e	c #E6E6D5",
"f	c #181818",
" .++++++++++@#  ",
"$%&&&%%%%%**&=- ",
"$=;%+>,,,,,,')! ",
"$~=;>{{{{]]^/{- ",
"$(=*>{{{{{__:{- ",
"$=(*<{{{{{__:[- ",
"$((&<]{{{]]/:&- ",
"$(=&^_____^//&- ",
"}}(%]::::::::&| ",
" }}1=2%%%%%%2+3 ",
"}4566666666653| ",
"}$7890$a1103$9  ",
"}#bc7=7d=%1e1=19",
"}##$=7=eee=+bb=f",
" }#f7=7=%=%=7=7f",
"  afffffffffffff"};
