/* XPM */
static char * taskbuttonactive_xpm[] = {
"1 24 3 1",
" 	c None",
".	c #6BA5DE",
"+	c #73ADEF",
".",
".",
"+",
"+",
".",
".",
"+",
"+",
".",
".",
"+",
"+",
".",
".",
"+",
"+",
".",
".",
"+",
"+",
".",
".",
"+",
"+"};
