/* XPM */
static char * titleIB_xpm[] = {
"8 17 5 1",
" 	c None",
".	c #A5A5A9",
"+	c #797979",
"@	c #929294",
"#	c #D4D4D4",
".....+..",
"....@.@.",
".+...#..",
"@.@.....",
".#......",
".....+..",
"....@.@.",
".+...#..",
"@.@.....",
".#......",
".....+..",
"....@.@.",
".....#..",
"........",
"........",
"........",
"++++++++"};
