/* XPM */
static char * windows_xpm[] = {
"20 20 7 1",
" 	c None",
".	c #C0C0C0",
"+	c #898989",
"@	c #C2C2C4",
"#	c #757575",
"$	c #684075",
"%	c #C1C1C1",
"....................",
"....................",
".++++++++++.........",
".++++++++++.........",
".+@@@@@@@@+.........",
".+@@@@@@@@+.........",
".+@@@##########.....",
".+@@@##########.....",
".+@@@#@@@@@@@@#.....",
".+@@@#@@@@@@@@#.....",
".++++#@@@$$$$$$$$$$.",
".....#@@@$$$$$$$$$$.",
".....#@@@$%%%%%%%%$.",
".....#@@@$%%%%%%%%$.",
".....####$%%%%%%%%$.",
".........$%%%%%%%%$.",
".........$%%%%%%%%$.",
".........$%%%%%%%%$.",
".........$$$$$$$$$$.",
"...................."};
