/* XPM */
static char * windows_xpm[] = {
"20 20 113 2",
"  	c None",
". 	c #009EE8",
"+ 	c #006DAE",
"@ 	c #0061A6",
"# 	c #0069AA",
"$ 	c #0073AF",
"% 	c #0479B1",
"& 	c #057CB4",
"* 	c #067FB7",
"= 	c #0781BA",
"- 	c #0884BD",
"; 	c #0182BC",
"> 	c #0070AF",
", 	c #0063A7",
"' 	c #0062A9",
") 	c #0078B9",
"! 	c #01A7F0",
"~ 	c #006DAF",
"{ 	c #FBFFFF",
"] 	c #FFFFFA",
"^ 	c #B4C2C8",
"/ 	c #009ACF",
"( 	c #1899C5",
"_ 	c #1592BC",
": 	c #138BB6",
"< 	c #1082AD",
"[ 	c #0D7BA5",
"} 	c #006A93",
"| 	c #2980A6",
"1 	c #FFFFFF",
"2 	c #F3E7E0",
"3 	c #6893A7",
"4 	c #0081C0",
"5 	c #005EA7",
"6 	c #F9F8F5",
"7 	c #FDDCCF",
"8 	c #929391",
"9 	c #0079B1",
"0 	c #0078A1",
"a 	c #00719A",
"b 	c #006A92",
"c 	c #006189",
"d 	c #005A81",
"e 	c #00426D",
"f 	c #00577C",
"g 	c #DCBEB1",
"h 	c #507B8F",
"i 	c #007BC1",
"j 	c #00558E",
"k 	c #C2CBCE",
"l 	c #B7A7A2",
"m 	c #677172",
"n 	c #006E98",
"o 	c #0F6D8C",
"p 	c #0D6886",
"q 	c #0B6283",
"r 	c #095D7B",
"s 	c #085776",
"t 	c #00496A",
"u 	c #11526E",
"v 	c #EFDDD5",
"w 	c #A1948F",
"x 	c #3B6578",
"y 	c #0073A9",
"z 	c #52443E",
"A 	c #BCABA4",
"B 	c #716059",
"C 	c #404040",
"D 	c #FEFEFE",
"E 	c #FBFBFB",
"F 	c #F7F7F7",
"G 	c #F6F6F6",
"H 	c #F3F3F3",
"I 	c #EFEFEF",
"J 	c #EAEAEA",
"K 	c #9C9C9C",
"L 	c #5C5C5C",
"M 	c #FDFDFD",
"N 	c #FCFCFC",
"O 	c #F9F9F9",
"P 	c #FAFAFA",
"Q 	c #F5F5F5",
"R 	c #F2F2F2",
"S 	c #EDEDED",
"T 	c #E8E8E8",
"U 	c #F1F1F1",
"V 	c #ECECEC",
"W 	c #E7E7E7",
"X 	c #414141",
"Y 	c #F8F8F8",
"Z 	c #EEEEEE",
"` 	c #E5E5E5",
" .	c #4C4C4C",
"..	c #AFAFAF",
"+.	c #626262",
"@.	c #A7A7A7",
"#.	c #B0B0B0",
"$.	c #A6A6A6",
"%.	c #A5A5A5",
"&.	c #A4A4A4",
"*.	c #A3A3A3",
"=.	c #A2A2A2",
"-.	c #9F9F9F",
";.	c #797979",
">.	c #6F6F6F",
",.	c #949494",
"'.	c #696969",
").	c #5B5B5B",
"!.	c #575757",
"~.	c #585858",
"{.	c #595959",
"].	c #5A5A5A",
"^.	c #989898",
"                                        ",
"                                        ",
"                                        ",
"                                        ",
"    . + @ # $ % & * = - ; > , ' ) !     ",
"    ~ { ] ^ / ( _ : < [ } | 1 2 3 4     ",
"    5 6 7 8 9 0 a b c d e f 1 g h i     ",
"    j k l m n o p q r s t u v w x y     ",
"    z 1 1 1 1 1 1 1 1 1 1 1 1 1 A B     ",
"    C 1 1 D 1 D E E F G H I J 1 K L     ",
"    C 1 1 M D N O P G Q R S T 1 K L     ",
"    C M 1 M M N E O F U U V W 1 K L     ",
"    X N 1 M P O Y G Q U Z V ` 1 K L     ",
"     .1 1 1 1 1 1 1 1 1 1 1 1 1 ..+.    ",
"    +.@.#.$.$.$.%.&.*.=.-.-.K ..;.>.    ",
"    ,.'.).!.!.!.~.~.{.{.].).).+.>.^.    ",
"                                        ",
"                                        ",
"                                        ",
"                                        "};
