/* XPM */
static char * frameIB_xpm[] = {
"6 4 2 1",
" 	c #59596D6D8888",
".	c #6E6E8888AAAA",
"      ",
"......",
"......",
"      "};
