/* XPM */
static char * closeI_xpm[] = {
"18 36 35 1",
" 	c None",
".	c #FFFFFF",
"+	c #555555",
"@	c #F9F9F9",
"#	c #F7F7F7",
"$	c #F5F5F5",
"%	c #F2F2F2",
"&	c #F0F0F0",
"*	c #EEEEEE",
"=	c #EBEBEB",
"-	c #E9E9E9",
";	c #E7E7E7",
">	c #E4E4E4",
",	c #E2E2E2",
"'	c #E0E0E0",
")	c #DDDDDD",
"!	c #DBDBDB",
"~	c #D9D9D9",
"{	c #D6D6D6",
"]	c #D4D4D4",
"^	c #D2D2D2",
"/	c #CFCFCF",
"(	c #808080",
"_	c #CDCDCD",
":	c #CBCBCB",
"<	c #C8C8C8",
"[	c #C6C6C6",
"}	c #C4C4C4",
"|	c #C1C1C1",
"1	c #BFBFBF",
"2	c #BDBDBD",
"3	c #BABABA",
"4	c #B8B8B8",
"5	c #B6B6B6",
"6	c #B3B3B3",
".................+",
".@#$%&*=-;>,')!~{+",
".#$%&*=-;>,')!~{]+",
".$%&*=-;>,')!~{]^+",
".%&*=-;>,')!~{]^/+",
".&*=-((,')!((]^/_+",
".*=-;((()!(((^/_:+",
".=-;>,((((((^/_:<+",
".-;>,')((((^/_:<[+",
".;>,')!((((/_:<[}+",
".>,')!((((((:<[}|+",
".,')!(((^/((([}|1+",
".')!~((^/_:((}|12+",
".)!~{]^/_:<[}|123+",
".!~{]^/_:<[}|1234+",
".~{]^/_:<[}|12345+",
".{]^/_:<[}|123456+",
".+++++++++++++++++",
"+++++++++++++++++.",
"+654321|}[<:_/^]{.",
"+54321|}[<:_/^]{~.",
"+4321|}[<:_/^]{~!.",
"+321|}[<:_/^]{~!).",
"+21|}((:_/^((~!)'.",
"+1|}[(((/^(((!)',.",
"+|}[<:((((((!)',>.",
"+}[<:_/((((!)',>;.",
"+[<:_/^(((()',>;-.",
"+<:_/^((((((,>;-=.",
"+:_/^(((!)(((;-=*.",
"+_/^]((!)',((-=*&.",
"+/^]{~!)',>;-=*&%.",
"+^]{~!)',>;-=*&%$.",
"+]{~!)',>;-=*&%$#.",
"+{~!)',>;-=*&%$#@.",
"+................."};
