/* XPM */
static char * titleIP_xpm[] = {
"3 18 4 1",
" 	c None",
".	c #EFEDE8",
"+	c #000000",
"@	c #D1D0CA",
"...",
"...",
"+++",
"@@@",
"@@@",
"@@@",
"@@@",
"@@@",
"@@@",
"@@@",
"@@@",
"@@@",
"@@@",
"@@@",
"@@@",
"+++",
"...",
"..."};
