/* XPM */
static char * dframeABL_xpm[] = {
"16 16 4 1",
" 	c None",
".	c #4F5E4F",
"+	c #000000",
"@	c #C0C0C0",
"..++++++++++++++",
"..++++++++++++++",
"..++++++++++++++",
"..++++++++++++++",
"..++++++++++++++",
"..++++++++++++++",
"..++++++++++++++",
"..++++++++++++++",
"..++++++++++++++",
"..++++++++++++++",
"..++++++++++++++",
"..++++++++++++++",
"..++++++++++++++",
"..++++++++++++++",
"................",
"@..............."};
