/* XPM */
static char * dframeATR_xpm[] = {
"16 16 4 1",
" 	c None",
".	c #4F5E4F",
"+	c #C0C0C0",
"@	c #000000",
"...............+",
"................",
"@@@@@@@@@@@@@@..",
"@@@@@@@@@@@@@@..",
"@@@@@@@@@@@@@@..",
"@@@@@@@@@@@@@@..",
"@@@@@@@@@@@@@@..",
"@@@@@@@@@@@@@@..",
"@@@@@@@@@@@@@@..",
"@@@@@@@@@@@@@@..",
"@@@@@@@@@@@@@@..",
"@@@@@@@@@@@@@@..",
"@@@@@@@@@@@@@@..",
"@@@@@@@@@@@@@@..",
"@@@@@@@@@@@@@@..",
"@@@@@@@@@@@@@@.."};
