/* XPM */
static char * frameABL_xpm[] = {
"16 16 6 1",
" 	c None",
".	c #4F5E4F",
"+	c #7F977F",
"@	c #000000",
"#	c #FFFFFF",
"$	c #C0C0C0",
".+@@@.##########",
"......##########",
"......##########",
"......##########",
"......##########",
"......##########",
"......##########",
"......##########",
"......##########",
"......##########",
"................",
"...............+",
"...............+",
"...............+",
"...............+",
"$..............."};
