/* XPM */
static char * maximizeI_xpm[] = {
"16 46 35 1",
" 	c None",
".	c #FFFFFF",
"+	c #CCCCCC",
"@	c #8B898B",
"#	c #313431",
"$	c #000400",
"%	c #5A5D5A",
"&	c #000000",
"*	c #6C6C7A",
"=	c #C8C8CB",
"-	c #66666C",
";	c #272729",
">	c #060606",
",	c #050505",
"'	c #262628",
")	c #66666B",
"!	c #84848C",
"~	c #010101",
"{	c #84848B",
"]	c #040404",
"^	c #252527",
"/	c #64646A",
"(	c #636369",
"_	c #C0C0C8",
":	c #BDBDC7",
"<	c #818189",
"[	c #808088",
"}	c #808089",
"|	c #7F7F88",
"1	c #B9B9C5",
"2	c #626269",
"3	c #040405",
"4	c #242426",
"5	c #626268",
"6	c #B7B7C4",
"................",
"++++++++++++++++",
"++++++++++++++++",
"++++++++++++++++",
"+++++@#$$#@+++++",
"++++%&&&&&&%++++",
"+++@&......&@+++",
"+++#&......&#+++",
"+++$&......&$+++",
"+++$&......&$+++",
"+++#&......&#+++",
"+++@&......&@+++",
"++++%&&&&&&%++++",
"+++++@#$$#@+++++",
"++++++++++++++++",
"++++++++++++++++",
"++++++++++++++++",
"@@@@@@@@@@@@@@@@",
"****************",
"++++++++++++++++",
"++++++++++++++++",
"++++++++++++++++",
"++++++++++++++++",
"................",
"++++++++++++++++",
"++++=-;>,')=++++",
"+++!>~&&&&&,{+++",
"++!~&&&&&&&&&{++",
"+=>&&&&&&&&&&,=+",
"+-~&&......&&&)+",
"+;&&&......&&&'+",
"+>&&&......&&&,+",
"+,&&&......&&&]+",
"+'&&&......&&&^+",
"+/&&&......&&&(+",
"+_,&&&&&&&&&&]:+",
"++<&&&&&&&&&&[++",
"+++},&&&&&&]|+++",
"++++12^3]456++++",
"++++++++++++++++",
"@@@@@@@@@@@@@@@@",
"****************",
"++++++++++++++++",
"++++++++++++++++",
"++++++++++++++++",
"++++++++++++++++"};
