/* XPM */
static char * nomail_xpm[] = {
"16 16 4 1",
" 	c None",
".	c #000000",
"+	c #DDDDDD",
"@	c #999999",
"                ",
"                ",
"                ",
" .............  ",
" .+++++++++++.@ ",
" ..+++++++++..@ ",
" .+.+++++++.+.@ ",
" .++.+++++.++.@ ",
" .++..+++..++.@ ",
" .+.++...++.+.@ ",
" ..+++++++++..@ ",
" .............@ ",
"  @@@@@@@@@@@@@ ",
"                ",
"                ",
"                "};
