/* XPM */
static char * frameABL_xpm[] = {
"22 22 15 1",
" 	c None",
".	c #647480",
"+	c #34545C",
"@	c #344C5B",
"#	c #244454",
"$	c #CCCBAB",
"%	c #647C84",
"&	c #3C546C",
"*	c #2C4C55",
"=	c #24444C",
"-	c #6B828C",
";	c #0C2C34",
">	c #5B747F",
",	c #4B6773",
"'	c #3B5867",
".+@#$$$$$$$$$$$$$$$$$$",
"%&*=$$$$$$$$$$$$$$$$$$",
".+@#$$$$$$$$$$$$$$$$$$",
"%&*=$$$$$$$$$$$$$$$$$$",
".+@#$$$$$$$$$$$$$$$$$$",
"%&*=$$$$$$$$$$$$$$$$$$",
".+@#$$$$$$$$$$$$$$$$$$",
"%&*=$$$$$$$$$$$$$$$$$$",
".+@#$$$$$$$$$$$$$$$$$$",
"%&*=$$$$$$$$$$$$$$$$$$",
".+@#$$$$$$$$$$$$$$$$$$",
"%&*=$$$$$$$$$$$$$$$$$$",
".+@#$$$$$$$$$$$$$$$$$$",
"%&*=$$$$$$$$$$$$$$$$$$",
".+@#$$$$$$$$$$$$$$$$$$",
"%&*=$$$$$$$$$$$$$$$$$$",
".+@#$$$$$$$$$$$$$$$$$$",
"####$$$$$$$$$$$$$$$$$$",
"---------------------;",
">>>>>>>>>>>>>>>>>>>>>;",
",,,,,,,,,,,,,,,,,,,,,;",
"''''''''''''''''''''';"};
