/* XPM */
static char * frameIT_xpm[] = {
"2 4 9 1",
" 	g None",
".	g #707070",
"+	g #757575",
"@	g #4D4D4D",
"#	g #4A4A4A",
"$	g #484848",
"%	g #414141",
"&	g #373737",
"*	g #353535",
".+",
"@#",
"$%",
"&*"};
