/* XPM */
static char * closeI_xpm[] = {
"12 24 6 1",
" 	c #FFFFFFFFFFFF",
".	c #000000000000",
"X	c #86178A289658",
"o	c #AEBABEFBAEBA",
"O	c #51444D3471C6",
"+	c #BEFBBEFBBEFB",
"  .......  X",
"oo.......ooO",
"+o.......o+O",
"X+.......+XO",
"+X.......X+O",
"X+.......+XO",
"XX.......XoX",
"XXXXXXXXXoXo",
"XXXXXXXXXXoX",
"XOXOXOXOXOXo",
"OOOOOOOOOOOX",
"............",
"  .......  X",
"oo.......ooO",
"+o.......o+O",
"X+.......oXO",
"+X.......XoO",
"X+.......oXO",
"XX.......XoX",
"XXXXXXXXXXXo",
"XXXXXXXXXXoX",
"XOXOXOXOXOXo",
"OOOOOOOOOOOX",
"............"};
