/* XPM */
static char * closeA_xpm[] = {
"12 24 8 1",
" 	c #FFFFFFFFFFFF",
".	c #000000000000",
"X	c #86178A289658",
"o	c #AEBABEFBAEBA",
"O	c #00000000FFFF",
"+	c #51444D3471C6",
"@	c #BEFBBEFBBEFB",
"#	c #000000009E79",
"  .......  X",
"ooOOOOOOOoo+",
"@oO ### #o@+",
"X@O# # ##@X+",
"@XO## ###X@+",
"X@O# # ##@X+",
"XXO ### #XoX",
"XXXXXXXXXoXo",
"XXXXXXXXXXoX",
"X+X+X+X+X+Xo",
"+++++++++++X",
"............",
"  .......  X",
"oo.......oo+",
"@o.......o@+",
"X@OOOOOOOoX+",
"@XO ### #Xo+",
"X@O# # ##oX+",
"XXO## ###XoX",
"XXXXXXXXXXXo",
"XXXXXXXXXXoX",
"X+X+X+X+X+Xo",
"+++++++++++X",
"............"};
