/* XPM */
static char * frameABL_xpm[] = {
"28 28 6 1",
" 	c #FFFFFFFFFFFF",
".	c #AEBABEFBAEBA",
"X	c #86178A289658",
"o	c #51444D3471C6",
"O	c #000000000000",
"+	c #FFFFFFFF8617",
" .XXoOOOOOOOOOOOOOOOOOOOOOOO",
" .XXoOOOOOOOOOOOOOOOOOOOOOOO",
" .XXoOOOOOOOOOOOOOOOOOOOOOOO",
" .XXoOOOOOOOOOOOOOOOOOOOOOOO",
" .XXoOOOOOOOOOOOOOOOOOOOOOOO",
" .XXoOOOOOOOOOOOOOOOOOOOOOOO",
" .XXoOOOOOOOOOOOOOOOOOOOOOOO",
" .XXoOOOOOOOOOOOOOOOOOOOOOOO",
" .XXoOOOOOOOOOOOOOOOOOOOOOOO",
" .XXoOOOOOOOOOOOOOOOOOOOOOOO",
" .XXoOOOOOOOOOOOOOOOOOOOOOOO",
" .XXoOOOOOOOOOOOOOOOOOOOOOOO",
" .XXoOOOOOOOOOOOOOOOOOOOOOOO",
" .XXoOOOOOOOOOOOOOOOOOOOOOOO",
" .XXoOOOOOOOOOOOOOOOOOOOOOOO",
" .XXoOOOOOOOOOOOOOOOOOOOOOOO",
" .XXoOOOOOOOOOOOOOOOOOOOOOOO",
" .XXoOOOOOOOOOOOOOOOOOOOOOOO",
" .XXoOOOOOOOOOOOOOOOOOOOOOOO",
" .XXoOOOOOOOOOOOOOOOOOOOOOOO",
" .XXoOOOOOOOOOOOOOOOOOOOOOOO",
" .XXXoOOOOOOOOOOOOOOOOOOOOOO",
" . .XoXX....................",
"  .XOoX......ooooooooooooooo",
" .XoOo.....Xo+++++++++++++++",
" .OOXoX....Xo+++++++++++++++",
"O.XXoOoXXXXXX...............",
"OOooOOOooooooooooooooooooooo"};
