/* XPM */
static char * frameIBR_xpm[] = {
"28 28 7 1",
" 	c #000000000000",
".	c #FFFFFFFFFFFF",
"X	c #AEBABEFBAEBA",
"o	c #BEFBBEFBBEFB",
"O	c #C71BCB2BD75C",
"+	c #86178A289658",
"@	c #51444D3471C6",
"                       .... ",
"                      .XXX..",
"                      .o..o.",
"                      ...X o",
"                      O.X+ +",
"                      .o  @X",
"                      OoXXX+",
"                      OoXXX+",
"                      OoXXX+",
"                      OooXX+",
"                      XOoXX+",
"                      XoXoX+",
"                      XO++X@",
"                      X+@@X@",
"                      X@  X@",
"                      X@  X@",
"                      X@  X@",
"                      X@  X@",
"                      X@  X@",
"                      X@  X@",
"                      X@  X@",
"                      X@  X@",
"XXXXXXXXXXXXXXXXXXXXXXX@  X@",
"@@@@@@@@@@@@@@@@@@@@@@@@  X@",
"                          X@",
"                          X@",
"XXXXXXXXXXXXXXXXXXXXXXXXXX+@",
"@@@@@@@@@@@@@@@@@@@@@@@@@@@ "};
