/* XPM */
static char * titleAT_xpm[] = {
"200 12 19 1",
" 	c #000000000000",
".	c #492455554924",
"X	c #08201C711040",
"o	c #104028A21861",
"O	c #10402CB21861",
"+	c #082024921040",
"@	c #082014510820",
"#	c #000014510820",
"$	c #000018610820",
"%	c #000010400000",
"&	c #000004100000",
"*	c #28A2492430C2",
"=	c #2081451428A2",
"-	c #186138E32081",
";	c #08200C300820",
":	c #082018611040",
">	c #082018610820",
",	c #000010400820",
"<	c #EFBEEBADEFBE",
"                . ..                                                                                                                                                                                    ",
".........       ....              ......................................................................................................................................................................",
".........       ....              ......................................................................................................................................................................",
"XoOO+@#$%      $.X.. +@#$XoOO+@#$XoOO+@#$XoOO+@#$XoOOXoOO+@#$%&OO+@#$%XoOO+@#$XoOO+@#$XoOO+@#$XoOO+@#$XoOOXoOO+@#$%&OO+@#$%XoOO+@#$XoOO+@#$XoOO+@#$XoOO+@#$XoXoOO+@#$%&OO+@#$%XoOO+@#$XoOO+@#$XoOO+@#$Xo",
"*=--      --    .*..     *=--    *=--    *=--    *=--*=--      --     *=--    *=--    *=--    *=--    *=--*=--      --     *=--    *=--    *=--    *=--    *=*=--      --     *=--    *=--    *=--    *=",
"                . ..                                                                                                                                                                                    ",
"                . ..                                                                                                                                                                                    ",
"                . ..                                                                                                                                                                                    ",
"............... ....        ............................................................................................................................................................................",
"............... ....        ............................................................................................................................................................................",
";::>,,@@@,:>,,@@.;.. ,   ;::>,,@@;::>,,@@;::>,,@@;::>;::>,,@@@,:>,,@@@;::>,,@@;::>,,@@;::>,,@@;::>,,@@;::>;::>,,@@@,:>,,@@@;::>,,@@;::>,,@@;::>,,@@;::>,,@@;:;::>,,@@@,:>,,@@@;::>,,@@;::>,,@@;::>,,@@;:",
"               .<<<..                                                                                                                                                                                   "};
