/* XPM */
static char * titleIB_xpm[] = {
"500 12 4 1",
" 	c #000000000000",
".	c #FFFFFFFFFFFF",
"X	c #AEBABEFBAEBA",
"o	c #51444D3471C6",
"                                                                                                                                                                                                                                                                                                                                                                                                                                                                                                                    ",
"                                                                                                                                                                                                                                                                                                                                                                                                                                                                                                                    ",
"                                                                                                                                                                                                                                                                                                                                                                                                                                                                                                                    ",
"                                                                                                                                                                                                                                                                                                                                                                                                                                                                                                                    ",
"                                                                                                                                                                                                                                                                                                                                                                                                                                                                                                                    ",
"                                                                                                                                                                                                                                                                                                                                                                                                                                                                                                                    ",
"                                                                                                                                                                                                                                                                                                                                                                                                                                                                                                                    ",
"                                                                                                                                                                                                                                                                                                                                                                                                                                                                                                                    ",
"....................................................................................................................................................................................................................................................................................................................................................................................................................................................................................................................",
"XXXXXXXXXXXXXXXXXXXXXXXXXXXXXXXXXXXXXXXXXXXXXXXXXXXXXXXXXXXXXXXXXXXXXXXXXXXXXXXXXXXXXXXXXXXXXXXXXXXXXXXXXXXXXXXXXXXXXXXXXXXXXXXXXXXXXXXXXXXXXXXXXXXXXXXXXXXXXXXXXXXXXXXXXXXXXXXXXXXXXXXXXXXXXXXXXXXXXXXXXXXXXXXXXXXXXXXXXXXXXXXXXXXXXXXXXXXXXXXXXXXXXXXXXXXXXXXXXXXXXXXXXXXXXXXXXXXXXXXXXXXXXXXXXXXXXXXXXXXXXXXXXXXXXXXXXXXXXXXXXXXXXXXXXXXXXXXXXXXXXXXXXXXXXXXXXXXXXXXXXXXXXXXXXXXXXXXXXXXXXXXXXXXXXXXXXXXXXXXXXXXXXXXXXXXXXXXXXXXXXXXXXXXXXXXXXXXXXXXXXXXXXXXXXXXXXXXXXXXXXXXXXXXXXXXXXXXXXXXXXXXXXXXXXXXXXXXXXXXX",
"oooooooooooooooooooooooooooooooooooooooooooooooooooooooooooooooooooooooooooooooooooooooooooooooooooooooooooooooooooooooooooooooooooooooooooooooooooooooooooooooooooooooooooooooooooooooooooooooooooooooooooooooooooooooooooooooooooooooooooooooooooooooooooooooooooooooooooooooooooooooooooooooooooooooooooooooooooooooooooooooooooooooooooooooooooooooooooooooooooooooooooooooooooooooooooooooooooooooooooooooooooooooooooooooooooooooooooooooooooooooooooooooooooooooooooooooooooooooooooooooooooooooooooooooooooo",
"                                                                                                                                                                                                                                                                                                                                                                                                                                                                                                                    "};
