/* XPM */
static char * titleAB_xpm[] = {
"500 12 35 1",
" 	c #000000000000",
".	c #000000000820",
"X	c #000000001040",
"o	c #000000001861",
"O	c #000000002081",
"+	c #0000000028A2",
"@	c #0000000030C2",
"#	c #0000000038E3",
"$	c #000000004103",
"%	c #000000004924",
"&	c #000000005144",
"*	c #000000005965",
"=	c #000000006185",
"-	c #0000000069A6",
";	c #0000000071C6",
":	c #0000000079E7",
">	c #000000008617",
",	c #000000008E38",
"<	c #000000009658",
"1	c #000000009E79",
"2	c #00000000A699",
"3	c #00000000AEBA",
"4	c #00000000B6DA",
"5	c #00000000BEFB",
"6	c #00000000C71B",
"7	c #00000000CF3C",
"8	c #00000000D75C",
"9	c #00000000DF7D",
"0	c #00000000E79D",
"q	c #00000000EFBE",
"w	c #00000000F7DE",
"e	c #00000000FFFF",
"r	c #FFFFFFFFFFFF",
"t	c #AEBABEFBAEBA",
"y	c #51444D3471C6",
"      ..........XXXXXooooooooooOOOOOOOOOO+++++@@@@@@@@@@#####$$$$$$$$$$%%%%%%%%%%&&&&&**********=====----------;;;;;;;;;;:::::>>>>>>>>>>,,,,,,,,,,<<<<<11111111112222233333333334444444444555556666666666777778888888888999999999900000qqqqqqqqqqqwwwwwwwwwwwwwwwwwqqqqqqqqqqq00000999999999988888888887777766666666665555544444444443333333333222221111111111<<<<<,,,,,,,,,,>>>>>>>>>>:::::;;;;;;;;;;----------=====**********&&&&&%%%%%%%%%%$$$$$$$$$$#####@@@@@@@@@@+++++OOOOOOOOOOooooooooooXXXXX..........     ",
"      ..........XXXXXooooooooooOOOOOOOOOO+++++@@@@@@@@@@#####$$$$$$$$$$%%%%%%%%%%&&&&&**********=====----------;;;;;;;;;;:::::>>>>>>>>>>,,,,,,,,,,<<<<<11111111112222233333333334444444444555556666666666777778888888888999999999900000qqqqqqqqqqqwwwwwwwwewwwwwwwwqqqqqqqqqqq00000999999999988888888887777766666666665555544444444443333333333222221111111111<<<<<,,,,,,,,,,>>>>>>>>>>:::::;;;;;;;;;;----------=====**********&&&&&%%%%%%%%%%$$$$$$$$$$#####@@@@@@@@@@+++++OOOOOOOOOOooooooooooXXXXX..........     ",
"      ..........XXXXXooooooooooOOOOOOOOOO+++++@@@@@@@@@@#####$$$$$$$$$$%%%%%%%%%%&&&&&**********=====----------;;;;;;;;;;:::::>>>>>>>>>>,,,,,,,,,,<<<<<11111111112222233333333334444444444555556666666666777778888888888999999999900000qqqqqqqqqqwwwwwweeeeeeewwwwwwqqqqqqqqqq00000999999999988888888887777766666666665555544444444443333333333222221111111111<<<<<,,,,,,,,,,>>>>>>>>>>:::::;;;;;;;;;;----------=====**********&&&&&%%%%%%%%%%$$$$$$$$$$#####@@@@@@@@@@+++++OOOOOOOOOOooooooooooXXXXX..........     ",
"      ..........XXXXXooooooooooOOOOOOOOOO+++++@@@@@@@@@@#####$$$$$$$$$$%%%%%%%%%%&&&&&**********=====----------;;;;;;;;;;:::::>>>>>>>>>>,,,,,,,,,,<<<<<11111111112222233333333334444444444555556666666666777778888888888999999999900000qqqqqqqqqqwwwwweeeeeeeeewwwwwqqqqqqqqqq00000999999999988888888887777766666666665555544444444443333333333222221111111111<<<<<,,,,,,,,,,>>>>>>>>>>:::::;;;;;;;;;;----------=====**********&&&&&%%%%%%%%%%$$$$$$$$$$#####@@@@@@@@@@+++++OOOOOOOOOOooooooooooXXXXX..........     ",
"      ..........XXXXXooooooooooOOOOOOOOOO+++++@@@@@@@@@@#####$$$$$$$$$$%%%%%%%%%%&&&&&**********=====----------;;;;;;;;;;:::::>>>>>>>>>>,,,,,,,,,,<<<<<11111111112222233333333334444444444555556666666666777778888888888999999999900000qqqqqqqqqqwwwwweeeeeeeeewwwwwqqqqqqqqqq00000999999999988888888887777766666666665555544444444443333333333222221111111111<<<<<,,,,,,,,,,>>>>>>>>>>:::::;;;;;;;;;;----------=====**********&&&&&%%%%%%%%%%$$$$$$$$$$#####@@@@@@@@@@+++++OOOOOOOOOOooooooooooXXXXX..........     ",
"      ..........XXXXXooooooooooOOOOOOOOOO+++++@@@@@@@@@@#####$$$$$$$$$$%%%%%%%%%%&&&&&**********=====----------;;;;;;;;;;:::::>>>>>>>>>>,,,,,,,,,,<<<<<11111111112222233333333334444444444555556666666666777778888888888999999999900000qqqqqqqqqqwwwwweeeeeeeeewwwwwqqqqqqqqqq00000999999999988888888887777766666666665555544444444443333333333222221111111111<<<<<,,,,,,,,,,>>>>>>>>>>:::::;;;;;;;;;;----------=====**********&&&&&%%%%%%%%%%$$$$$$$$$$#####@@@@@@@@@@+++++OOOOOOOOOOooooooooooXXXXX..........     ",
"      .........XXXXXXoooooooooOOOOOOOOOO+++++@@@@@@@@@@#####$$$$$$$$$$$%%%%%%%%%%&&&&&**********=====----------;;;;;;;;;::::::>>>>>>>>>>,,,,,,,,,<<<<<<1111111111222223333333333444444444555556666666666677777888888888899999999990000qqqqqqqqqqwwwwweeeeeeeeeeewwwwwqqqqqqqqqq0000999999999988888888887777766666666666555554444444443333333333222221111111111<<<<<<,,,,,,,,,>>>>>>>>>>::::::;;;;;;;;;----------=====**********&&&&&%%%%%%%%%%$$$$$$$$$$$#####@@@@@@@@@@+++++OOOOOOOOOOoooooooooXXXXXX.........     ",
"      ..........XXXXXooooooooooOOOOOOOOOO+++++@@@@@@@@@@#####$$$$$$$$$$%%%%%%%%%%&&&&&**********=====----------;;;;;;;;;;:::::>>>>>>>>>>,,,,,,,,,,<<<<<11111111112222233333333334444444444555556666666666777778888888888999999999900000qqqqqqqqqqwwwwweeeeeeeeewwwwwqqqqqqqqqq00000999999999988888888887777766666666665555544444444443333333333222221111111111<<<<<,,,,,,,,,,>>>>>>>>>>:::::;;;;;;;;;;----------=====**********&&&&&%%%%%%%%%%$$$$$$$$$$#####@@@@@@@@@@+++++OOOOOOOOOOooooooooooXXXXX..........     ",
"rrrrrrrrrrrrrrrrrrrrrrrrrrrrrrrrrrrrrrrrrrrrrrrrrrrrrrrrrrrrrrrrrrrrrrrrrrrrrrrrrrrrrrrrrrrrrrrrrrrrrrrrrrrrrrrrrrrrrrrrrrrrrrrrrrrrrrrrrrrrrrrrrrrrrrrrrrrrrrrrrrrrrrrrrrrrrrrrrrrrrrrrrrrrrrrrrrrrrrrrrrrrrrrrrrrrrrrrrrrrrrrrrrrrrrrrrrrrrrrrrrrrrrrrrrrrrrrrrrrrrrrrrrrrrrrrrrrrrrrrrrrrrrrrrrrrrrrrrrrrrrrrrrrrrrrrrrrrrrrrrrrrrrrrrrrrrrrrrrrrrrrrrrrrrrrrrrrrrrrrrrrrrrrrrrrrrrrrrrrrrrrrrrrrrrrrrrrrrrrrrrrrrrrrrrrrrrrrrrrrrrrrrrrrrrrrrrrrrrrrrrrrrrrrrrrrrrrrrrrrrrrrrrrrrrrrrrrrrrrrrrrrrrrrrrrrrrrrrrrr",
"tttttttttttttttttttttttttttttttttttttttttttttttttttttttttttttttttttttttttttttttttttttttttttttttttttttttttttttttttttttttttttttttttttttttttttttttttttttttttttttttttttttttttttttttttttttttttttttttttttttttttttttttttttttttttttttttttttttttttttttttttttttttttttttttttttttttttttttttttttttttttttttttttttttttttttttttttttttttttttttttttttttttttttttttttttttttttttttttttttttttttttttttttttttttttttttttttttttttttttttttttttttttttttttttttttttttttttttttttttttttttttttttttttttttttttttttttttttttttttttttttttttttttttttttttttt",
"yyyyyyyyyyyyyyyyyyyyyyyyyyyyyyyyyyyyyyyyyyyyyyyyyyyyyyyyyyyyyyyyyyyyyyyyyyyyyyyyyyyyyyyyyyyyyyyyyyyyyyyyyyyyyyyyyyyyyyyyyyyyyyyyyyyyyyyyyyyyyyyyyyyyyyyyyyyyyyyyyyyyyyyyyyyyyyyyyyyyyyyyyyyyyyyyyyyyyyyyyyyyyyyyyyyyyyyyyyyyyyyyyyyyyyyyyyyyyyyyyyyyyyyyyyyyyyyyyyyyyyyyyyyyyyyyyyyyyyyyyyyyyyyyyyyyyyyyyyyyyyyyyyyyyyyyyyyyyyyyyyyyyyyyyyyyyyyyyyyyyyyyyyyyyyyyyyyyyyyyyyyyyyyyyyyyyyyyyyyyyyyyyyyyyyyyyyyyyyyyyyyyyyyyyyyyyyyyyyyyyyyyyyyyyyyyyyyyyyyyyyyyyyyyyyyyyyyyyyyyyyyyyyyyyyyyyyyyyyyyyyyyyyyyyyyyyyyyyyyy",
"                                                                                                                                                                                                                                                                                                                                                                                                                                                                                                                    "};
