/* XPM */
static char * minimizeI_xpm[] = {
"16 44 6 1",
" 	c None",
".	c #CDCECD",
"+	c #FFFAFF",
"@	c #626562",
"#	c #BDBABD",
"$	c #F6F6F6",
".++++++++++++++.",
"+..............@",
"+..............@",
"+..............@",
"+...@@@@@@@....@",
"+...@#####+....@",
"+....@###+.....@",
"+....@###+.....@",
"+.....@#+......@",
"+.....@#+......@",
"+......+.......@",
"+..............@",
"+..............@",
"+..............@",
".@@@@@@@@@@@@@@.",
"................",
"................",
"................",
"................",
"................",
"@@@@@@@@@@@@@@@@",
"$$$$$$$$$$$$$$$$",
".@@@@@@@@@@@@@@.",
"@##############+",
"@##############+",
"@##############+",
"@###@@@@@@@####+",
"@###@#####+####+",
"@####@###+#####+",
"@####@###+#####+",
"@#####@#+######+",
"@#####@#+######+",
"@######+#######+",
"@##############+",
"@##############+",
"@##############+",
".++++++++++++++.",
"................",
"................",
"................",
"................",
"................",
"@@@@@@@@@@@@@@@@",
"$$$$$$$$$$$$$$$$"};
