/* XPM */
static char * titleIL_xpm[] = {
"5 22 8 1",
" 	c None",
".	c #CCCECC",
"+	c #CDCECD",
"@	c #CCCDCC",
"#	c #626562",
"$	c #616461",
"%	c #F6F6F6",
"&	c #F5F5F5",
"...+@",
"...+@",
"...+@",
"...+@",
"...+@",
"...+@",
"...+@",
"...+@",
"...+@",
"...+@",
"...+@",
"...+@",
"...+@",
"...+@",
"...+@",
"...+@",
"...+@",
"...+@",
"...+@",
"...+@",
"####$",
"%%%%&"};
