/* XPM */
static char * titleAB_xpm[] = {
"3 14 13 1",
" 	c None",
".	c #415D7B",
"+	c #6281AC",
"@	c #5A7DAC",
"#	c #7BAAE6",
"$	c #394862",
"%	c #5A79A4",
"&	c #5A75A4",
"*	c #52759C",
"=	c #52719C",
"-	c #526D94",
";	c #4A698B",
">	c #4A658B",
"...",
"+++",
"@#@",
"@@$",
"%%%",
"&&&",
"*#*",
"==$",
"---",
"---",
";#;",
">>$",
">>>",
"==="};
