/* XPM */
static char * titleAL_xpm[] = {
"4 14 14 1",
" 	c None",
".	c #DEDEDE",
"+	c #415D7B",
"@	c #6281AC",
"#	c #7BAAE6",
"$	c #5A7DAC",
"%	c #394862",
"&	c #5A79A4",
"*	c #5A75A4",
"=	c #52759C",
"-	c #52719C",
";	c #526D94",
">	c #4A698B",
",	c #4A658B",
"..++",
".+@@",
".+#$",
".+$%",
".+&&",
".+**",
".+#=",
".+-%",
".+;;",
".+;;",
".+#>",
".+,%",
".+,,",
".---"};
