/* XPM */
static char * sizeR_xpm[] = {
"16 21 3 1 15 10",
" 	c None",
".	c #000000",
"+	c #ECFFEA",
"                ",
"            ....",
"            .++.",
"            ..+.",
"            .++.",
"            ..+.",
"            .++.",
"     ..     ..+.",
"     .+..   .++.",
" .....+++.. ..+.",
" .+++++++++..++.",
" .....+++.. ..+.",
"     .+..   .++.",
"     ..     ..+.",
"            .++.",
"            ..+.",
"            .++.",
"            ..+.",
"            .++.",
"            ....",
"                "};
