/* XPM */
static char * closeA_xpm[] = {
"20 40 62 1",
" 	c #8E388A288E38",
".	c #71C679E771C6",
"X	c #596569A66185",
"o	c #492459655144",
"O	c #38E349244103",
"+	c #410351444924",
"@	c #86178A288E38",
"#	c #30C2410338E3",
"$	c #492461855144",
"%	c #C71BCB2BCF3C",
"&	c #FFFFFBEEFFFF",
"*	c #CF3CD34CCF3C",
"=	c #514461855965",
"-	c #28A238E330C2",
";	c #208130C228A2",
":	c #186130C228A2",
">	c #208138E330C2",
",	c #410359655144",
"<	c #9658A2899E79",
"1	c #9E79A2899E79",
"2	c #492451444924",
"3	c #186128A22081",
"4	c #38E351444924",
"5	c #A699B2CAAEBA",
"6	c #514469A66185",
"7	c #492461855965",
"8	c #8E389A699658",
"9	c #BEFBC30BC71B",
"0	c #79E78A288E38",
"q	c #596571C669A6",
"w	c #618571C669A6",
"e	c #A699AAAAA699",
"r	c #410359654924",
"t	c #596571C66185",
"y	c #9658A289A699",
"u	c #410351445144",
"i	c #A699AAAAAEBA",
"p	c #71C6820779E7",
"a	c #208130C230C2",
"s	c #30C249244103",
"d	c #30C241034103",
"f	c #9E79AAAAA699",
"g	c #C71BCB2BC71B",
"h	c #8E389A699E79",
"j	c #BEFBC30BBEFB",
"k	c #D75CDB6CD75C",
"l	c #B6DAC30BBEFB",
"z	c #96589A699658",
"x	c #71C68A288617",
"c	c #AEBAB2CAAEBA",
"v	c #514459655144",
"b	c #69A679E771C6",
"n	c #28A2410338E3",
"m	c #79E78A288617",
"M	c #30C2492438E3",
"N	c #082018611040",
"B	c #082020811040",
"V	c #000018611040",
"C	c #A699A289A699",
"Z	c #000000000000",
"A	c #C71BC30BC71B",
"S	c #861782078617",
"  .XoO+oX@  .XoO+oX@",
".o+###$$%&&*X=####Oo",
"+O-;:>,<%-+*12:>>>>-",
"3;;;;456+3322*;::::3",
"--;4478+;;-+O9>,%+;;",
"-->40qwer#O+ty4%<u;;",
"-->4i8X<rpO+yq9%,,;;",
"-->>,%5,<#OO,,4>>>a;",
"-->>ssd;&;-Oofg,a;;;",
"--;>s,hjOk==l7zz##;;",
"O;;;+4x=skcv&++4bn:3",
"+3;;sm<sMokk;;:#nn33",
".o+#--+#No.o+#BB##No",
"  .XoO+VX@  .XoO+VX@",
"CCCCCCCCCCCCCCCCCCCC",
"Z&&AAAAAAAAAAAAAAASS",
"Z&&AAAAAAAAAAAAAAASS",
"Z&SSSSSSSSSSSSSSSSSS",
"&&&&&&&&&&&&&&&&&&&&",
"ZSSSSSSSSSSSSSSSSSSS",
"  .XoO+oX@  .XoO+oX@",
"####################",
".o+#####&&&&+#####Oo",
"+O-;:>>&&-+&&;:>>>>-",
"3;;;;:&::33;;&;::::3",
"--;>>>&;;;--;&>>&;;;",
"-->>&>a&;;-->&>&&a;;",
"-->>&&>&;&--&>&&>>;;",
"-->>>&&>&;-->>>>>>a;",
"-->>>>a;&;-->&&>a;;;",
"--;>>>&&;&--&>&&;;;;",
"O;;;;:&::&&;&;;:&::3",
"+3;;:&&:33&&;;:>::33",
".o+#BB##No.o+#BB##No",
"  .XoO+VX@  .XoO+VX@",
"CCCCCCCCCCCCCCCCCCCC",
"ZSSAAAAAAAAAAAAAAA&&",
"ZS&&&&&&&&&&&&&&&&&&",
"Z&&&&&&&&&&&&&&&&&&&",
"ZZZZZZZZZZZZZZZZZZZZ"};
