/* XPM */
static char * frameIB_xpm[] = {
"4 4 2 1",
" 	c #000000000000",
".	c #596565955965",
"    ",
"    ",
"    ",
"...."};
