/* XPM */
static char * titleAB_xpm[] = {
"60 12 77 1",
" 	c #EFBEF3CEEFBE",
".	c #E79DEBADE79D",
"X	c #DF7DE79DDF7D",
"o	c #FFFFFFFFFFFF",
"O	c #EFBEEFBEEFBE",
"+	c #F7DEF7DEF7DE",
"@	c #E79DEFBEE79D",
"#	c #D75CDB6CD75C",
"$	c #D75CD75CD75C",
"%	c #E79DE79DE79D",
"&	c #DF7DE38DDF7D",
"*	c #DF7DDF7DDF7D",
"=	c #DF7DEBADDF7D",
"-	c #D75CDF7DD75C",
";	c #D75CE38DD75C",
":	c #CF3CD34CCF3C",
">	c #C71BCF3CC71B",
",	c #BEFBCB2BBEFB",
"<	c #C71BCB2BC71B",
"1	c #CF3CCF3CCF3C",
"2	c #BEFBC71BBEFB",
"3	c #B6DAC71BB6DA",
"4	c #AEBAC30BAEBA",
"5	c #B6DAC30BB6DA",
"6	c #AEBABEFBAEBA",
"7	c #A699BEFBA699",
"8	c #A699BAEAA699",
"9	c #AEBABAEAAEBA",
"0	c #C71BC71BC71B",
"q	c #B6DABEFBB6DA",
"w	c #9E79B6DA9E79",
"e	c #9E79B2CA9E79",
"r	c #A699B6DAA699",
"t	c #AEBAB6DAAEBA",
"y	c #BEFBC30BBEFB",
"u	c #B6DABAEAB6DA",
"i	c #B6DAB6DAB6DA",
"p	c #9E79AEBA9E79",
"a	c #9658AAAA9658",
"s	c #9658A2899658",
"d	c #9E79A6999E79",
"f	c #9E79AAAA9E79",
"g	c #9E79A2899E79",
"h	c #96589E799658",
"j	c #861796588617",
"k	c #A699AAAAA699",
"l	c #AEBAB2CAAEBA",
"z	c #A699AEBAA699",
"x	c #A699B2CAA699",
"c	c #8E38A2898E38",
"v	c #8E38A6998E38",
"b	c #8E3896588E38",
"n	c #8E3892488E38",
"m	c #79E78A2879E7",
"M	c #79E7861779E7",
"N	c #71C6861771C6",
"B	c #79E7820779E7",
"V	c #8E389A698E38",
"C	c #71C679E771C6",
"Z	c #86178E388617",
"A	c #96589A699658",
"S	c #8E389E798E38",
"D	c #618565956185",
"F	c #69A671C669A6",
"G	c #69A679E769A6",
"H	c #596565955965",
"J	c #61856DB66185",
"K	c #514455555144",
"L	c #618569A66185",
"P	c #492455554924",
"I	c #51445D755144",
"U	c #38E33CF338E3",
"Y	c #618571C66185",
"T	c #38E3410338E3",
"R	c #514459655144",
"E	c #514461855144",
"W	c #492451444924",
" .XoooooooooooooooooOO.++ooooo .X@ ooooooooooooooooooooooooo",
"oooo#$#$$$$#########%&%%*#$### @X=-$#$$$$#########oooo##$###",
"#-##$$$$$$$$$$$$$$$$--&**$$$$$-&;;#$$$$$$$$$$$$$$$$$$$$$$$$$",
"$$$$$$$$$$$$$$$$$$$$$###$$$$$$###$$$$$::::::::::::::$$$$$$$$",
"$$$$:::::$$$$$$$$$$$$$$$$$$:::>,,<>::::::::1,,>::::::::$$$$$",
"$>,2,>:::$$$$$$$$$$$$::::::>,23445555,>::::1,,>::::::::::$$$",
">3552>:::$$$$$$$$$$::,252536667888999999644333301$:::::::$$$",
"56865q9q2$$:<<>$$$$:>235556666788899999968wewrrrr92>>::::$$$",
"58899tt92yqq2u9quuiy<25568889978888tt99paaeewrrrrrq55uut9quu",
"seepdfffgdhjklttuzdd<59utxxrtxseepdfffgscvpeerrxrrq59utttqiz",
"bnbmMMNBnVVmCZsggVAAAdsffppzhkbnbmMMNBnSSjmZsggVAAAdsffpfzhk",
"DFGHHHJHHKLHPIPUKYYJTREIIRTWTWDFGHHHJHHKLHPIPUKYYJTREIIRTWTW"};
