/* XPM */
static char * titleAR_xpm[] = {
"10 12 52 1",
" 	c #C71BCF3CC71B",
".	c #410349244103",
"X	c #104014511040",
"o	c #000000000000",
"O	c #10401C711040",
"+	c #10402CB21040",
"@	c #104030C21040",
"#	c #AEBAAEBAAEBA",
"$	c #A699A289A699",
"%	c #28A228A228A2",
"&	c #104028A21040",
"*	c #BEFBBEFBBEFB",
"=	c #96589A699658",
"-	c #186120811861",
";	c #082010400820",
":	c #D75CD75CD75C",
">	c #965892489658",
",	c #208128A22081",
"<	c #186130C21861",
"1	c #082008200820",
"2	c #082014510820",
"3	c #104020811040",
"4	c #BEFBCB2BBEFB",
"5	c #BEFBC71BBEFB",
"6	c #104010401040",
"7	c #000004100000",
"8	c #00000C300000",
"9	c #B6DAC71BB6DA",
"0	c #B6DAC30BB6DA",
"q	c #71C67DF771C6",
"w	c #AEBABEFBAEBA",
"e	c #A699BAEAA699",
"r	c #B6DABEFBB6DA",
"t	c #AEBABAEAAEBA",
"y	c #AEBAB6DAAEBA",
"u	c #9658A2899658",
"i	c #9E79B2CA9E79",
"p	c #9E79AEBA9E79",
"a	c #9E79A6999E79",
"s	c #9E79AAAA9E79",
"d	c #8E3896588E38",
"f	c #8E3892488E38",
"g	c #79E78A2879E7",
"h	c #79E7861779E7",
"j	c #71C6861771C6",
"k	c #79E7820779E7",
"l	c #618565956185",
"z	c #69A671C669A6",
"x	c #69A679E769A6",
"c	c #596565955965",
"v	c #61856DB66185",
"b	c #514455555144",
" .XXoO++@@",
"#$%XoO&+@@",
"*=--X;++++",
"::>,Xoo<&&",
"::>XX11233",
": 45167o88",
" 900q17ooo",
"0wew0roooo",
"0eettyyooo",
"uiipasssoo",
"dfdghhjkoo",
"lzxcccvccb"};
