/* XPM */
static char * titleAS_xpm[] = {
"1 14 4 1",
" 	c None",
".	c #F2F2F2",
"+	c #E0E0E0",
"@	c #000000",
".",
".",
".",
".",
".",
".",
".",
".",
".",
".",
".",
"+",
"+",
"@"};
