/* XPM */
static char * restoreA_xpm[] = {
"12 36 6 1",
" 	c None",
".	c #006561",
"+	c #D5D6D5",
"@	c #8E8E8E",
"#	c #000000",
"$	c #B5C0FF",
"..........++",
"..........@+",
"..........#@",
"..........#@",
"....$$....#@",
"...$$$$...#@",
"..$$$$$$..#@",
".$$$$$$$$.#@",
"$$$.$$.$$$#@",
".$..$$..$.#@",
"....$$....#@",
"....$$....#@",
"....$$....#@",
"....$$....#@",
"..........#@",
"..........#@",
"+@#########@",
"++@@@@@@@@@@",
"++++++++++++",
"+..........+",
"+..........+",
"+..........+",
"+..........+",
"+....$$....+",
"+...$$$$...+",
"+..$$$$$$..+",
"+.$$$$$$$$.+",
"+$$$.$$.$$$+",
"+.$..$$..$.+",
"+....$$....+",
"+....$$....+",
"+....$$....+",
"+....$$....+",
"+..........+",
"+..........+",
"++++++++++++"};
