/* XPM */
static char * titleAL_xpm[] = {
"2 18 4 1",
" 	c None",
".	c #006562",
"+	c #D5D6D5",
"@	c #8B8D8B",
"..",
"..",
"..",
"..",
"..",
"..",
"..",
"..",
"..",
"..",
"..",
"..",
"..",
"..",
"..",
"..",
"+@",
"++"};
