/* XPM */
static char * titleIM_xpm[] = {
"6 18 4 1",
" 	c #000065956185",
".	c #8E388E388E38",
"X	c #C71BC30BC71B",
"o	c #000000000000",
"   .XX",
"   o.X",
"   o.X",
"   o.X",
"   o.X",
"   o.X",
"   o.X",
"   o.X",
"   o.X",
"   o.X",
"   o.X",
"   o.X",
"   o.X",
"   o.X",
"   o.X",
"   o.X",
"oooo.X",
".....X"};
