/* XPM */
static char * titleAR_xpm[] = {
"8 18 50 1",
" 	c None",
".	c #E9E8EE",
"+	c #D5D2DD",
"@	c #7B768A",
"#	c #C3C0CE",
"$	c #CFCDD8",
"%	c #C5C2D0",
"&	c #CCC9D5",
"*	c #BFBDCB",
"=	c #BCB9C8",
"-	c #BAB6C5",
";	c #B5B1C1",
">	c #CAC7D3",
",	c #8E899B",
"'	c #AEAABB",
")	c #C6C3CF",
"!	c #B4B1C0",
"~	c #A7A3B5",
"{	c #C2BFCB",
"]	c #AFABBC",
"^	c #BDBAC7",
"/	c #ABA7B8",
"(	c #A09CAF",
"_	c #A5A0B2",
":	c #9994A8",
"<	c #B9B6C3",
"[	c #928DA2",
"}	c #B4B0BF",
"|	c #A09BAE",
"1	c #8F8A9F",
"2	c #B2AEBD",
"3	c #9D98AB",
"4	c #AEABBA",
"5	c #9A95A8",
"6	c #8B869B",
"7	c #9793A5",
"8	c #888398",
"9	c #ADAAB8",
"0	c #858094",
"a	c #ABA7B5",
"b	c #9590A2",
"c	c #817D91",
"d	c #A8A5B3",
"e	c #918E9F",
"f	c #A5A2B0",
"g	c #8F8A9C",
"h	c #7E798D",
"i	c #8C8799",
"j	c #A4A1AF",
"k	c #8F8A9E",
"........",
"+++++++@",
"#$%##$%@",
"&*==&*=@",
"-;;>-;;,",
"'')!'')@",
"~{]~~{]@",
"^/((^/(@",
"_::<_::,",
"[[}|[[}@",
"1231123@",
"4566456@",
"7889788,",
"00ab00a@",
"cdeccde@",
"fghhfgh@",
"i@@ji@@,",
"kkkkkkkk"};
