/* XPM */
static char * dframeATR_xpm[] = {
"15 15 5 1",
" 	c None",
".	c #000000",
"+	c #919191",
"@	c #B2B2B2",
"$	c #606060",
"............   ",
"@@@@@@@@@@@@.  ",
"$$$$$$$$$$$+$. ",
"...........++$.",
"@@@@@@@@@@@.@$.",
"@@@@@@@@@@@.@$.",
"@@@@@@@@@@@.@$.",
"@@@@@@@@@@@.@$.",
"@@@@@@@@@@@.@$.",
"@@@@@@@@@@@.@$.",
"@@@@@@@@@@@.@$.",
"@@@@@@@@@@@.@$.",
"@@@@@@@@@@@.@$.",
"@@@@@@@@@@@.@$.",
"@@@@@@@@@@@.@$."};
