/* XPM */
static char * menuButtonA_xpm[] = {
"15 30 3 1",
" 	c #727F92",
"+	c #A0A9B5",
"@	c #4B5461",
"               ",
"               ",
"  +++++++++++  ",
"  +++++++++++@ ",
"  +++++++++++@ ",
"  +++++++++++@ ",
"  +++++++++++@ ",
"  +++++++++++@ ",
"  +++++++++++@ ",
"  +++++++++++@ ",
"  +++++++++++@ ",
"  +++++++++++@ ",
"   @@@@@@@@@@@ ",
"               ",
"               ",
"               ",
"               ",
"  +++++++++++  ",
"  +++++++++++@ ",
"  +++++++++++@ ",
"  +++++++++++@ ",
"  +++++++++++@ ",
"  +++++++++++@ ",
"  +++++++++++@ ",
"  +++++++++++@ ",
"  +++++++++++@ ",
"  +++++++++++@ ",
"   @@@@@@@@@@  ",
"               ",
"               "};
