/* XPM */
static char * gqmpeg_xpm[] = {
"16 16 43 1",
" 	c None",
".	c #6F6F6F",
"+	c #696969",
"@	c #6B6B6B",
"#	c #646464",
"$	c #595959",
"%	c #676767",
"&	c #626262",
"*	c #5D5D5D",
"=	c #4A4A4A",
"-	c #585858",
";	c #565656",
">	c #999999",
",	c #898989",
"'	c #505050",
")	c #707070",
"!	c #757575",
"~	c #7B7B7B",
"{	c #BFBFBF",
"]	c #BCBCBC",
"^	c #636363",
"/	c #737373",
"(	c #969696",
"_	c #B0B0B0",
":	c #767676",
"<	c #5F5F5F",
"[	c #7E7E7E",
"}	c #ABABAB",
"|	c #A8A8A8",
"1	c #525252",
"2	c #666666",
"3	c #A7A7A7",
"4	c #C1C1C1",
"5	c #7C7C7C",
"6	c #C2C2C2",
"7	c #B2B2B2",
"8	c #414141",
"9	c #A2A2A2",
"0	c #AFAFAF",
"a	c #535353",
"b	c #A6A6A6",
"c	c #C4C4C4",
"d	c #838383",
"                ",
"                ",
"         .+@#$  ",
"      .%&*   =  ",
"      -      ;  ",
"      ;      ;  ",
"      ;      ;  ",
"      ;   #  ;  ",
"      ;  +>,.'  ",
"   )! ;  ~{]^/  ",
"  &(_:<  [}|1   ",
"  234+5  [678   ",
"  @90.a   b     ",
"  #]c           ",
"   d            ",
"                "};
