/* XPM */
static char * mozilla_mail_32x32_xpm[] = {
"32 32 206 2",
"  	c None",
". 	c #A4BED0",
"+ 	c #6184A6",
"@ 	c #567494",
"# 	c #516E8C",
"$ 	c #597796",
"% 	c #5B7C9C",
"& 	c #4A647E",
"* 	c #5A6B7F",
"= 	c #ACCAE0",
"- 	c #BEE0E0",
"; 	c #6B8AAB",
"> 	c #4E6073",
", 	c #516376",
"' 	c #56687D",
") 	c #596C81",
"! 	c #62758B",
"~ 	c #6D839B",
"{ 	c #8097B0",
"] 	c #8CA7C1",
"^ 	c #718EAD",
"/ 	c #2B3C4D",
"( 	c #414951",
"_ 	c #8AAED4",
": 	c #A4C6E0",
"< 	c #A3B5C6",
"[ 	c #778696",
"} 	c #243342",
"| 	c #334558",
"1 	c #729ABF",
"2 	c #5F7A95",
"3 	c #D7EFFF",
"4 	c #8CB8D4",
"5 	c #83ABD2",
"6 	c #79A4CB",
"7 	c #729BC1",
"8 	c #7297BB",
"9 	c #6C91B6",
"0 	c #6186A9",
"a 	c #4E6A86",
"b 	c #92B1D0",
"c 	c #4B6581",
"d 	c #222F3C",
"e 	c #5B7086",
"f 	c #A6C5D4",
"g 	c #95C2D4",
"h 	c #7FAAD2",
"i 	c #6D93BB",
"j 	c #6A8EB3",
"k 	c #678EB2",
"l 	c #577897",
"m 	c #445C75",
"n 	c #5E82A4",
"o 	c #3D546B",
"p 	c #12181F",
"q 	c #7092B6",
"r 	c #8BB3D4",
"s 	c #D3DCE4",
"t 	c #DCE2E9",
"u 	c #EFF2F4",
"v 	c #9AB2C9",
"w 	c #BAC9D8",
"x 	c #E4E9EE",
"y 	c #ABBDCD",
"z 	c #000000",
"A 	c #55677B",
"B 	c #B2C1CF",
"C 	c #52708E",
"D 	c #394D62",
"E 	c #0E141A",
"F 	c #7A9DC1",
"G 	c #83A2C1",
"H 	c #62819E",
"I 	c #6E8BA5",
"J 	c #EAEDF1",
"K 	c #4F6C88",
"L 	c #41586F",
"M 	c #161E26",
"N 	c #7EA1C5",
"O 	c #84B1D4",
"P 	c #B4C5D4",
"Q 	c #889EB4",
"R 	c #C3CED9",
"S 	c #9BADC0",
"T 	c #1A242E",
"U 	c #83A6CA",
"V 	c #839BB2",
"W 	c #96A9BC",
"X 	c #141414",
"Y 	c #C9D6E1",
"Z 	c #718AA3",
"` 	c #CDD7DF",
" .	c #7D94AC",
"..	c #FCC909",
"+.	c #40566D",
"@.	c #7C4221",
"#.	c #617F9C",
"$.	c #6984A1",
"%.	c #607B97",
"&.	c #FFFFFF",
"*.	c #374A5F",
"=.	c #FF9B3A",
"-.	c #FF0000",
";.	c #0000FF",
">.	c #FDC446",
",.	c #FF9539",
"'.	c #FFCC48",
").	c #FCBB42",
"!.	c #FC9136",
"~.	c #7B3C1F",
"{.	c #898584",
"].	c #EABB42",
"^.	c #FFB542",
"/.	c #FF8C34",
"(.	c #CB9F38",
"_.	c #EAB13E",
":.	c #FDAB3E",
"<.	c #FE8634",
"[.	c #CB9435",
"}.	c #EA9938",
"|.	c #F97F30",
"1.	c #CB802E",
"2.	c #EA722D",
"3.	c #78371C",
"4.	c #008000",
"5.	c #CC5F27",
"6.	c #71321B",
"7.	c #A54B1D",
"8.	c #682C18",
"9.	c #3B5065",
"0.	c #AFB1B3",
"a.	c #45240E",
"b.	c #843916",
"c.	c #5B2314",
"d.	c #3B4B5B",
"e.	c #000080",
"f.	c #763114",
"g.	c #6589AC",
"h.	c #0B0F14",
"i.	c #762C13",
"j.	c #465F78",
"k.	c #66581F",
"l.	c #371B0B",
"m.	c #CBB03D",
"n.	c #9C822E",
"o.	c #65521D",
"p.	c #1C0E05",
"q.	c #842F14",
"r.	c #FDDB4D",
"s.	c #EAC847",
"t.	c #CBA53A",
"u.	c #9C7A2B",
"v.	c #654B1A",
"w.	c #170C05",
"x.	c #381C0A",
"y.	c #6A2D12",
"z.	c #A53817",
"A.	c #632312",
"B.	c #FFE14F",
"C.	c #F9CE47",
"D.	c #CB9A36",
"E.	c #9C7228",
"F.	c #654519",
"G.	c #663012",
"H.	c #9C421A",
"I.	c #CC451D",
"J.	c #702516",
"K.	c #859FBA",
"L.	c #FFD44B",
"M.	c #EAA63C",
"N.	c #CB8B31",
"O.	c #9C6524",
"P.	c #663F17",
"Q.	c #1E1006",
"R.	c #662F12",
"S.	c #CB4C1E",
"T.	c #EA431E",
"U.	c #6D2317",
"V.	c #FFA13B",
"W.	c #EA8232",
"X.	c #CB6B29",
"Y.	c #9C4E1F",
"Z.	c #6A3314",
"`.	c #49210D",
" +	c #491F0C",
".+	c #9C3A18",
"++	c #EA481E",
"@+	c #E53A1C",
"#+	c #541F16",
"$+	c #99C4F1",
"%+	c #8394A7",
"&+	c #CA702D",
"*+	c #BD632B",
"=+	c #BC5D28",
"-+	c #BA5726",
";+	c #B65023",
">+	c #AB4721",
",+	c #933C1C",
"'+	c #782F17",
")+	c #922E17",
"!+	c #A6301A",
"~+	c #7B2418",
"{+	c #70534E",
"]+	c #354B63",
"^+	c #121F2B",
"/+	c #060F19",
"  . + @ # # # @ @ @ @ @ @ @ @ @ @ @ @ @ @ @ @ @ $ % % % $ & *   ",
"= - ; & > > , ' ) ) ) ) ) ) ) ) ) ) ) ) ) ) ) ) ! ~ { ] ^ & / ( ",
"_ : <                                                     [ } | ",
"1 2   3 4 5 6 7 7 7 7 7 7 7 7 7 7 7 1 1 1 1 1 8 9 0 % a   b c d ",
"9 e   f g h 7 i 9 9 9 9 9 9 9 9 9 9 9 9 9 9 j k + l a m   n o p ",
"q '   g r s t u v s u w v x u y 0 0 0 0 + + n % @ c m   j @ } z ",
"8 A   4 h s u u < s u u B s u u % % % % % @ C a & m   i + D E   ",
"F A   r 6 G u u H I u J % % u x % @ @ @ C K c m L   i 9 m M z   ",
"N A   O 6 v u P @ Q u R @ S u y @ @ @ # K c m L   i 9 m T z     ",
"U A   O 6 P u V @ < u < @ B u W @ @ # a & m L   i 9 m T z X     ",
"U A   O 6 Y u Z @ R u V @ ` u  .C ..z m m +.  i 9 m T z @.X     ",
"U A   O 6 x u #.@ x u $.@ x u %...&.&.z *.  j j m T z =.@.X     ",
"U A   O 6 k % @ @ @ @ @ @ @ # -.-.&.&.;.z @ + m T z >.,.@.X     ",
"U A   O 6 k % @ @ @ @ @ @ # ..&.&.&.&.&.&.z *.T z '.).!.~.X     ",
"U A   O 6 k % @ @ @ @ @ # ..;.&.&.{.&.&.&.-...z ].>.^./.~.X     ",
"U A   O 6 k % @ @ @ @ C ..&.&.&.&.&.{.&.&.&.&.z (._.:.<.~.X     ",
"U A   O 6 k % @ @ @ @ a z &.&.&.{.&.&.{.&.&.&.;.z [.}.|.~.X     ",
"U A   O 6 k % @ @ @ # & D z ;.&.&.{.&.&.{.&.&.&.&...1.2.3.X     ",
"U A   O 6 k % @ @ # a m z &.z &.&.&.{.&.&.&.4.4.&.-...5.6.X     ",
"U A   O 6 k % @ # K & +...&.&...-.&.&.{.&.&.4.4.&.&.z 7.8.X     ",
"U A   O 6 k % C K c m 9.0...;.&.z &.&.&.&.&.&.&.-.z a.b.c.X     ",
"U A   O 6 k % # c m +.  C d...&.&.z ;.&.&.&.&.&.z -.e.f.c.X     ",
"U A   O 7 g.@ c m L   k % / h...-.&.z &.&.&.;.z &.&.z i.c.X     ",
"U *   O 7 + K j.L   i j +.M z k.z &.&.z -.&.z &.-.z l.i.c.X     ",
"U )   5 i % c m   i 9 m T z m.n.o.z ;.&.z ..&.&.z p.a.q.c.X     ",
"U !   6 g.C m   i 9 m T z r.s.t.u.v.z &.&.&.;.z w.x.y.z.A.X     ",
"U Z   i % &   i 9 m T z B.r.C.].D.E.F.z -.&.z w.l.G.H.I.J.X     ",
"U K.  + a   i 9 m T z r.L.'.>.).M.N.O.P.z z Q.x.R.H.S.T.U.X     ",
"q b       i j m T z >.^.:.:.V.=.!.W.X.Y.Z.`. +y..+I.++@+#+X     ",
"g.$+%+j j @ o T z ,.&+*+*+*+=+-+-+;+>+,+'+A.A.i.)+!+!+~+{+X     ",
"d.# ]+c o / M z X X X X X X X X X X X X X X X X X X X X X       ",
"  d.^+/+T E                                                     "};
