/* XPM */
static char * pan_16x16_xpm[] = {
"16 16 107 2",
"  	c None",
". 	c #DEDEDE",
"+ 	c #D9D9D9",
"@ 	c #DCDCDC",
"# 	c #F0F0F0",
"$ 	c #EAEAEA",
"% 	c #E8E8E8",
"& 	c #E6E6E6",
"* 	c #EEEEEE",
"= 	c #CBCBCB",
"- 	c #B8B8B8",
"; 	c #A2A2A2",
"> 	c #F4F4F4",
", 	c #EBEBEB",
"' 	c #E4E4E4",
") 	c #E1E2E1",
"! 	c #D5D5D5",
"~ 	c #CACACA",
"{ 	c #C4C5C4",
"] 	c #8A8A8A",
"^ 	c #F6F6F6",
"/ 	c #FAFAFA",
"( 	c #DDDDDD",
"_ 	c #E2E2E2",
": 	c #ECECEC",
"< 	c #E0E1E0",
"[ 	c #C9C9C9",
"} 	c #CBCCCB",
"| 	c #C8C8C8",
"1 	c #979797",
"2 	c #5B5B5B",
"3 	c #000000",
"4 	c #F9F9F9",
"5 	c #C3C3C3",
"6 	c #CECECE",
"7 	c #CDCDCD",
"8 	c #D8D8D8",
"9 	c #C4C4C4",
"0 	c #C2C2C2",
"a 	c #767876",
"b 	c #575757",
"c 	c #E7E8E7",
"d 	c #E7E7E7",
"e 	c #E9E9E9",
"f 	c #C0C0C0",
"g 	c #BFBFBF",
"h 	c #AFB0AF",
"i 	c #9E9F9E",
"j 	c #737373",
"k 	c #2E2E2E",
"l 	c #B3B3B3",
"m 	c #A0A0A0",
"n 	c #BABBBA",
"o 	c #D6D6D6",
"p 	c #E1E1E1",
"q 	c #B6B6B6",
"r 	c #BABABA",
"s 	c #B6B7B6",
"t 	c #707170",
"u 	c #6F706F",
"v 	c #191919",
"w 	c #D3D3D3",
"x 	c #AEAEAE",
"y 	c #909190",
"z 	c #959595",
"A 	c #9FA09F",
"B 	c #B2B2B2",
"C 	c #959695",
"D 	c #666666",
"E 	c #656665",
"F 	c #0B0B0B",
"G 	c #BBBCBB",
"H 	c #BEBEBE",
"I 	c #CFCFCF",
"J 	c #AAAAAA",
"K 	c #858685",
"L 	c #787878",
"M 	c #7E7F7E",
"N 	c #828382",
"O 	c #737473",
"P 	c #727372",
"Q 	c #474747",
"R 	c #020202",
"S 	c #8C8C8C",
"T 	c #999999",
"U 	c #A8A8A8",
"V 	c #B4B5B4",
"W 	c #838483",
"X 	c #6C6C6C",
"Y 	c #616161",
"Z 	c #808180",
"` 	c #242423",
" .	c #848484",
"..	c #929292",
"+.	c #8D8E8D",
"@.	c #9C9C9C",
"#.	c #9C9D9C",
"$.	c #6B6B6B",
"%.	c #0E0E0E",
"&.	c #3D3D3D",
"*.	c #686868",
"=.	c #7A7A7A",
"-.	c #7C7C7C",
";.	c #777877",
">.	c #565756",
",.	c #626362",
"'.	c #3B3B3B",
"                                ",
"                                ",
"          . + @                 ",
"        # $ % & * % = - ;       ",
"      > . & , % ' ) ! ~ { ]     ",
"    ^ / ( % _ : < [ } | 1 2 3   ",
"    4 % 5 6 7 % ~ 8 9 0 a b 3   ",
"  c # : d e } f g h ~ i j k 3   ",
"  l m n o ' p p q r s t u v     ",
"    w x y z A B f f C D E F     ",
"  G H ~ I J K L M N O P Q R     ",
"    S z T U V U W X Y Z `       ",
"        b  ...+.z @.#.$.%.      ",
"            &.*.=.-.;.>.3       ",
"                  &.,.'.        ",
"                                "};
