/* XPM */
static char * xchat_32x32_xpm[] = {
"32 32 239 2",
"  	c None",
". 	c #040400",
"+ 	c #3A3500",
"@ 	c #595200",
"# 	c #161400",
"$ 	c #3E3900",
"% 	c #090800",
"& 	c #000000",
"* 	c #443D00",
"= 	c #D4BE00",
"- 	c #F3DA00",
"; 	c #988800",
"> 	c #DDC600",
", 	c #685D00",
"' 	c #393000",
") 	c #F2D100",
"! 	c #FFDD00",
"~ 	c #9B8600",
"{ 	c #181400",
"] 	c #5B4E00",
"^ 	c #6F5D00",
"/ 	c #FFD600",
"( 	c #F6CE00",
"_ 	c #9B8100",
": 	c #846E00",
"< 	c #0F0C00",
"[ 	c #CDA500",
"} 	c #FFCD00",
"| 	c #9B7C00",
"1 	c #181300",
"2 	c #DAB000",
"3 	c #2C2400",
"4 	c #463700",
"5 	c #DAA900",
"6 	c #FFC600",
"7 	c #F6BE00",
"8 	c #9B7800",
"9 	c #755A00",
"0 	c #2A1F00",
"a 	c #DAA200",
"b 	c #FFBD00",
"c 	c #9B7200",
"d 	c #181100",
"e 	c #0C0900",
"f 	c #6B4F00",
"g 	c #463200",
"h 	c #DA9B00",
"i 	c #FFB600",
"j 	c #F6AF00",
"k 	c #9B6E00",
"l 	c #6B4C00",
"m 	c #ECA800",
"n 	c #2A1D00",
"o 	c #DA9400",
"p 	c #FFAD00",
"q 	c #9A6900",
"r 	c #150E00",
"s 	c #0B0700",
"t 	c #6B4800",
"u 	c #462E00",
"v 	c #DA8E00",
"w 	c #FFA600",
"x 	c #F6A000",
"y 	c #986200",
"z 	c #694300",
"A 	c #EC9900",
"B 	c #2A1A00",
"C 	c #DA8700",
"D 	c #FF9D00",
"E 	c #462900",
"F 	c #DA8000",
"G 	c #FF9600",
"H 	c #8F96A5",
"I 	c #949BAB",
"J 	c #58493A",
"K 	c #D97900",
"L 	c #FF8D00",
"M 	c #E68000",
"N 	c #281600",
"O 	c #979FAE",
"P 	c #969DAC",
"Q 	c #989FAE",
"R 	c #33353A",
"S 	c #8E4A00",
"T 	c #FF8600",
"U 	c #C06500",
"V 	c #A4ABB7",
"W 	c #47494E",
"X 	c #9B9FA9",
"Y 	c #A9AFBA",
"Z 	c #616369",
"` 	c #E69240",
" .	c #E79341",
"..	c #E89442",
"+.	c #F88516",
"@.	c #E99543",
"#.	c #EA9643",
"$.	c #685645",
"%.	c #4E4F52",
"&.	c #818386",
"*.	c #BABEC5",
"=.	c #BFC2C8",
"-.	c #6E6F72",
";.	c #B4B8C1",
">.	c #B5B9C2",
",.	c #B6BAC3",
"'.	c #B8BCC4",
").	c #B9BDC4",
"!.	c #BBBFC6",
"~.	c #BCC0C6",
"{.	c #95979C",
"].	c #96989D",
"^.	c #C0C3C9",
"/.	c #C2C4CA",
"(.	c #C2C6CB",
"_.	c #C4C6CC",
":.	c #C5C8CD",
"<.	c #C7C9CE",
"[.	c #C8CACF",
"}.	c #ED9245",
"|.	c #CACCD0",
"1.	c #CBCDD1",
"2.	c #CDCED2",
"3.	c #CECFD2",
"4.	c #CED0D3",
"5.	c #CFD1D3",
"6.	c #D0D2D4",
"7.	c #595A5B",
"8.	c #D3D4D6",
"9.	c #D3D5D6",
"0.	c #D4D5D6",
"a.	c #D1D2D4",
"b.	c #464647",
"c.	c #8E8E8F",
"d.	c #D5D7D7",
"e.	c #474848",
"f.	c #8F9090",
"g.	c #D7D8D7",
"h.	c #484848",
"i.	c #D8D8D7",
"j.	c #D9D9D6",
"k.	c #484847",
"l.	c #DBDAD4",
"m.	c #494947",
"n.	c #5F2500",
"o.	c #CAA78E",
"p.	c #DBDBD4",
"q.	c #AA4300",
"r.	c #973B00",
"s.	c #BAA28C",
"t.	c #DEDCD2",
"u.	c #4A4946",
"v.	c #DFDDD1",
"w.	c #E0DDD1",
"x.	c #391600",
"y.	c #E2DFCF",
"z.	c #4B4A45",
"A.	c #E4E0CE",
"B.	c #4C4B45",
"C.	c #E3E0CF",
"D.	c #E3E0CE",
"E.	c #E4E0CD",
"F.	c #E5E1CD",
"G.	c #EEB588",
"H.	c #EEB688",
"I.	c #E6E2CC",
"J.	c #4D4B44",
"K.	c #FF5D00",
"L.	c #EC5700",
"M.	c #521F00",
"N.	c #A5A190",
"O.	c #E9E4CA",
"P.	c #4E4C43",
"Q.	c #EAE4CA",
"R.	c #EAE5C9",
"S.	c #EBE5C9",
"T.	c #EBE5C8",
"U.	c #EBE6C8",
"V.	c #4E4D43",
"W.	c #ECE6C8",
"X.	c #4F4D43",
"Y.	c #4D4C44",
"Z.	c #4D4C43",
"`.	c #503D2D",
" +	c #C2622D",
".+	c #1A1916",
"++	c #EC5000",
"@+	c #6D2600",
"#+	c #1A1A16",
"$+	c #535146",
"%+	c #4F4D42",
"&+	c #83806E",
"*+	c #130600",
"=+	c #4C1600",
"-+	c #551900",
";+	c #C63C00",
">+	c #421300",
",+	c #531900",
"'+	c #2F0E00",
")+	c #6B2000",
"!+	c #0C0300",
"~+	c #9B2A00",
"{+	c #F64400",
"]+	c #FF4700",
"^+	c #EC4200",
"/+	c #6D1F00",
"(+	c #461400",
"_+	c #DA3D00",
":+	c #EC4100",
"<+	c #6B1D00",
"[+	c #621700",
"}+	c #FF3D00",
"|+	c #EC3900",
"1+	c #531400",
"2+	c #2A0A00",
"3+	c #DA3500",
"4+	c #541400",
"5+	c #7D1A00",
"6+	c #FF3700",
"7+	c #EC3300",
"8+	c #6D1800",
"9+	c #460F00",
"0+	c #DA2F00",
"a+	c #8B1D00",
"b+	c #0F0300",
"c+	c #BD2200",
"d+	c #FC2D00",
"e+	c #FF2D00",
"f+	c #EC2A00",
"g+	c #530F00",
"h+	c #2A0700",
"i+	c #DA2700",
"j+	c #2C0800",
"k+	c #280600",
"l+	c #B21B00",
"m+	c #E62300",
"n+	c #671000",
"o+	c #470B00",
"p+	c #CD1F00",
"                                                                ",
"                                                                ",
"        . + @ #                                 # @ $ %         ",
"      & * = - ; &                             & ; - > , &       ",
"      ' ) ! ! ! ~ {                         { ~ ! ! ! ! ]       ",
"      ^ / / / / ( _ &                     & _ ( / / / / :       ",
"      < [ } } } } } | 1                 1 | } } } } } 2 3       ",
"      & 4 5 6 6 6 6 7 8 &             & 9 7 6 6 6 6 5 4 &       ",
"        & 0 a b b b b b c d         e f b b b b b a 0 &         ",
"          & g h i i i i j k &     & l m i i i i h g &           ",
"            & n o p p p p p q r s t p p p p p o n &             ",
"              & u v w w w w x y z A w w w w v u &               ",
"                & B C D D D D D D D D D D C B &                 ",
"                  & E F G G G G G G G G F E &                   ",
"                  H I J K L L L L L L M N &             O       ",
"                  P Q R S T T T T T T U & &             V W     ",
"                  X Y Z `  . .....+.@.#.$.%.&.  *.      =.-.    ",
"  ;.>.,.'.).!.~.{.].^./.(._.:.<.[.}.|.1.2.3.4.5.6.7.  8.8.9.0.  ",
"  6.a.b.& & & & & c.d.e.& & & f.g.h.g.i.& & & & j.k.  & l.m.&   ",
"  i.i.h.    & & n.o.p.m.q.q.r.s.t.u.v.w.x.q.q.n.y.z.    A.B.    ",
"  y.C.D.A.E.F.F.G.H.I.J.K.L.M.N.O.P.O.Q.R.R.S.T.U.V.    W.X.    ",
"    Y.Y.Y.Z.P.P.`. +P..+++@+&   X.#+$+X.%+%+%+%+%+#+&   &+#+    ",
"    & & *+=+-+-+-+;+-+>+,+&     & & & & '+-+-+-+-+-+)+!+& &     ",
"      & ~+{+]+]+]+]+^+/+&             & (+_+]+]+]+]+:+<+&       ",
"      [+}+}+}+}+}+|+1+&                 & 2+3+}+}+}+}+}+4+      ",
"      5+6+6+6+6+7+8+&                     & 9+0+6+6+6+6+a+      ",
"      b+c+d+e+f+g+&                         & h+i+e+e+i+j+      ",
"      & k+l+m+n+&                             & o+p+p+o+&       ",
"          & &                                     & &           ",
"                                                                ",
"                                                                ",
"                                                                "};
