/* XPM */
static char * titleAT_xpm[] = {
"3 18 4 1",
" 	c None",
".	c #BFDFEF",
"+	c #91B1B7",
"@	c #394452",
"...",
"+++",
"+++",
"+++",
"+++",
"+++",
"+++",
"+++",
"+++",
"+++",
"+++",
"+++",
"+++",
"+++",
"+++",
"+++",
"+++",
"@@@"};
