/* XPM */
static char * restoreI_xpm[] = {
"18 32 18 1",
" 	g None",
".	g #8A8A8A",
"+	g #717171",
"@	g #595959",
"#	g #6A6A6A",
"$	g #959595",
"%	g #B5B5B5",
"&	g #4B4B4B",
"*	g #828282",
"=	g #E5E5E5",
"-	g #A5A5A5",
";	g #656565",
">	g #D3D3D3",
",	g #3C3C3C",
"'	g #353535",
")	g #7A7A7A",
"!	g #282828",
"~	g #030303",
".++++++++++++++++@",
".################@",
".#$%%%%%%%%%%%%$#&",
"*##%==========-@;@",
"*#;@->==>==>=-,&;&",
"*;;;@-===>==$,&;;&",
"*;;;;&-=>==$'&;;#&",
"*;;;;;+%=>-&&@;;;&",
"*;;;#--*--&*.;;;#@",
"*###$%--.;*--.###@",
".++-%-%------%.##@",
"$).$.*..**..*..++;",
"$))#;;;;;;;;;;;#+@",
"$)))))))))))))))*;",
"@,',,,,,,,,',,,,,!",
"'~~~~~~~~~~~~~~~~~",
".+++)++++++++++++@",
".;;;;;###########@",
".+*$$$$$$$$$.$.*#@",
"*#;.----$-----*@;@",
"*;;;.$-------.&@;&",
"*;;;@*----$-*&;;;&",
"*;;;#@*$---)&@;;#&",
"*;;;;#+*--)@@;;;;&",
"*;;;;*.)**@++;;;#@",
"*###*..*)#).*)###@",
".++.$$...*....*##@",
"$+***)********))+;",
"$))++++++####++++@",
"$)))))))))))))))*;",
";,,,',',,,,,',,,'!",
"!~~~~~~~~~~~~~~~~~"};
