/* XPM */
static char * closeA_xpm[] = {
"20 32 32 1",
" 	c None",
".	c #EEEEE1",
"+	c #ECECDF",
"@	c #E8E8DC",
"#	c #000000",
"$	c #CCCCC4",
"%	c #DFDFD5",
"&	c #EAEADD",
"*	c #CDCDC5",
"=	c #DFDFD4",
"-	c #B3B3AC",
";	c #DCDCD3",
">	c #E6E6D9",
",	c #A9A9A5",
"'	c #AFAFA8",
")	c #787875",
"!	c #9F9F9B",
"~	c #7D7D7A",
"{	c #939390",
"]	c #B3B3AB",
"^	c #DDDDD4",
"/	c #757573",
"(	c #8E8E8B",
"_	c #E9E9DD",
":	c #8A8A86",
"<	c #CBCBC3",
"[	c #E5E5D8",
"}	c #8E8E8C",
"|	c #8B8B86",
"1	c #80807E",
"2	c #888883",
"3	c #94948F",
"....................",
"....................",
".....+@@+...+@@+....",
"....+##$%&.&##*=+...",
"....@###-;>###,*@...",
"....@$###'###)!$@...",
"....+%-#####~{]%+...",
".....&^'###/(';_....",
"......>#####:<[.....",
".....&###/###';_....",
"....+###~}|###]%+...",
"....@##1{'<'##2$@...",
"....@*,!-;>^-23*@...",
"....+=*$%&.&%$*=+...",
".....+@@+...+@@+....",
"....................",
"....................",
"....................",
".....+@@+...+@@+....",
"....+=*$%&.&%$*=+...",
"....@*##-;>^-##*@...",
"....@$###'<'###$@...",
"....+%-###|###]%+...",
".....&^'#####';_....",
"......><|###:<[.....",
".....&^'#####';_....",
"....+%-###|###]%+...",
"....@$###'<'###$@...",
"....@*##-;>^-##*@...",
"....+=*$%&.&%$*=+...",
".....+@@+...+@@+....",
"...................."};
