/* XPM */
static char * frameITL_xpm[] = {
"22 21 4 1",
" 	c None",
".	c #000000",
"+	c #FFFFFF",
"@	c #EEEEE0",
"......................",
".+++++++++++++++++++++",
".@@@@@@@@@@@@@@@@@@@@@",
".@@                   ",
".@@                   ",
".@@                   ",
".@@                   ",
".@@                   ",
".@@                   ",
".@@                   ",
".@@                   ",
".@@                   ",
".@@                   ",
".@@                   ",
".@@                   ",
".@@                   ",
".@@                   ",
".@@                   ",
".@@                   ",
".@@                   ",
".@@                   "};
