/* XPM */
static char * minimizeI_xpm[] = {
"20 32 35 1",
" 	c None",
".	c #EEEEE1",
"+	c #EAEADD",
"@	c #E4E4D7",
"#	c #E2E2D5",
"$	c #E0E0D4",
"%	c #FFFFFF",
"&	c #C6C6C1",
"*	c #DEDED6",
"=	c #8A8A87",
"-	c #C6C6C0",
";	c #747473",
">	c #BABAB6",
",	c #727270",
"'	c #6E6E6D",
")	c #6E6E6C",
"!	c #71716F",
"~	c #B8B8B4",
"{	c #B7B7B2",
"]	c #B6B6B2",
"^	c #ECECDF",
"/	c #E9E9DC",
"(	c #E8E8DB",
"_	c #E7E7DA",
":	c #F0F0F0",
"<	c #DFDFDF",
"[	c #E0E0E0",
"}	c #DEDEDE",
"|	c #DFDFD9",
"1	c #E0E0D3",
"2	c #DEDED8",
"3	c #E1E1E1",
"4	c #D9D9D3",
"5	c #D7D7D1",
"6	c #D6D6D1",
"....................",
"....................",
"....................",
"....................",
"....................",
"....................",
"....................",
"....................",
".....+@##$$$$#@+....",
"....+%%%%%%%%%&*+...",
"....@%%%%%%%%%=-#...",
"....#%%%%%%%%%;>$...",
"....@&=,'))))!=-#...",
"....+*&~{]]]]~&*+...",
".....+@##$$$$#@+....",
"....................",
"....................",
"....................",
"........^/(/^.......",
"....................",
"....................",
"....................",
"....................",
".....^/((____(/^....",
".....^/((____(/^....",
"....^:<[<}}}}[|1^...",
"..../<%%%%%%%%%2(...",
"....(3%%%%%%%%%4_...",
"..../|%%%%%%%%%2(...",
"....^1|5566665|1^...",
".....^/((____(/^....",
"...................."};
