/* XPM */
static char * n4_xpm[] = {
"19 20 22 1",
" 	c None",
".	c #626562",
"+	c #66757C",
"@	c #30373D",
"#	c #5E6E76",
"$	c #454E52",
"%	c #E3E6E6",
"&	c #D2D4D5",
"*	c #A0A7AC",
"=	c #363E42",
"-	c #5B6970",
";	c #848C90",
">	c #FEFEFE",
",	c #515C62",
"'	c #7B858B",
")	c #91979A",
"!	c #212629",
"~	c #252A2D",
"{	c #B2B6B8",
"]	c #C4C7C8",
"^	c #747D7E",
"/	c #030303",
"...................",
"...................",
"+++++++++++++++++++",
"@@@@@@@@@@@@@@@@@@@",
"###################",
"@@$%&*=@@@@@@@$*&%$",
"--;>>>&$,----'%>>%$",
"@@)>>>%!~@@@@{>>&$!",
"-#&>>>{@$----;',~@$",
"=='>>>>))*))*);,!@@",
"++##))**{{{{]>>>{,#",
"$$$==~@~@@@@$>>>%@=",
"''''^^++++++#+*]*$+",
"-------,-----,$===,",
"))))))))))))));;';)",
")))))))))))))));)))",
"@@~@@@@@@@@@~@@@~@@",
"///////////////////",
"...................",
"..................."};
