/* XPM */
static char * galeon_16x16_xpm_xpm[] = {
"16 16 103 2",
"  	c None",
". 	c #EEEBE8",
"+ 	c #4F443C",
"@ 	c #D3CBC4",
"# 	c #3D322A",
"$ 	c #CECCCA",
"% 	c #D6CFC8",
"& 	c #3C322C",
"* 	c #A69D94",
"= 	c #A19488",
"- 	c #1F1915",
"; 	c #726861",
"> 	c #877567",
", 	c #211A16",
"' 	c #000000",
") 	c #1D1714",
"! 	c #080706",
"~ 	c #181310",
"{ 	c #020101",
"] 	c #D6D2CF",
"^ 	c #39302A",
"/ 	c #263C49",
"( 	c #526557",
"_ 	c #62544B",
": 	c #060504",
"< 	c #A4BCC0",
"[ 	c #86A8A0",
"} 	c #8B9D7A",
"| 	c #78885C",
"1 	c #424E2E",
"2 	c #79736E",
"3 	c #010101",
"4 	c #97BBD0",
"5 	c #E9F0E1",
"6 	c #FBFBEC",
"7 	c #9BA190",
"8 	c #0F1213",
"9 	c #0C0B09",
"0 	c #B0A8A1",
"a 	c #70655C",
"b 	c #100D0B",
"c 	c #CBDCD5",
"d 	c #FCFCE9",
"e 	c #D1D1B9",
"f 	c #080807",
"g 	c #040303",
"h 	c #306FB1",
"i 	c #83B2C2",
"j 	c #B4CEBC",
"k 	c #737E62",
"l 	c #172C3F",
"m 	c #1A2E3F",
"n 	c #1F2B2F",
"o 	c #2F72BC",
"p 	c #3E8ACE",
"q 	c #498DC2",
"r 	c #59685A",
"s 	c #556054",
"t 	c #838868",
"u 	c #445654",
"v 	c #334245",
"w 	c #3B474E",
"x 	c #2A69B5",
"y 	c #3578BE",
"z 	c #3C7AB4",
"A 	c #A4A895",
"B 	c #1C1911",
"C 	c #191E1B",
"D 	c #23394D",
"E 	c #142B44",
"F 	c #182735",
"G 	c #1F5198",
"H 	c #2861A8",
"I 	c #37699E",
"J 	c #DDD6A8",
"K 	c #635C3A",
"L 	c #102946",
"M 	c #0E2644",
"N 	c #09121C",
"O 	c #194480",
"P 	c #204E87",
"Q 	c #BFC5A7",
"R 	c #CEBF80",
"S 	c #37484F",
"T 	c #30414B",
"U 	c #172F4C",
"V 	c #0E2846",
"W 	c #0C2139",
"X 	c #020406",
"Y 	c #12315F",
"Z 	c #2C4C79",
"` 	c #3A4C68",
" .	c #112D56",
"..	c #102B4B",
"+.	c #0F2947",
"@.	c #0B213B",
"#.	c #030910",
"$.	c #091A3A",
"%.	c #0B2245",
"&.	c #0C233E",
"*.	c #0B213C",
"=.	c #071527",
"-.	c #010407",
"              . +               ",
"        @ # $ % &               ",
"      * = - ; > , '             ",
"        ) ' ! ~ { '             ",
"    ] ^         / (             ",
"    _ :       < [ } | 1         ",
"    2 3   4 5 6 7 8 9           ",
"  0 a b   c d e f               ",
"    g 3 h i j k         l m n   ",
"        o p q r     s t u v w   ",
"        x y z A     B C D E F   ",
"        G H I J K       L M N   ",
"          O P Q R S T U V W X   ",
"            Y Z `  ...+.@.#.    ",
"              $.%.&.*.=.-.      ",
"                                "};
