/* XPM */
static char * right_xpm[] = {
"11 17 3 1 10 1",
" 	c None",
".	c #020202",
"+	c #F4FBFF",
"         ..",
"        .+.",
"       .++.",
"      .+++.",
"     .++++.",
"    .+++++.",
"   .++++++.",
"  .+++++++.",
" .++++++++.",
" ..+++++++.",
"   ..+++++.",
"   .++.+++.",
"   .++...+.",
"  .++.   ..",
"  .++.     ",
"  ...      ",
"           "};
