/* XPM */
static char * dframeIBR_xpm[] = {
"27 27 3 1",
" 	c None",
".	c #DDDDDD",
"+	c #757575",
"                         .+",
"                         .+",
"                         .+",
"                         .+",
"                         .+",
"                         .+",
"                         .+",
"                         .+",
"                         .+",
"                         .+",
"                         .+",
"                         .+",
"                         .+",
"                         .+",
"                         .+",
"                         .+",
"                         .+",
"                         .+",
"                         .+",
"                         .+",
"                         .+",
"                         .+",
"                         .+",
"                         .+",
"                         .+",
"..........................+",
"+++++++++++++++++++++++++++"};
