/* XPM */
static char * dframeAR_xpm[] = {
"2 2 4 1",
" 	c None",
".	c #CECECE",
"+	c #646464",
"@	c #CBCBCB",
".+",
"@+"};
