/* XPM */
static char * frameAT_xpm[] = {
"2 6 3 1",
" 	c None",
".	c #646464",
"+	c #FFFFFF",
"  ",
"  ",
"  ",
"  ",
"..",
"++"};
