/* XPM */
static char * frameITR_xpm[] = {
"27 27 31 1",
" 	c None",
".	c #646464",
"+	c #FFFFFF",
"@	c #FEFEFE",
"#	c #F1F1F1",
"$	c #DDDDDD",
"%	c #EBEBEB",
"&	c #E1E1E1",
"*	c #EEEEEE",
"=	c #E0E0E0",
"-	c #DBDBDB",
";	c #E3E3E3",
">	c #F3F3F3",
",	c #F2F2F2",
"'	c #DFDFDF",
")	c #EAEAEA",
"!	c #E9E9E9",
"~	c #F4F4F4",
"{	c #EFEFEF",
"]	c #ECECEC",
"^	c #E6E6E6",
"/	c #E7E7E7",
"(	c #F0F0F0",
"_	c #E8E8E8",
":	c #E4E4E4",
"<	c #DEDEDE",
"[	c #E5E5E5",
"}	c #D9D9D9",
"|	c #DADADA",
"1	c #CECECE",
"2	c #CBCBCB",
"                           ",
"                           ",
"                           ",
"                           ",
"......................     ",
"++++++++++++++++++++++.    ",
"                     @+.   ",
"                     ##$.  ",
"                     %$$$. ",
"                     &*=-$.",
"                     ;>,$$.",
"                     ')&$$.",
"                     !&$$$.",
"                     *!&$$.",
"                     ~{%$$.",
"                     ])'$$.",
"                     ^=$$$.",
"                     )/=$$.",
"                     (%_$$.",
"                     ^:'$$.",
"                     <$<$$.",
"                     ==$$$.",
"                     [//$$.",
"                     }||$$.",
"                     1$$$$.",
"                     2$$$$.",
"                     .$$$$."};
