/* XPM */
static char * frameIR_xpm[] = {
"6 2 3 1",
" 	c None",
".	c #646464",
"+	c #DDDDDD",
".++++.",
".++++."};
