/* XPM */
static char * closeA_xpm[] = {
"20 42 25 1",
" 	c None",
".	c #000000",
"+	c #3E4D79",
"@	c #5A5D89",
"#	c #3D4E7C",
"$	c #7E83B2",
"%	c #3C4E7E",
"&	c #494B66",
"*	c #3C4F80",
"=	c #3B4F82",
"-	c #FFFFFF",
";	c #3A5084",
">	c #395186",
",	c #385189",
"'	c #37528B",
")	c #36528D",
"!	c #35538F",
"~	c #345491",
"{	c #335493",
"]	c #325596",
"^	c #315598",
"/	c #30569A",
"(	c #2F579C",
"_	c #2E579E",
":	c #2D58A0",
"....................",
"+++@@@@@@@@@@@@@@+++",
"##@$$$$$$$$$$$$$$@##",
"%@$@@@@@@@@@@@@@@&@%",
"*@$@@@@@@@@@@@@@@&@*",
"=@$@@-@@@@@@@-@@@&@=",
";@$@@--@@@@@--@@@&@;",
">@$@@@--@@@--@@@@&@>",
",@$@@@@--@--@@@@@&@,",
"'@$@@@@@-@-@@@@@@&@'",
")@$@@@@@---@@@@@@&@)",
"!@$@@@@@-@-@@@@@@&@!",
"~@$@@@@--@--@@@@@&@~",
"{@$@@@--@@@--@@@@&@{",
"]@$@@--@@@@@--@@@&@]",
"^@$@@-@@@@@@@-@@@&@^",
"/@$@@@@@@@@@@@@@@&@/",
"(@$@@@@@@@@@@@@@@&@(",
"__@&&&&&&&&&&&&&&@__",
":::@@@@@@@@@@@@@@:::",
"....................",
"....................",
"+++@@@@@@@@@@@@@@+++",
"##@&&&&&&&&&&&&&&@##",
"%@&@@@@@@@@@@@@@@$@%",
"*@&@@@@@@@@@@@@@@$@*",
"=@&@@@-@@@@@@@-@@$@=",
";@&@@@--@@@@@--@@$@;",
">@&@@@@--@@@--@@@$@>",
",@&@@@@@--@--@@@@$@,",
"'@&@@@@@@-@-@@@@@$@'",
")@&@@@@@@---@@@@@$@)",
"!@&@@@@@@-@-@@@@@$@!",
"~@&@@@@@--@--@@@@$@~",
"{@&@@@@--@@@--@@@$@{",
"]@&@@@--@@@@@--@@$@]",
"^@&@@@-@@@@@@@-@@$@^",
"/@&@@@@@@@@@@@@@@$@/",
"(@&@@@@@@@@@@@@@@$@(",
"__@$$$$$$$$$$$$$$@__",
":::@@@@@@@@@@@@@@:::",
"...................."};
