/* XPM */
static char * titleIB_xpm[] = {
"5 21 35 1",
" 	c None",
".	c #000000",
"+	c #262E47",
"@	c #262E48",
"#	c #242E48",
"$	c #242E49",
"%	c #242F4A",
"&	c #242E4A",
"*	c #232F4C",
"=	c #242F4C",
"-	c #232F4D",
";	c #232F4E",
">	c #232F4F",
",	c #222F4F",
"'	c #222F50",
")	c #223050",
"!	c #223051",
"~	c #223052",
"{	c #203052",
"]	c #203054",
"^	c #1F3055",
"/	c #1F3255",
"(	c #1F3256",
"_	c #1F3257",
":	c #1F3357",
"<	c #1F3358",
"[	c #1D3359",
"}	c #1D335A",
"|	c #1D335C",
"1	c #1D335D",
"2	c #1D335E",
"3	c #1B335E",
"4	c #1B335F",
"5	c #1B345F",
"6	c #1B3460",
".....",
"+++@#",
"#$$$%",
"&%%%*",
"=*---",
"--;>>",
">>>>>",
">,,')",
")!!!~",
"!~{{]",
"]]^^^",
"^/(((",
"(___:",
":::<<",
"<<<[}",
"[}}}|",
"||111",
"11223",
"33444",
"44566",
"....."};
