/* XPM */
static char * n2_xpm[] = {
"14 20 2 1",
" 	c #CCC",
".	c #000",
"              ",
"  ..........  ",
"   ........ . ",
"           .. ",
"           .. ",
"           .. ",
"           .. ",
"           .. ",
"            . ",
"  ..........  ",
"  ..........  ",
" .            ",
" ..           ",
" ..           ",
" ..           ",
" ..           ",
" ..           ",
" . ........   ",
"  ..........  ",
"              "};
