/* XPM */
static char * n8_xpm[] = {
"14 20 82 1",
" 	c None",
".	c #DADAE5",
"+	c #BFC2DF",
"@	c #969ED6",
"#	c #8790CF",
"$	c #8690CD",
"%	c #A2A7D2",
"&	c #CCCDE0",
"*	c #6C79CB",
"=	c #5E6CC3",
"-	c #5D6ABF",
";	c #5B68BA",
">	c #5A67B6",
",	c #757FBC",
"'	c #7A85CC",
")	c #7883C9",
"!	c #A0A5CD",
"~	c #5763AB",
"{	c #AEB1D0",
"]	c #5D6AC0",
"^	c #868EC9",
"/	c #AEB2D1",
"(	c #5560A4",
"_	c #ADB0CE",
":	c #5B68B9",
"<	c #767FBE",
"[	c #CBCDDF",
"}	c #9FA3C7",
"|	c #545E9E",
"1	c #ACB0CB",
"2	c #A0A6CE",
"3	c #6671B4",
"4	c #747CB6",
"5	c #AEB1CF",
"6	c #9EA3C6",
"7	c #626BA4",
"8	c #7077A8",
"9	c #CACBDB",
"0	c #9FA4C9",
"a	c #5560A3",
"b	c #535C9A",
"c	c #6F77A6",
"d	c #737CB4",
"e	c #545FA1",
"f	c #8F94BD",
"g	c #ACAFCB",
"h	c #ACAFC9",
"i	c #6E75A2",
"j	c #4E568A",
"k	c #BBBCD0",
"l	c #CBCCDD",
"m	c #545E9F",
"n	c #8F94BC",
"o	c #BBBDD0",
"p	c #5C638F",
"q	c #8A8EAC",
"r	c #ADB0CD",
"s	c #525C99",
"t	c #ACAFCA",
"u	c #7A7F9F",
"v	c #495079",
"w	c #505992",
"x	c #ABAEC8",
"y	c #797D9B",
"z	c #484D72",
"A	c #4F578C",
"B	c #5D6491",
"C	c #BABCCF",
"D	c #898CA7",
"E	c #474D70",
"F	c #A8AABC",
"G	c #BBBCCF",
"H	c #5C628C",
"I	c #4A517C",
"J	c #494F78",
"K	c #484E73",
"L	c #474C6F",
"M	c #666A85",
"N	c #999CB3",
"O	c #787C97",
"P	c #777A95",
"Q	c #B9BAC9",
"..............",
"..............",
"..............",
".....+@#$%&...",
"....+*=-;>,...",
"....')&..!~{..",
"....]^.../(_..",
"....:<[..}|1..",
"....23456789..",
".....0a|bc9...",
"....defghijk..",
"...lmn...opq..",
"...rst....uv..",
"...gwx....yz..",
"...9ABC..DEF..",
"....GHIJKLM...",
"......NOPQ....",
"..............",
"..............",
".............."};
