/* XPM */
static char * dot_xpm[] = {
"5 20 15 1",
" 	c None",
".	c #DFDFDF",
"+	c #E4E4E4",
"@	c #E3E3E3",
"#	c #E2E2E2",
"$	c #DCDDDD",
"%	c #C7CDCD",
"&	c #D0D4D4",
"*	c #C3C7C7",
"=	c #4E6263",
"-	c #7F8687",
";	c #CECFCF",
">	c #7F8282",
",	c #A1A1A1",
"'	c #DDDDDD",
".....",
"+++++",
"+++++",
"+++++",
"+++++",
"@@@@@",
"@@@@@",
"@@@@@",
"@@@@@",
"#####",
"#$%&#",
"#*=-#",
"#;>,#",
"#####",
"#####",
"'''''",
"'''''",
"'''''",
"'''''",
"'''''"};
