/* XPM */
static char * n1_xpm[] = {
"14 20 13 1",
" 	c None",
".	c #5F3E7C",
"+	c #1A111A",
"@	c #6C476C",
"#	c #A26BA2",
"$	c #352335",
"%	c #BD7DBD",
"&	c #F4A1F4",
"*	c #513551",
"=	c #A36BA2",
"-	c #362435",
";	c #523651",
">	c #1B121A",
"..............",
"..............",
"..............",
".......+@#$...",
".....@%&&&*...",
".....#@*&&*...",
"........&&*...",
"........&&*...",
"........&&*...",
"........&&*...",
"........&&*...",
"........&&*...",
"........&&*...",
"........&&*...",
"........&&*...",
".....$#%&&%=-.",
".....+*****;>.",
"..............",
"..............",
".............."};
