/* XPM */
static char * frameIBL_xpm[] = {
"22 22 11 1",
" 	c None",
".	c #66707C",
"+	c #D2D2D2",
"@	c #A8A8A8",
"#	c #7E7E7E",
"$	c #545454",
"%	c #2A2A2A",
"&	c #FFFFFF",
"*	c #C9C9C9",
"=	c #B8B8B8",
"-	c #A7A7A7",
".+@#$%&&&&&&&&&&&&&&&&",
".+@#$%&&&&&&&&&&&&&&&&",
".+@#$%&&&&&&&&&&&&&&&&",
".+@#$%&&&&&&&&&&&&&&&&",
".+@#$%&&&&&&&&&&&&&&&&",
".+@#$%&&&&&&&&&&&&&&&&",
".+@#$%&&&&&&&&&&&&&&&&",
".+@#$%&&&&&&&&&&&&&&&&",
".+@#$%&&&&&&&&&&&&&&&&",
".+@#$%&&&&&&&&&&&&&&&&",
".+@#$%&&&&&&&&&&&&&&&&",
".+@#$%&&&&&&&&&&&&&&&&",
".+@#$%&&&&&&&&&&&&&&&&",
".+@#$%&&&&&&&&&&&&&&&&",
".+@#$%&&&&&&&&&&&&&&&&",
".+@#$%&&&&&&&&&&&&&&&&",
".+@#$$$$$$$$$$$$$$$$$$",
".$$$$$$$$$$$$$$$$$$$$$",
".********************$",
".====================$",
".--------------------$",
"......................"};
