/* XPM */
static char * titleAL_xpm[] = {
"4 18 3 1",
" 	c None",
".	c #C0C0C0",
"+	c #684075",
"...+",
"..++",
".+++",
".+++",
".+++",
".+++",
".+++",
".+++",
".+++",
".+++",
".+++",
".+++",
".+++",
".+++",
".+++",
"..++",
"...+",
"...."};
