/* XPM */
static char * icewm_xpm[] = {
"48 18 129 2",
"  	c None",
". 	c #D8D8D8",
"+ 	c #D7D7D8",
"@ 	c #D5D6D7",
"# 	c #D3D5D6",
"$ 	c #D1D3D5",
"% 	c #CFD2D4",
"& 	c #CDD1D3",
"* 	c #CBCFD2",
"= 	c #C9CED1",
"- 	c #C8CDD0",
"; 	c #C6CBCF",
"> 	c #C4CACE",
", 	c #C2C9CD",
"' 	c #C0C7CC",
") 	c #BEC6CB",
"! 	c #BCC5CA",
"~ 	c #BAC3C9",
"{ 	c #B9C2C8",
"] 	c #B7C1C7",
"^ 	c #B5BFC6",
"/ 	c #B3BEC5",
"( 	c #B1BDC4",
"_ 	c #AFBBC3",
": 	c #ADBAC2",
"< 	c #ABB9C1",
"[ 	c #AAB7C0",
"} 	c #A8B6BF",
"| 	c #A6B5BE",
"1 	c #A4B3BD",
"2 	c #A2B2BC",
"3 	c #A0B1BB",
"4 	c #9EAFBA",
"5 	c #9CAEB9",
"6 	c #9AADB8",
"7 	c #99ABB7",
"8 	c #97AAB6",
"9 	c #95A9B5",
"0 	c #93A7B4",
"a 	c #91A6B3",
"b 	c #8FA5B2",
"c 	c #8DA3B1",
"d 	c #8BA2B0",
"e 	c #8AA1AF",
"f 	c #D6D7D7",
"g 	c #D4D5D6",
"h 	c #D2D4D5",
"i 	c #D0D3D4",
"j 	c #CED1D3",
"k 	c #CCD0D2",
"l 	c #CBCFD1",
"m 	c #C9CDD0",
"n 	c #C7CCCF",
"o 	c #C5CBCE",
"p 	c #C3C9CD",
"q 	c #C1C8CC",
"r 	c #BFC7CB",
"s 	c #BDC5CA",
"t 	c #BCC4C9",
"u 	c #BAC3C8",
"v 	c #B8C1C7",
"w 	c #B6C0C6",
"x 	c #B4BFC5",
"y 	c #B2BDC4",
"z 	c #B0BCC3",
"A 	c #AEBBC2",
"B 	c #ACB9C1",
"C 	c #ABB8C0",
"D 	c #A9B7BF",
"E 	c #A7B5BE",
"F 	c #A5B4BD",
"G 	c #A3B3BC",
"H 	c #A1B1BB",
"I 	c #9FB0BA",
"J 	c #9DAFB9",
"K 	c #9CAEB8",
"L 	c #9AACB7",
"M 	c #98ABB6",
"N 	c #96AAB5",
"O 	c #94A8B4",
"P 	c #92A7B3",
"Q 	c #90A6B2",
"R 	c #8EA4B1",
"S 	c #89A0AF",
"T 	c #CCCFD2",
"U 	c #CACED1",
"V 	c #4A4E51",
"W 	c #343434",
"X 	c #0D0D0D",
"Y 	c #AEBAC2",
"Z 	c #9DAEB9",
"` 	c #93A8B4",
" .	c #8CA2B0",
"..	c #88A0AE",
"+.	c #D4D6D6",
"@.	c #CFD2D3",
"#.	c #CDD0D2",
"$.	c #C9CED0",
"%.	c #C3CACD",
"&.	c #C0C7CB",
"*.	c #C4C4C4",
"=.	c #E8E8E8",
"-.	c #808182",
";.	c #CCCCCC",
">.	c #AEB3B5",
",.	c #9B9FA1",
"'.	c #8FA4B2",
").	c #879FAE",
"!.	c #D7D8D8",
"~.	c #D0D2D4",
"{.	c #C6CCCF",
"].	c #BFC6CB",
"^.	c #90A5B2",
"/.	c #8CA3B0",
"(.	c #869FAD",
"_.	c #7A96A7",
":.	c #C7CCD0",
"<.	c #C2C8CD",
"[.	c #89A1AF",
"}.	c #606365",
"|.	c #8DA4B1",
"1.	c #AAB8C0",
"2.	c #D7D7D7",
"3.	c #D5D6D6",
"4.	c #D3D4D6",
"5.	c #A9B7C0",
"6.	c #BBC4C9",
"7.	c #D3D4D5",
"8.	c #D1D3D4",
". . . . . . + @ # $ % & * = - ; > , ' ) ! ~ { ] ^ / ( _ : < [ } | 1 2 3 4 5 6 7 8 9 0 a b c d e ",
". . . . . . f g h i j k l m n o p q r s t u v w x y z A B C D E F G H I J K L M N O P Q R c d S ",
". . . . . + @ # $ % j T U - ; > , ' ) V V W ] X V V W Y X V V | V V V W Z X V V V ` a b R  .e ..",
". . . . . f +.h i @.#.l $.n o %.q &.W *.=.=.X -.=.=.;.X >.=.=.X =.=.=.,.X V =.=.=.V a '.c d S ).",
". . . . !.V V h ~.j k U - {.> p q ].W ,.=.=.W ;.=.=.=.W >.=.=.X =.=.=.=.X ,.=.=.=.V ^.R /.e ..(.",
". . . . V _._.X @.#.l $.:.; > <.' ) W W ;.=.-.=.=.=.=.-.=.=.,.X =.=.*.=.X *.=.=.=.V b c d [.X X ",
". . . . V _._.X j X V V W X W X X V V X X ,.=.=.=.>.=.=.=.=.-.X =.=.>.=.V =.,.=.=.}.R /.e X V =.",
". . . + V _._.X X _._._._.>.X V _._._._.V W =.=.,.}.=.=.=.=.V X =.=.V W W X X =.=.V |. .e X =.*.",
". . . f V _._.X -._.-.X -.}.X _._.}.}._.,.X =.=.-.X =.=.=.=.X X =.=.X >.,.}.W =.=.V c d W >.=.>.",
". . + @ V _._.X ,._.V -.X X X _._._._._.,.W =.=.X X ;.=.=.>.X X =.X ,.,.,.-.V X W X  .X ,.=.=.*.",
". . f +.V _._.X }._.-.V _._.X >._.}.V -.-.V =.=.X W -.=.=.,.W X X }.;.}.,.,.-.V -.V X X ;.;.=.=.",
". !.@ g V _._.X X -._._._.}.W X _._._.>.X W V W X 1.W }.V X X W }.-.>.,.-.,.-.}.}.-.V -.*.,.;.=.",
". 2.3.4.$ X X * = X X X X X ) W X X X X / ( _ : < 5.} | X X -.;.>.}.,.-.-.>.-.-.}.V }.*.,.>.,.=.",
". f g h i j k l m n o p q r s 6.u v w x y z A B C X W W }.*.=.,.,.,.-.}.,.*.-.}.}.W ,.,.*.>.>.=.",
"+ @ # $ % & T U - ; > , V W W X X X X X W X X W W }.}.-.>.=.*.-.,.}.-.}.*.,.-.-.}.-.;.,.-.>.;.*.",
"f g h i @.#.l $.n o %.X V }.-.-.-.-.-.-.,.,.-.,.-.,.;.;.*.;.-.,.>.}.}.>.-.,.,.}.V =.>.>.}.,.=.*.",
"@ # h ~.j k U X X W V }.}.-.-.-.,.-.,.>.>.,.-.,.>.;.=.>.=.-.-.-.-.}.,.>.-.>.-.-.-.;.-.-.V *.;.;.",
"3.7.8.@.#.l X }.}.}.}.}.}.-.-.-.-.-.,.-.-.,.;.=.;.*.*.;.,.-.-.}.}.>.;.-.;.>.,.,.;.-.}.V V ;.*.>."};
