/* XPM */
static char * frameAT_xpm[] = {
"20 5 3 1",
" 	c None",
".	c #FEFEFE",
"+	c #DADAE5",
"....................",
"++++++++++++++++++++",
"++++++++++++++++++++",
"++++++++++++++++++++",
"++++++++++++++++++++"};
