/* XPM */
static char * windows_xpm[] = {
"20 20 387 2",
"  	c None",
". 	c #29210B",
"+ 	c #3A2E0D",
"@ 	c #4D3A09",
"# 	c #5E4104",
"$ 	c #6A4403",
"% 	c #734703",
"& 	c #704904",
"* 	c #5D4108",
"= 	c #432F10",
"- 	c #301F1A",
"; 	c #2C1A23",
"> 	c #2D1C23",
", 	c #2E1F1F",
"' 	c #2E2517",
") 	c #37320C",
"! 	c #443C05",
"~ 	c #4A3D02",
"{ 	c #463703",
"] 	c #3C3003",
"^ 	c #362A05",
"/ 	c #241E11",
"( 	c #403B16",
"_ 	c #695813",
": 	c #8D6809",
"< 	c #A16C04",
"[ 	c #A76E03",
"} 	c #A26D05",
"| 	c #91640B",
"1 	c #704E1C",
"2 	c #54392F",
"3 	c #472C3D",
"4 	c #422A3E",
"5 	c #433035",
"6 	c #4D4325",
"7 	c #645B15",
"8 	c #7D6D0A",
"9 	c #846F07",
"0 	c #705E09",
"a 	c #514309",
"b 	c #362A07",
"c 	c #212217",
"d 	c #474922",
"e 	c #7E6E1E",
"f 	c #AE8611",
"g 	c #CC9007",
"h 	c #D79303",
"i 	c #D29305",
"j 	c #C08A0D",
"k 	c #9B711F",
"l 	c #725337",
"m 	c #5A4049",
"n 	c #553E4B",
"o 	c #5F4D3F",
"p 	c #776629",
"q 	c #998217",
"r 	c #B0920D",
"s 	c #AA8E0F",
"t 	c #877615",
"u 	c #575116",
"v 	c #302C0E",
"w 	c #20211D",
"x 	c #48452D",
"y 	c #7D6D2B",
"z 	c #B38D1A",
"A 	c #D99E0B",
"B 	c #EBA305",
"C 	c #EBA304",
"D 	c #DB9D0B",
"E 	c #B7881C",
"F 	c #896932",
"G 	c #6A5442",
"H 	c #685542",
"I 	c #806A33",
"J 	c #A38520",
"K 	c #C09B13",
"L 	c #C59E11",
"M 	c #AE8F1A",
"N 	c #817127",
"O 	c #4F4B26",
"P 	c #272718",
"Q 	c #221E22",
"R 	c #463C37",
"S 	c #726038",
"T 	c #A48326",
"U 	c #D09B12",
"V 	c #EBA507",
"W 	c #F3A705",
"X 	c #E9A308",
"Y 	c #CC9513",
"Z 	c #A27D24",
"` 	c #846B30",
" .	c #88702E",
"..	c #A58621",
"+.	c #C49B14",
"@.	c #CEA210",
"#.	c #BE9618",
"$.	c #9A7C29",
"%.	c #705D38",
"&.	c #473D35",
"*.	c #232020",
"=.	c #241926",
"-.	c #44313E",
";.	c #665043",
">.	c #907331",
",.	c #C09319",
"'.	c #E4A30A",
").	c #F1A506",
"!.	c #DF9E0B",
"~.	c #C29015",
"{.	c #AE861D",
"].	c #B38C1B",
"^.	c #C79B13",
"/.	c #D1A210",
"(.	c #C39A16",
"_.	c #A38326",
":.	c #7F653C",
"<.	c #624A49",
"[.	c #443240",
"}.	c #251A25",
"|.	c #261528",
"1.	c #442A44",
"2.	c #5E434C",
"3.	c #7F653B",
"4.	c #AF8921",
"5.	c #DAA00E",
"6.	c #F0A606",
"7.	c #F5A605",
"8.	c #EEA407",
"9.	c #E09E0B",
"0.	c #D59B0F",
"a.	c #D59E0E",
"b.	c #D5A20E",
"c.	c #C69A15",
"d.	c #A78525",
"e.	c #84693A",
"f.	c #6B504E",
"g.	c #5B3D55",
"h.	c #452B46",
"i.	c #271828",
"j.	c #28132A",
"k.	c #452648",
"l.	c #5B3B54",
"m.	c #735945",
"n.	c #9D7D2A",
"o.	c #CB9914",
"p.	c #EAA508",
"q.	c #F5A505",
"r.	c #F0A506",
"s.	c #E9A408",
"t.	c #DEA30B",
"u.	c #C89A13",
"v.	c #A78623",
"w.	c #856A39",
"x.	c #6D514F",
"y.	c #63415E",
"z.	c #5B365E",
"A.	c #47284A",
"B.	c #281729",
"C.	c #29132B",
"D.	c #47254B",
"E.	c #5A365A",
"F.	c #694D4F",
"G.	c #886E35",
"H.	c #B78F1C",
"I.	c #DFA10C",
"J.	c #F2A606",
"K.	c #F7A504",
"L.	c #ECA407",
"M.	c #D39C0E",
"N.	c #AB881E",
"O.	c #846C34",
"P.	c #6C534D",
"Q.	c #654260",
"R.	c #653A69",
"S.	c #603464",
"T.	c #49284C",
"U.	c #29162A",
"V.	c #29152A",
"W.	c #48264C",
"X.	c #5A355E",
"Y.	c #614557",
"Z.	c #745F3F",
"`.	c #A08124",
" +	c #CF9A10",
".+	c #F6A504",
"++	c #F5A504",
"@+	c #E7A208",
"#+	c #C49412",
"$+	c #927926",
"%+	c #6B5A40",
"&+	c #5F4459",
"*+	c #653A6A",
"=+	c #6A376F",
"-+	c #633367",
";+	c #4B274D",
">+	c #281829",
",+	c #482A4A",
"'+	c #5A365F",
")+	c #5D425A",
"!+	c #695744",
"~+	c #907729",
"{+	c #C39414",
"]+	c #C29312",
"^+	c #8D7627",
"/+	c #655642",
"(+	c #5D415C",
"_+	c #66396D",
":+	c #6D3672",
"<+	c #653368",
"[+	c #4C284D",
"}+	c #2A162A",
"|+	c #271B27",
"1+	c #462E48",
"2+	c #5A3B5B",
"3+	c #604757",
"4+	c #6D5C41",
"5+	c #937A27",
"6+	c #C49513",
"7+	c #ECA406",
"8+	c #CE990E",
"9+	c #9C7F20",
"0+	c #6F5E3B",
"a+	c #5F4657",
"b+	c #6C3771",
"c+	c #653468",
"d+	c #4C294E",
"e+	c #2B182C",
"f+	c #261D26",
"g+	c #463344",
"h+	c #5F4554",
"i+	c #70564C",
"j+	c #886F35",
"k+	c #AC8A1E",
"l+	c #D29D0E",
"m+	c #E9A407",
"n+	c #F4A505",
"o+	c #F6A604",
"p+	c #F2A505",
"q+	c #DDA00A",
"r+	c #B28C18",
"s+	c #816C31",
"t+	c #654E4D",
"u+	c #643E64",
"v+	c #69386E",
"w+	c #643567",
"x+	c #4D2B4E",
"y+	c #2D192D",
"z+	c #251F23",
"A+	c #483A3C",
"B+	c #6C5546",
"C+	c #8C6E3A",
"D+	c #AC8825",
"E+	c #C89A14",
"F+	c #DBA20C",
"G+	c #E4A309",
"H+	c #F3A605",
"I+	c #F4A704",
"J+	c #E8A407",
"K+	c #C79711",
"L+	c #977B26",
"M+	c #705A43",
"N+	c #65445D",
"O+	c #673B6A",
"P+	c #623665",
"Q+	c #4C2B4D",
"R+	c #2C1A2D",
"S+	c #29261D",
"T+	c #544A30",
"U+	c #846D33",
"V+	c #AD8926",
"W+	c #CA9C17",
"X+	c #D5A210",
"Y+	c #D09D11",
"Z+	c #CC9812",
"`+	c #D69C0D",
" @	c #E8A307",
".@	c #F2A705",
"+@	c #EEA606",
"@@	c #D89E0C",
"#@	c #AD891D",
"$@	c #816838",
"%@	c #6A4C54",
"&@	c #653E64",
"*@	c #5F3762",
"=@	c #4A2B4C",
"-@	c #2B192B",
";@	c #373414",
">@	c #6C601F",
",@	c #A2861F",
"'@	c #C89D17",
")@	c #D6A412",
"!@	c #CA9B17",
"~@	c #B28A1F",
"{@	c #A68220",
"]@	c #B68B16",
"^@	c #D59C0B",
"/@	c #EBA505",
"(@	c #F0A605",
"_@	c #E3A209",
":@	c #C29315",
"<@	c #96772D",
"[@	c #735849",
"}@	c #65435D",
"|@	c #5D385E",
"1@	c #482C4A",
"2@	c #2A192B",
"3@	c #4A400A",
"4@	c #847010",
"5@	c #B99510",
"6@	c #D2A410",
"7@	c #CC9D18",
"8@	c #B08725",
"9@	c #8F6E32",
"0@	c #80652F",
"a@	c #95741F",
"b@	c #BC8E0E",
"c@	c #DB9D06",
"d@	c #E8A103",
"e@	c #E5A005",
"f@	c #D0980E",
"g@	c #A88220",
"h@	c #7F633B",
"i@	c #664951",
"j@	c #593A58",
"k@	c #442B47",
"l@	c #28192A",
"m@	c #514104",
"n@	c #8B6E06",
"o@	c #B7900A",
"p@	c #C29711",
"q@	c #AE8721",
"r@	c #8F6A34",
"s@	c #72503F",
"t@	c #6B4839",
"u@	c #7C5924",
"v@	c #9D7510",
"w@	c #BD8806",
"x@	c #CD8E03",
"y@	c #D19003",
"z@	c #C88E08",
"A@	c #AD8015",
"B@	c #85672B",
"C@	c #634C42",
"D@	c #513A4B",
"E@	c #3F2A3E",
"F@	c #271A26",
"G@	c #443301",
"H@	c #745803",
"I@	c #977507",
"J@	c #9C7811",
"K@	c #8B6723",
"L@	c #714B34",
"M@	c #61373A",
"N@	c #5F3033",
"O@	c #6A3D21",
"P@	c #7D5211",
"Q@	c #926307",
"R@	c #9F6803",
"S@	c #A56A03",
"T@	c #A36B05",
"U@	c #93680D",
"V@	c #76591C",
"W@	c #5B402D",
"X@	c #483035",
"Y@	c #39242D",
"Z@	c #29151C",
"`@	c #2D2000",
" #	c #503A01",
".#	c #6B4F04",
"+#	c #73560D",
"@#	c #6E4D19",
"##	c #663E26",
"$#	c #61372D",
"%#	c #5F3629",
"&#	c #603C1E",
"*#	c #694413",
"=#	c #734B0C",
"-#	c #794A08",
";#	c #794905",
">#	c #734A05",
",#	c #694B07",
"'#	c #5B4410",
")#	c #4F341B",
"!#	c #4B2C21",
"~#	c #44281D",
"{#	c #391E14",
". + @ # $ % & * = - ; > , ' ) ! ~ { ] ^ ",
"/ ( _ : < [ } | 1 2 3 4 5 6 7 8 9 0 a b ",
"c d e f g h i j k l m n o p q r s t u v ",
"w x y z A B C D E F G H I J K L M N O P ",
"Q R S T U V W X Y Z `  ...+.@.#.$.%.&.*.",
"=.-.;.>.,.'.W ).!.~.{.].^./.(._.:.<.[.}.",
"|.1.2.3.4.5.6.7.8.9.0.a.b.c.d.e.f.g.h.i.",
"j.k.l.m.n.o.p.7.q.r.s.t.u.v.w.x.y.z.A.B.",
"C.D.E.F.G.H.I.J.K.q.L.M.N.O.P.Q.R.S.T.U.",
"V.W.X.Y.Z.`. +L..+++@+#+$+%+&+*+=+-+;+U.",
">+,+'+)+!+~+{+@+q.++@+]+^+/+(+_+:+<+[+}+",
"|+1+2+3+4+5+6+@+++.+7+8+9+0+a+*+b+c+d+e+",
"f+g+h+i+j+k+l+m+n+o+p+q+r+s+t+u+v+w+x+y+",
"z+A+B+C+D+E+F+G+L.H+I+J+K+L+M+N+O+P+Q+R+",
"S+T+U+V+W+X+Y+Z+`+ @.@+@@@#@$@%@&@*@=@-@",
";@>@,@'@)@!@~@{@]@^@/@(@_@:@<@[@}@|@1@2@",
"3@4@5@6@7@8@9@0@a@b@c@d@e@f@g@h@i@j@k@l@",
"m@n@o@p@q@r@s@t@u@v@w@x@y@z@A@B@C@D@E@F@",
"G@H@I@J@K@L@M@N@O@P@Q@R@S@T@U@V@W@X@Y@Z@",
"`@ #.#+#@###$#%#&#*#=#-#;#>#,#'#)#!#~#{#"};
