/* XPM */
static char * rollupI_xpm[] = {
"14 36 14 1",
" 	c None",
".	c #000000",
"+	c #212121",
"@	c #F4F4F4",
"#	c #EDEDED",
"$	c #E8E8E8",
"%	c #E2E2E2",
"&	c #003131",
"*	c #DBDBDB",
"=	c #C9C9C9",
"-	c #D5D5D5",
";	c #D0D0D0",
">	c #C3C3C3",
",	c #BDBDBD",
"              ",
"              ",
"              ",
" .++++++++++. ",
" +@@@@@@@@@@+ ",
" +##########+ ",
" +$$$$$$$$$$+ ",
"++%%%....%%%+&",
"$+**********+$",
"=+----..----+=",
"++;;;....;;;+&",
" +==========+ ",
" +>>>>>>>>>>+ ",
" +,,,,,,,,,,+ ",
" .++++++++++. ",
"     +$=+     ",
"     +$=+     ",
"++++++++++++++",
"              ",
"              ",
"              ",
" .++++++++++. ",
" +,,,,,,,,,,+ ",
" +>>>>>>>>>>+ ",
" +==========+ ",
"++;;;....;;;+&",
"$+----------+$",
"=+****..****+=",
"++%%%....%%%+&",
" +$$$$$$$$$$+ ",
" +##########+ ",
" +@@@@@@@@@@+ ",
" .++++++++++. ",
"     +$=+     ",
"     +$=+     ",
"++++++++++++++"};
