/* XPM */
static char * titleAL_xpm[] = {
"3 18 4 1",
" 	c None",
".	c #232323",
"+	c #F2F2F2",
"@	c #D2D2D2",
"   ",
"   ",
"   ",
"   ",
"   ",
"   ",
"   ",
"...",
"+++",
"@@@",
"...",
"   ",
"   ",
"   ",
"   ",
"   ",
"   ",
"..."};
