/* XPM */
static char * frameAB_xpm[] = {
"4 2 3 1",
" 	c None",
".	c #34D300",
"+	c #000000",
"....",
"++++"};
