/* XPM */
static char * frameIL_xpm[] = {
"4 4 3 1",
" 	c None",
".	c #176100",
"+	c #000000",
"..++",
".+++",
".+++",
"..++"};
