/* XPM */
static char * frameABL_xpm[] = {
"23 23 80 1",
" 	c None",
".	c #BCDAE2",
"+	c #BEDCE3",
"@	c #BFDCE3",
"#	c #BBE7F7",
"$	c #C0EBFA",
"%	c #C1ECFB",
"&	c #ACDCF3",
"*	c #B5E5F8",
"=	c #B7E7FA",
"-	c #A1D3F2",
";	c #ACDEFA",
">	c #AFE1FC",
",	c #9ACBF4",
"'	c #A6D7FD",
")	c #A9DAFF",
"!	c #96C8F4",
"~	c #A3D4FD",
"{	c #A6D7FF",
"]	c #93C5F1",
"^	c #9ED0F9",
"/	c #A1D2FB",
"(	c #8DC0F0",
"_	c #97CBF8",
":	c #9ACDFA",
"<	c #86BAF3",
"[	c #90C4FB",
"}	c #92C6FD",
"|	c #80B7EC",
"1	c #89C1F4",
"2	c #8BC3F6",
"3	c #7AB3E9",
"4	c #82BCF0",
"5	c #84BDF2",
"6	c #74ADE7",
"7	c #7BB4ED",
"8	c #7CB5EE",
"9	c #6BA5E5",
"0	c #71ABEB",
"a	c #72ACEC",
"b	c #69A0DA",
"c	c #70A6E0",
"d	c #71A7E1",
"e	c #6E9ED3",
"f	c #75A4D9",
"g	c #77A5DA",
"h	c #789FD0",
"i	c #80A7D7",
"j	c #82A8D8",
"k	c #86ABD7",
"l	c #95B7E0",
"m	c #97B9E1",
"n	c #8EB5DB",
"o	c #A1C5E5",
"p	c #A4C8E7",
"q	c #8DB7DA",
"r	c #A5CBE7",
"s	c #AACFE9",
"t	c #ABD0EA",
"u	c #81ACD4",
"v	c #9EC5E4",
"w	c #A5CAE6",
"x	c #AACFEA",
"y	c #6294C6",
"z	c #7AA9D5",
"A	c #80AED7",
"B	c #88B5DC",
"C	c #8AB7DE",
"D	c #4579B5",
"E	c #5184BD",
"F	c #5386BE",
"G	c #588AC2",
"H	c #598CC2",
"I	c #598BC2",
"J	c #598BC3",
"K	c #5985B9",
"L	c #5983B9",
"M	c #5983BA",
"N	c #5984B9",
"O	c #5982B9",
".+@@@@@@@@@@@@@@@@@@@@@",
"#$%%%%%%%%%%%%%%%%%%%%%",
"&*=====================",
"-;>>>>>>>>>>>>>>>>>>>>>",
",')))))))))))))))))))))",
"!~{{{{{{{{{{{{{{{{{{{{{",
"]^/////////////////////",
"(_:::::::::::::::::::::",
"<[}}}}}}}}}}}}}}}}}}}}}",
"|1222222222222222222222",
"34555555555555555555555",
"67888888888888888888888",
"90aaaaaaaaaaaaaaaaaaaaa",
"bcddddddddddddddddddddd",
"efggggggggggggggggggggg",
"hijjjjjjjjjjjjjjjjjjjjj",
"klmmmmmmmmmmmmmmmmmmmmm",
"noppppppppppppppppppppp",
"qrstttttttttttttttttttt",
"uvwxxxxxxxxxxxxxxxxxxxx",
"yzABCCCCCCCCCCCCCCCCCCC",
"DEFGHHHIJHHHJHHHIIJHHHI",
"KKLMNKKLMNKKMNKKLOMNKKL"};
