/* XPM */
static char * frameITR_xpm[] = {
"23 23 80 1",
" 	g None",
".	g #7C7C7C",
"+	g #7D7D7D",
"@	g #7B7B7B",
"#	g #828282",
"$	g #818181",
"%	g #7A7A7A",
"&	g #707070",
"*	g #636363",
"=	g #656565",
"-	g #ADADAD",
";	g #ABABAB",
">	g #A4A4A4",
",	g #9F9F9F",
"'	g #8A8A8A",
")	g #6E6E6E",
"!	g #6F6F6F",
"~	g #C6C6C6",
"{	g #C1C1C1",
"]	g #BCBCBC",
"^	g #A3A3A3",
"/	g #767676",
"(	g #C7C7C7",
"_	g #C2C2C2",
":	g #AEAEAE",
"<	g #8D8D8D",
"[	g #808080",
"}	g #C0C0C0",
"|	g #BDBDBD",
"1	g #939393",
"2	g #848484",
"3	g #B3B3B3",
"4	g #B1B1B1",
"5	g #919191",
"6	g #838383",
"7	g #A1A1A1",
"8	g #A0A0A0",
"9	g #989898",
"0	g #888888",
"a	g #9D9D9D",
"b	g #9B9B9B",
"c	g #959595",
"d	g #868686",
"e	g #797979",
"f	g #9C9C9C",
"g	g #9A9A9A",
"h	g #8B8B8B",
"i	g #7E7E7E",
"j	g #AAAAAA",
"k	g #A9A9A9",
"l	g #A2A2A2",
"m	g #B0B0B0",
"n	g #A7A7A7",
"o	g #999999",
"p	g #8C8C8C",
"q	g #B7B7B7",
"r	g #B5B5B5",
"s	g #ACACAC",
"t	g #929292",
"u	g #BABABA",
"v	g #9E9E9E",
"w	g #C5C5C5",
"x	g #CCCCCC",
"y	g #C9C9C9",
"z	g #AFAFAF",
"A	g #CFCFCF",
"B	g #A5A5A5",
"C	g #D4D4D4",
"D	g #D2D2D2",
"E	g #B8B8B8",
"F	g #DADADA",
"G	g #D8D8D8",
"H	g #D0D0D0",
"I	g #E0E0E0",
"J	g #DFDFDF",
"K	g #DBDBDB",
"L	g #CECECE",
"M	g #BBBBBB",
"N	g #D3D3D3",
"O	g #D1D1D1",
".++.@..++++...++...++++",
"#################$.%&*=",
"-----------------;>,')!",
"~~~~~~~~~~~~~~~~~~{]^@/",
"((((((((((((((((((~_:<[",
"}}}}}}}}}}}}}}}}}}}|-12",
"33333333333333333334>56",
"7777777777777777777890.",
"aaaaaaaaaaaaaaaaaaabcde",
"aaaaaaaaaaaaaaaaaaafc0%",
"77777777777777777778ghi",
"jjjjjjjjjjjjjjjjjjjkl1d",
"4444444444444444444mnop",
"qqqqqqqqqqqqqqqqqqqrs,t",
"]]]]]]]]]]]]]]]]]]]um>o",
"___________________}rkv",
"(((((((((((((((((((wu-7",
"xxxxxxxxxxxxxxxxxxxy|z^",
"AAAAAAAAAAAAAAAAAAAx}4B",
"CCCCCCCCCCCCCCCCCCCD(Ej",
"FFFFFFFFFFFFFFFFFFFGH_4",
"IIIIIIIIIIIIIIIIIIIJKLM",
"CCCCCCCCCCCCCCCCCCCNOyu"};
