/* XPM */
static char * frameAT_xpm[] = {
"1 4 5 1",
" 	c None",
".	c #5985B9",
"+	c #598CC2",
"@	c #8AB7DE",
"#	c #AACFEA",
".",
"+",
"@",
"#"};
