/* XPM */
static char * maximizeI_xpm[] = {
"18 36 44 1",
" 	g None",
".	g #C9C9C9",
"+	g #C7C7C7",
"@	g #CACACA",
"#	g #C2C2C2",
"$	g #C0C0C0",
"%	g #C4C4C4",
"&	g #B4B4B4",
"*	g #B3B3B3",
"=	g #B5B5B5",
"-	g #A3A3A3",
";	g #A1A1A1",
">	g #A5A5A5",
",	g #9E9E9E",
"'	g #9D9D9D",
")	g #000000",
"!	g #A0A0A0",
"~	g #9F9F9F",
"{	g #FFFFFF",
"]	g #A4A4A4",
"^	g #ACACAC",
"/	g #AAAAAA",
"(	g #ADADAD",
"_	g #B2B2B2",
":	g #B1B1B1",
"<	g #B9B9B9",
"[	g #B7B7B7",
"}	g #BBBBBB",
"|	g #BEBEBE",
"1	g #BCBCBC",
"2	g #C6C6C6",
"3	g #CBCBCB",
"4	g #CDCDCD",
"5	g #CCCCCC",
"6	g #CFCFCF",
"7	g #D0D0D0",
"8	g #D2D2D2",
"9	g #D6D6D6",
"0	g #D4D4D4",
"a	g #D7D7D7",
"b	g #DBDBDB",
"c	g #DADADA",
"d	g #DCDCDC",
"e	g #E0E0E0",
".++++++++++++++++@",
"#$$$$$$$$$$$$$$$$%",
"&****************=",
"-;;;;;;;;;;;;;;;;>",
",'''')))))))))'''!",
"~''''))))))))){''!",
"-;;;;){{{{{{{){;;]",
"^////){//////){//(",
"_::::){::::::){::&",
"<[[[[){[[[[[[){[[}",
"|1111){111111){11$",
"%####){######){##2",
".++++))))))))){++3",
"455555{{{{{{{{{556",
"766666666666666668",
"90000000000000000a",
"bccccccccccccccccd",
"eeeeeeeeeeeeeeeeee",
".++++++++++++++++@",
"#$$$$$$$$$$$$$$$$%",
"&****************=",
"-;;;;;;;;;;;;;;;;>",
",''''''''''''''''!",
"~''''')))))))))''!",
"-;;;;;))))))))){;]",
"^/////){{{{{{{){/(",
"_:::::){::::::){:&",
"<[[[[[){[[[[[[){[}",
"|11111){111111){1$",
"%#####){######){#2",
".+++++){++++++){+3",
"455555))))))))){56",
"7666666{{{{{{{{{68",
"90000000000000000a",
"bccccccccccccccccd",
"eeeeeeeeeeeeeeeeee"};
