/* XPM */
static char * linux0_xpm[] = {
"60 22 224 2",
"  	c None",
". 	c #003684",
"+ 	c #083773",
"@ 	c #17345A",
"# 	c #2A313A",
"$ 	c #7A7877",
"% 	c #D7D3CF",
"& 	c #F9F4F0",
"* 	c #F6F1ED",
"= 	c #003B86",
"- 	c #033C7F",
"; 	c #093B74",
"> 	c #153961",
", 	c #454E5A",
"' 	c #A4A19E",
") 	c #E6E2DD",
"! 	c #F1EDE6",
"~ 	c #004289",
"{ 	c #00438B",
"] 	c #024284",
"^ 	c #143455",
"/ 	c #5E6367",
"( 	c #C2BEB8",
"_ 	c #EEEAE3",
": 	c #EAE5DD",
"< 	c #00488C",
"[ 	c #094479",
"} 	c #283C4C",
"| 	c #98958F",
"1 	c #E9E5DC",
"2 	c #004F90",
"3 	c #55A4C1",
"4 	c #EBF3F7",
"5 	c #ECF4F7",
"6 	c #E7F1F5",
"7 	c #005190",
"8 	c #183A55",
"9 	c #D2CEC5",
"0 	c #E5E1D8",
"a 	c #E2DDD2",
"b 	c #005594",
"c 	c #DFECF2",
"d 	c #FFFFFF",
"e 	c #ECF4F8",
"f 	c #C3DBE7",
"g 	c #ECF3F7",
"h 	c #005794",
"i 	c #005896",
"j 	c #104264",
"k 	c #626A6C",
"l 	c #BEB9B0",
"m 	c #DFDBD0",
"n 	c #005C97",
"o 	c #EFF5F9",
"p 	c #FEFFFF",
"q 	c #E9F2F6",
"r 	c #387FAD",
"s 	c #005E97",
"t 	c #00629A",
"u 	c #0D4A6F",
"v 	c #556569",
"w 	c #B2ADA3",
"x 	c #DED9CC",
"y 	c #DBD6C9",
"z 	c #F6F9FB",
"A 	c #38A5BD",
"B 	c #F7FAFC",
"C 	c #F3F8FA",
"D 	c #8DB8D1",
"E 	c #5596BB",
"F 	c #00649A",
"G 	c #0E4E70",
"H 	c #B0AB9F",
"I 	c #D9D4C6",
"J 	c #D7D2C4",
"K 	c #00699D",
"L 	c #E0ECF3",
"M 	c #E3EEF4",
"N 	c #559BBD",
"O 	c #8DBBD3",
"P 	c #3889B2",
"Q 	c #1C79A7",
"R 	c #006B9D",
"S 	c #006DA0",
"T 	c #124B65",
"U 	c #616967",
"V 	c #B6B1A3",
"W 	c #D2CDBD",
"X 	c #0070A0",
"Y 	c #EDF4F8",
"Z 	c #FBFCFD",
"` 	c #C6DFE9",
" .	c #388FB4",
"..	c #8DBFD4",
"+.	c #AACFDF",
"@.	c #E2EEF4",
"#.	c #1C7FAA",
"$.	c #559FBF",
"%.	c #0072A0",
"&.	c #026E99",
"*.	c #1A4557",
"=.	c #74746C",
"-.	c #C2BDAC",
";.	c #CDC9B7",
">.	c #0077A3",
",.	c #F1F7F9",
"'.	c #FEFEFE",
").	c #EEF5F8",
"!.	c #71B3CB",
"~.	c #3894B7",
"{.	c #1C85AD",
"].	c #C6E0EA",
"^.	c #AAD1E0",
"/.	c #E2EFF4",
"(.	c #04779A",
"_.	c #0B6281",
":.	c #294C50",
"<.	c #8D8B7B",
"[.	c #C8C5B1",
"}.	c #C5C3AC",
"|.	c #007EA6",
"1.	c #E2EDF3",
"2.	c #AAD4E1",
"3.	c #55A9C3",
"4.	c #1C8CAF",
"5.	c #0085A9",
"6.	c #1B4A5A",
"7.	c #5F635D",
"8.	c #A8A592",
"9.	c #C3C1AA",
"0.	c #F0F6F9",
"a.	c #AAD6E2",
"b.	c #389FBB",
"c.	c #1C92B2",
"d.	c #55ADC5",
"e.	c #E2F1F5",
"f.	c #8DC8D8",
"g.	c #155D71",
"h.	c #435253",
"i.	c #BAB89E",
"j.	c #BFBEA5",
"k.	c #BDBAA0",
"l.	c #008CAB",
"m.	c #EAF3F7",
"n.	c #E2EEF3",
"o.	c #55B2C7",
"p.	c #8DCBD9",
"q.	c #71BED0",
"r.	c #AAD8E3",
"s.	c #C6E5EC",
"t.	c #1C98B4",
"u.	c #0387A4",
"v.	c #264850",
"w.	c #706F63",
"x.	c #ACA992",
"y.	c #0092AE",
"z.	c #E8F1F6",
"A.	c #F9FCFD",
"B.	c #38A9BF",
"C.	c #AADAE4",
"D.	c #8DCEDA",
"E.	c #1C9DB6",
"F.	c #71C2D1",
"G.	c #0094AD",
"H.	c #078299",
"I.	c #31484B",
"J.	c #918D79",
"K.	c #B7B499",
"L.	c #B6B398",
"M.	c #0099B1",
"N.	c #F8FBFC",
"O.	c #009AB0",
"P.	c #08879A",
"Q.	c #ADA98B",
"R.	c #B3AF93",
"S.	c #B1AD8F",
"T.	c #00A0B5",
"U.	c #00A1B4",
"V.	c #0497A8",
"W.	c #2F4950",
"X.	c #767162",
"Y.	c #A6A286",
"Z.	c #A7A388",
"`.	c #847E6B",
" +	c #8E8974",
".+	c #00A6B8",
"++	c #00A7B7",
"@+	c #1A656C",
"#+	c #4B5852",
"$+	c #7F7B67",
"%+	c #88856E",
"&+	c #5E665B",
"*+	c #455853",
"=+	c #576158",
"-+	c #00ADBC",
";+	c #00AFBC",
">+	c #00B3BF",
",+	c #079BA6",
"'+	c #235F62",
")+	c #3A4641",
"!+	c #444641",
"~+	c #3C4643",
"{+	c #275A5C",
"]+	c #19767B",
"^+	c #265F61",
"/+	c #504F47",
"(+	c #9B987A",
"_+	c #00B6BF",
":+	c #00B3BB",
"<+	c #089CA2",
"[+	c #138488",
"}+	c #177B7E",
"|+	c #128589",
"1+	c #0999A0",
"2+	c #03B0B4",
"3+	c #0D8C92",
"4+	c #898866",
"5+	c #00BBC2",
"6+	c #00BDC2",
"7+	c #00C3C4",
"8+	c #02B6BB",
"9+	c #0D9398",
"0+	c #00C0C4",
"a+	c #04B5B6",
". . . . . . . . . . . . . . . . . . . . . . . . . . . . . . . . . . . . . . . . . . . . . . . . + @ # $ % & * * * * * * ",
"= = = = = = = = = = = = = = = = = = = = = = = = = = = = = = = = = = = = = = = = = = = = = = = = - ; > , ' ) * ! ! * * ! ",
"~ ~ ~ ~ ~ ~ ~ ~ ~ ~ ~ ~ ~ ~ ~ ~ ~ ~ ~ ~ ~ ~ ~ ~ ~ ~ ~ ~ ~ ~ ~ ~ ~ ~ ~ ~ ~ ~ ~ ~ ~ ~ ~ ~ ~ ~ ~ ~ ~ { ] ^ / ( ! _ ! : ! : ",
"< < < < < < < < < < < < < < < < < < < < < < < < < < < < < < < < < < < < < < < < < < < < < < < < < < < [ } | 1 1 1 1 1 1 ",
"2 2 2 2 2 2 3 4 5 3 2 2 2 2 6 3 2 2 2 2 2 2 2 2 2 2 2 2 2 2 2 2 2 2 2 2 2 2 2 2 2 2 2 2 2 2 2 2 7 7 7 7 8 $ 9 0 0 0 a ) ",
"b b b b b b c d d e f b b 3 d d g b b b b b b b b b b b b b b b b b b b b b b b b b b b b b b b h b i i j k l a m m m m ",
"n n n n n n o p 3 n n n n q d d 3 n n n n n n n n n n n n n n r n n n n n n n n n n n n n n n n n s s t u v w x y y y x ",
"t t t t t t z 4 A t t t 3 B d C t t t t t t t t t t t t t t D E t t t t t t t t t t t t t t t t F F F F G v H I J J J J ",
"K K K K K K 4 L A K K K 3 d d M K K K N N K K K K N N K K N d O P K Q N P K K P N P Q N K K K K R R R S T U V 9 W W W W ",
"X X X X X X 3 Y A X X X Y d Z 3 X X `  ...+.X X @. .+.@.X ..d .. . .` #.$.` X X d ` ` d $.X X S %.%.%.&.*.=.-.W ;.;.;.;.",
">.>.>.>.>.>.>.,.3 >.>.3 '.d ).>.>.!.d >.3 d ~.!.d >.{.~.>.3 d 3 >.].^.>.>.d !.>.d /.>.3 >.>.>.>.>.>.(._.:.<.[.[.}.[.[.[.",
"|.|.|.|.|.|.|.3 c A |.1.d d 3 |.|.2.d 3.3.3.4.2.d |.|.|.|.3.d 3.|.d 2.|.|.d 2.|.d 2.|.|.|.|.|.|.|.5.(.6.7.8.}.9.9.9.9.9.",
"5.5.5.5.5.5.5.5.0.A 5.0.d C 5.5.5.a.d b.5.5.c.a.d d.5.5.5.d.d d.5.e.a.5.5.d f.5.d a.5.5.5.5.5.5.5.5.g.h.<.i.j.j.-.k.-.i.",
"l.l.l.l.l.l.l.l.3 m.A d d n.l.l.l.A d e.o.p.l.A d e.o.q.l.o.d r.A q.s.l.t.d t.l.d r.l.l.l.l.l.l.l.u.v.w.x.k.i.i.i.i.i.i.",
"y.y.y.y.y.y.y.y.y.z.q d A.3 y.y.y.y.B.C.D.E.y.y.B.C.D.E.y.y.D.D.y.y.F.F.D.B.y.B.C.C.E.y.y.y.y.y.G.H.I.J.K.K.K.K.L.K.K.K.",
"M.M.M.M.M.M.M.M.M.3 N.d z.M.M.M.M.M.M.M.M.M.M.M.M.M.M.M.M.M.M.M.M.M.M.M.M.M.M.M.M.M.M.M.M.M.M.M.O.P.I.J.L.Q.L.Q.R.S.S.S.",
"T.T.T.T.T.T.T.T.T.T.T.d T.T.T.T.T.T.T.T.T.T.T.T.T.T.T.T.T.T.T.T.T.T.T.T.T.T.T.T.T.T.T.T.T.T.T.T.U.V.W.X.Y.S.Z.J.`. +Z.Q.",
".+.+.+.+.+.+.+.+.+.+.+c .+.+.+.+.+.+.+.+.+.+.+.+.+.+.+.+.+.+.+.+.+.+.+.+.+.+.+.+.+.+.+.+.+.+.+.+++++@+#+$+ +%+&+*+=+%+Y.",
"-+-+-+-+-+-+-+-+-+-+-+-+-+-+-+-+-+-+-+-+-+-+-+-+-+-+-+-+-+-+-+-+-+-+-+;+-+-+-+-+-+-+-+-+-+-+-+-+>+;+,+'+)+!+~+{+]+^+/+(+",
">+>+>+>+>+>+>+>+>+>+>+>+>+>+>+>+>+>+>+>+>+>+>+>+>+>+>+>+>+>+>+>+>+>+>+>+>+>+>+>+>+>+>+>+>+>+>+>+_+_+:+<+[+}+|+1+2+3+!+4+",
"5+5+5+5+5+5+5+5+5+5+5+5+5+5+5+5+5+5+5+5+5+5+5+5+5+5+5+5+5+5+5+5+5+5+5+5+5+5+5+5+5+5+5+5+5+5+5+5+6+6+6+7+8+2+8+7+6+9+)+4+",
"0+0+0+0+0+0+0+0+0+0+0+0+0+0+0+0+0+0+0+0+0+0+0+0+0+0+0+0+0+0+0+0+0+0+0+0+0+6+7+7+0+0+0+0+0+0+0+0+7+7+7+7+7+0+7+7+a+}+# 4+"};
