/* XPM */
static char * minimizeI_xpm[] = {
"18 42 44 1",
" 	c None",
".	c #FFFFFF",
"+	c #EEEEEE",
"@	c #E1E1E1",
"#	c #7C7383",
"$	c #8C8292",
"%	c #8C8392",
"&	c #ECDEF7",
"*	c #D5D5D5",
"=	c #766F7E",
"-	c #EDE0F8",
";	c #C8BCD4",
">	c #8C8693",
",	c #EDE3F9",
"'	c #000000",
")	c #C9C9C9",
"!	c #716C78",
"~	c #EEE5FA",
"{	c #BFB6CB",
"]	c #8D8994",
"^	c #EEE7FA",
"/	c #BCBCBC",
"(	c #6B6872",
"_	c #EFE9FB",
":	c #B5B0C1",
"<	c #8E8C95",
"[	c #EFECFC",
"}	c #B0B0B0",
"|	c #66656D",
"1	c #F0EEFC",
"2	c #ACAAB8",
"3	c #8E8E96",
"4	c #F0F0FD",
"5	c #A4A4A4",
"6	c #606168",
"7	c #F1F2FE",
"8	c #A2A4AF",
"9	c #8F9096",
"0	c #F1F4FE",
"a	c #979797",
"b	c #5A5D62",
"c	c #F2F7FF",
"d	c #8C8C8C",
"e	c #545454",
"..................",
"..................",
".+.+.+.+.+.+.+.+.+",
"..................",
".@.#$#$#$#$#$#$#.@",
"...%&&&&&&&&&&&&..",
".*.=-;-;-;-;-;-=.*",
"...>,.'.,,,.'.,,..",
".).!~.''.{.''.~!.)",
"...]^^.''.''.^^^..",
"./.(_:_.'''._:_(./",
"...<[[[[.'.[[[[[..",
".}.|12121212121|.}",
"...344.'''''.444..",
".5.6787878787876.5",
"...9000000000000..",
".a.bcbcbcbcbcbcb.a",
"..................",
".d.d.d.d.d.d.d.d.d",
"..................",
"eeeeeeeeeeeeeeeeee",
"..................",
"..................",
".+.+.+.+.+.+.+.+.+",
"..................",
".@.#$#$#$#$#$#$#.@",
"...%&&&&&&&&&&&&..",
".*.=-;-;-;-;-;-=.*",
"...>,.'.,,,.'.,,..",
".).!~.''.{.''.~!.)",
"...]^^.''.''.^^^..",
"./.(_:_.'''._:_(./",
"...<[[[[.'.[[[[[..",
".}.|12121212121|.}",
"...344.'''''.444..",
".5.6787878787876.5",
"...9000000000000..",
".a.bcbcbcbcbcbcb.a",
"..................",
".d.d.d.d.d.d.d.d.d",
"..................",
"eeeeeeeeeeeeeeeeee"};
