/* XPM */
static char * btn_templateA_xpm[] = {
"18 36 45 1",
" 	c None",
".	c #7B97A7",
"+	c #7A96A7",
"@	c #7893A4",
"#	c #7793A4",
"$	c #7490A1",
"%	c #7490A0",
"&	c #748FA0",
"*	c #718C9D",
"=	c #718C9C",
"-	c #6E899A",
";	c #6E8999",
">	c #6E8899",
",	c #6B8696",
"'	c #6B8596",
")	c #6B8595",
"!	c #688292",
"~	c #657F8F",
"{	c #657E8F",
"]	c #657E8E",
"^	c #647E8E",
"/	c #627B8B",
"(	c #617B8B",
"_	c #5F7888",
":	c #5E7787",
"<	c #5C7484",
"[	c #5B7484",
"}	c #597181",
"|	c #587181",
"1	c #587180",
"2	c #587080",
"3	c #556D7D",
"4	c #526A7A",
"5	c #526A79",
"6	c #526979",
"7	c #4F6776",
"8	c #4F6676",
"9	c #4F6675",
"0	c #4C6373",
"a	c #4C6372",
"b	c #49606F",
"c	c #495F6F",
"d	c #495F6E",
"e	c #465C6B",
"f	c #455C6B",
"..++..++..++....++",
"@###@###@###@#@###",
"$%&&$%&&$%&&$%$%&&",
"***=***=***=*****=",
"-;;>-;;>-;;>-;-;;>",
",''),''),''),','')",
"!!!!!!!!!!!!!!!!!!",
"~{]^~{]^~{]^~{~{]^",
"///(///(///(/////(",
"__::__::__::____::",
"<[[[<[[[<[[[<[<[[[",
"}|12}|12}|12}|}|12",
"333333333333333333",
"455645564556454556",
"788978897889787889",
"0aaa0aaa0aaa0a0aaa",
"bbcdbbcdbbcdbbbbcd",
"eeefeeefeeefeeeeef",
"..++..++..++....++",
"@###@###@###@#@###",
"$%&&$%&&$%&&$%$%&&",
"***=***=***=*****=",
"-;;>-;;>-;;>-;-;;>",
",''),''),''),','')",
"!!!!!!!!!!!!!!!!!!",
"~{]^~{]^~{]^~{~{]^",
"///(///(///(/////(",
"__::__::__::____::",
"<[[[<[[[<[[[<[<[[[",
"}|12}|12}|12}|}|12",
"333333333333333333",
"455645564556454556",
"788978897889787889",
"0aaa0aaa0aaa0a0aaa",
"bbcdbbcdbbcdbbbbcd",
"eeefeeefeeefeeeeef"};
