/* XPM */
static char * titleAR_xpm[] = {
"4 18 18 1",
" 	c None",
".	c #839AA3",
"+	c #555555",
"@	c #7B929C",
"#	c #718B95",
"$	c #68838F",
"%	c #5F7B87",
"&	c #587381",
"*	c #4E6B7A",
"=	c #466373",
"-	c #455C66",
";	c #435962",
">	c #41555F",
",	c #3E525C",
"'	c #3C4E59",
")	c #3A4C56",
"!	c #374852",
"~	c #35454F",
"...+",
"...+",
"@@@+",
"###+",
"$$$+",
"%%%+",
"&&&+",
"***+",
"===+",
"---+",
";;;+",
">>>+",
",,,+",
"'''+",
")))+",
"!!!+",
"~~~+",
"~~~+"};
