/* XPM */
static char * frameAB_xpm[] = {
"1 4 4 1",
" 	c None",
".	c #FFFFFF",
"+	c #F0F0F0",
"@	c #757575",
"@",
".",
"+",
"@"};
