/* XPM */
static char * rollupA_xpm[] = {
"22 38 273 2",
"  	c None",
". 	c #E9E9E9",
"+ 	c #E5E5E5",
"@ 	c #A4A4A3",
"# 	c #5D5D5C",
"$ 	c #292929",
"% 	c #0F0F0F",
"& 	c #2C2C2C",
"* 	c #5D5D5D",
"= 	c #AEADAD",
"- 	c #F1F1F1",
"; 	c #F0F0F0",
"> 	c #E6E6E6",
", 	c #696769",
"' 	c #585858",
") 	c #9C9C9C",
"! 	c #C5C5C5",
"~ 	c #D7D7D7",
"{ 	c #CACACA",
"] 	c #A0A0A0",
"^ 	c #4B4B4B",
"/ 	c #6B6D6E",
"( 	c #FFFFFF",
"_ 	c #F6F6F6",
": 	c #747474",
"< 	c #5B5B5B",
"[ 	c #A9A9A9",
"} 	c #DDDDDD",
"| 	c #E8E8E8",
"1 	c #F9F9F9",
"2 	c #ECECEC",
"3 	c #D9D9D9",
"4 	c #AFAFAF",
"5 	c #757576",
"6 	c #9C9C9B",
"7 	c #414141",
"8 	c #7B7B7B",
"9 	c #B9B9B9",
"0 	c #D4D4D4",
"a 	c #D3D3D3",
"b 	c #BBBBBB",
"c 	c #777777",
"d 	c #474747",
"e 	c #959494",
"f 	c #DADADA",
"g 	c #4E4E4E",
"h 	c #6C6C6C",
"i 	c #ABABAB",
"j 	c #A2A2A2",
"k 	c #B2B2B2",
"l 	c #B5B5B5",
"m 	c #C1C1C1",
"n 	c #BABABA",
"o 	c #A6A6A6",
"p 	c #737373",
"q 	c #DCDCDC",
"r 	c #EEEEEE",
"s 	c #DBDBDB",
"t 	c #454545",
"u 	c #999999",
"v 	c #AAAAAA",
"w 	c #B0B0B0",
"x 	c #C0C0C0",
"y 	c #C7C7C7",
"z 	c #C2C2C2",
"A 	c #B6B6B6",
"B 	c #8F8F8F",
"C 	c #FDFDFD",
"D 	c #CECECE",
"E 	c #595959",
"F 	c #C9C9C9",
"G 	c #CFCFCF",
"H 	c #D5D5D5",
"I 	c #D8D8D8",
"J 	c #B1B1B1",
"K 	c #5E5E5E",
"L 	c #D2D2D2",
"M 	c #EFEFEF",
"N 	c #676767",
"O 	c #E2E2E2",
"P 	c #E0E0E0",
"Q 	c #D0D0D0",
"R 	c #C3C3C3",
"S 	c #626262",
"T 	c #BFBFBF",
"U 	c #B8B8B8",
"V 	c #6D6D6D",
"W 	c #D1D1D1",
"X 	c #F3F3F3",
"Y 	c #F7F7F7",
"Z 	c #F5F5F5",
"` 	c #767676",
" .	c #EAEAEA",
"..	c #7C7C7C",
"+.	c #E7E7E7",
"@.	c #FBFBFB",
"#.	c #FAFAFA",
"$.	c #EDEDED",
"%.	c #A7A7A7",
"&.	c #7A7A7A",
"*.	c #888888",
"=.	c #898989",
"-.	c #CCCCCC",
";.	c #FCFCFC",
">.	c #878787",
",.	c #8C8C8C",
"'.	c #9E9E9E",
").	c #6B6B6B",
"!.	c #E4E4E4",
"~.	c #939393",
"{.	c #D6D6D6",
"].	c #DEDEDE",
"^.	c #797A7A",
"/.	c #565656",
"(.	c #9F9F9F",
"_.	c #727272",
":.	c #5A5A5A",
"<.	c #7E7F7E",
"[.	c #CDCDCD",
"}.	c #B4B4B4",
"|.	c #898B8B",
"1.	c #4D4D4D",
"2.	c #434343",
"3.	c #424242",
"4.	c #4A4A4A",
"5.	c #656565",
"6.	c #8A8A8B",
"7.	c #B3B3B3",
"8.	c #CBCBCB",
"9.	c #E3E3E3",
"0.	c #BDBDBD",
"a.	c #A2A3A7",
"b.	c #8E8E92",
"c.	c #7F8080",
"d.	c #7F7F7F",
"e.	c #8F9090",
"f.	c #A2A6A6",
"g.	c #ACACAC",
"h.	c #A6A6A4",
"i.	c #A5A5A5",
"j.	c #A7A7A8",
"k.	c #BCBCBC",
"l.	c #C8C8C8",
"m.	c #C6C6C6",
"n.	c #757575",
"o.	c #A4A4A2",
"p.	c #F8F8F8",
"q.	c #443751",
"r.	c #75737F",
"s.	c #8D8D94",
"t.	c #908E92",
"u.	c #8B868A",
"v.	c #6A626B",
"w.	c #423748",
"x.	c #766388",
"y.	c #A198B1",
"z.	c #A99FB2",
"A.	c #A499AF",
"B.	c #A89AB1",
"C.	c #A191AE",
"D.	c #6F5E80",
"E.	c #DFDFDF",
"F.	c #462763",
"G.	c #5B3A76",
"H.	c #7B6292",
"I.	c #88749D",
"J.	c #937CAB",
"K.	c #9E85B2",
"L.	c #9379A8",
"M.	c #81659B",
"N.	c #8065A1",
"O.	c #523A70",
"P.	c #3A2550",
"Q.	c #949494",
"R.	c #60377F",
"S.	c #5E357A",
"T.	c #653F80",
"U.	c #765690",
"V.	c #7B5596",
"W.	c #734E8A",
"X.	c #805896",
"Y.	c #7A5297",
"Z.	c #6C4490",
"`.	c #502C77",
" +	c #3E205E",
".+	c #5D2D7A",
"++	c #764094",
"@+	c #7D4D9C",
"#+	c #653D82",
"$+	c #55266E",
"%+	c #401253",
"&+	c #572767",
"*+	c #744488",
"=+	c #714190",
"-+	c #673A8D",
";+	c #5D3581",
">+	c #723E8C",
",+	c #8649A5",
"'+	c #844DA3",
")+	c #623480",
"!+	c #4E195F",
"~+	c #562262",
"{+	c #4E1A55",
"]+	c #673171",
"^+	c #8C57A3",
"/+	c #8453A6",
"(+	c #6B3F8F",
"_+	c #804EA4",
":+	c #8B56AE",
"<+	c #8A5BA3",
"[+	c #572C62",
"}+	c #522A64",
"|+	c #5F3569",
"1+	c #522455",
"2+	c #6B3971",
"3+	c #9965AB",
"4+	c #8A57A5",
"5+	c #7C4A99",
"6+	c #7E4CA0",
"7+	c #9865B2",
"8+	c #A375B2",
"9+	c #764B7E",
"0+	c #603B6C",
"a+	c #69426F",
"b+	c #643A67",
"c+	c #724479",
"d+	c #A473B2",
"e+	c #9A6BB2",
"f+	c #794B90",
"g+	c #784994",
"h+	c #9467AD",
"i+	c #B184B2",
"j+	c #996F9B",
"k+	c #7B5D80",
"l+	c #6E4D6E",
"m+	c #8C678D",
"n+	c #9A73A3",
"o+	c #AC80B2",
"p+	c #9C73B2",
"q+	c #734E83",
"r+	c #795091",
"s+	c #845E94",
"t+	c #AB84B2",
"u+	c #B28FB2",
"v+	c #B29CB2",
"w+	c #B096AD",
"x+	c #B29BB2",
"y+	c #AD8CB2",
"z+	c #B18EB2",
"A+	c #826293",
"B+	c #543A5C",
"C+	c #785983",
"D+	c #74557F",
"E+	c #8B6C8F",
"F+	c #AD8DA7",
"G+	c #AD9BA9",
"H+	c #B2A0AD",
"I+	c #B29DAD",
"J+	c #9F87A3",
"K+	c #90779B",
"L+	c #5C4869",
"M+	c #503E54",
"N+	c #745D78",
"O+	c #5F485E",
"P+	c #675362",
"Q+	c #908390",
"R+	c #867782",
"S+	c #81727B",
"T+	c #71606F",
"U+	c #534359",
"V+	c #50445A",
"W+	c #A5A6AA",
"X+	c #A4A8A9",
". . . . . . . + @ # $ % & * = + . . . . . . ",
"- - - - - ; > , ' ) ! ~ { ] ^ / > ; - - - - ",
"( ( ( ( ( _ : < [ } | 1 2 3 4 * 5 _ ( ( ( ( ",
"- - - - 2 6 7 8 9 0 3 3 ~ a b c d e 2 - - - ",
". . . . f g h i j k b l m n o i p g q . . . ",
"r r r r s t u v w x x y z A A o B ^ 0 r r r ",
"C C C C D E w i F G H I 3 G G k J K L C C C ",
"M M M M n N x F I 3 . O > P L Q R S T M M M ",
"> > > > U V 9 W O r X Y Z M > f A ` w > > > ",
" . . . .z ..[ P +.@.( #.( #.r $.%.&.x  . . .",
"Y Y Y Y 3 *.=.-._ C ;.( _ ( C { >.,.f Y Y Y ",
"| | | | ~ '.).B f @.( ( ( ( !.~.V 6 {.| | | ",
"].].].].0 b ^./.: o W  .L (._.:.<.n L ].].].",
"P P P P q [.}.|.S 1.7 2.3.4.5.6.7.8.s P P P ",
" . . . . .9.L 0.a.b.c.` d.e.f.0.L 9. . . . .",
"3 3 3 3 3 I a y n g.h.i.j.w k.F a I 3 3 3 3 ",
"D D D D D D D { ! 0.U U b x y 8.D D D D D D ",
"8.8.8.8.F { { l.y y ! ! m.y F { F { { 8.8.8.",
"n.n.n.n.V h h V V h h V V V h h V h h n.n.n.",
". . . . - ;  .} o.# $ % & * v ]. .; - . . . ",
"- - - - ( p.O , q.r.s.t.u.v.w./ O p.( - - - ",
"( ( ( ( 2 ].: < x.y.z.A.B.C.D.* 5 E.2 ( ( ( ",
"- - - - } 6 F.G.H.I.J.K.L.M.N.O.P.Q.} - - - ",
". . . . f g R.S.T.U.V.W.X.Y.Z.`. +g q . . . ",
"r r r r ].t .+++@+#+$+%+&+*+=+-+;+^ I r r r ",
"C C C C [.E >+,+'+)+!+~+{+]+^+/+(+K W C C C ",
"M M M M n N _+:+<+[+}+|+1+2+3+4+5+S T M M M ",
"> > > > U V 6+7+8+9+0+a+b+c+d+e+f+` w > > > ",
" . . . .! ..g+h+i+j+k+l+m+n+o+p+q+&.R  . . .",
"Y Y Y Y a *.r+s+t+u+v+w+x+y+z+A+B+,.L Y Y Y ",
"| | | | 0 '.C+D+E+F+G+H+I+J+K+L+M+6 L | | | ",
"].].].].q F ^.N+O+P+Q+R+S+T+U+V+<.l.s ].].].",
"P P P P  .9.[.|.S 1.7 2.3.4.5.6.-.9. .P P P ",
" . . . .3 I a y W+b.c.` d.e.X+F a I 3  . . .",
"3 3 3 3 3 I a y n g.h.i.j.w k.F a I 3 3 3 3 ",
"D D D D D D D { ! 0.U U b x y 8.D D D D D D ",
"8.8.8.8.F { { l.y y ! ! m.y F { F { { 8.8.8.",
"n.n.n.n.V h h V V h h V V V h h V h h n.n.n."};
