/* XPM */
static char * dframeATL_xpm[] = {
"12 13 3 1",
" 	c None",
".	c #000000",
"+	c #EEF4FC",
"............",
".+++++++++++",
".+          ",
".+          ",
".+          ",
".+          ",
".+          ",
".+          ",
".+          ",
".+          ",
".+          ",
".+          ",
".+          "};
