/* XPM */
static char * dot_xpm[] = {
"5 20 29 1",
" 	c None",
".	c #6A84AE",
"+	c #8CA3C4",
"@	c #ACC2DA",
"#	c #94B3D1",
"$	c #7EA3CA",
"%	c #6893C3",
"&	c #588ABD",
"*	c #5A8CC5",
"=	c #6496CF",
"-	c #6CA1D8",
";	c #76ACE3",
">	c #81B6EE",
",	c #8CBFF7",
"'	c #98CAFD",
")	c #769DC5",
"!	c #324354",
"~	c #54708C",
"{	c #A4D4FF",
"]	c #6D8DAA",
"^	c #000000",
"/	c #364655",
"(	c #ADDCFF",
"_	c #7392AA",
":	c #394955",
"<	c #B3E2FF",
"[	c #AEE1FF",
"}	c #A2D6FF",
"|	c #88C1F8",
".....",
"+++++",
"@@@@@",
"#####",
"$$$$$",
"%%%%%",
"&&&&&",
"*****",
"=====",
"-----",
";;;;;",
">>>>>",
",,,,,",
"')!~'",
"{]^/{",
"(_^:(",
"<<<<<",
"[[[[[",
"}}}}}",
"|||||"};
