/* XPM */
static char * n2_xpm[] = {
"15 20 52 1",
" 	c None",
".	c #6A84AE",
"+	c #8CA3C4",
"@	c #ACC2DA",
"#	c #728191",
"$	c #94B3D1",
"%	c #21282E",
"&	c #000000",
"*	c #62778B",
"=	c #7EA3CA",
"-	c #0E1216",
";	c #465A70",
">	c #7091B3",
",	c #2A3643",
"'	c #627F9D",
")	c #6893C3",
"!	c #5C82AD",
"~	c #223141",
"{	c #588ABD",
"]	c #1D2E3F",
"^	c #5A8CC5",
"/	c #466D99",
"(	c #283E58",
"_	c #6496CF",
":	c #213245",
"<	c #4E75A1",
"[	c #6CA1D8",
"}	c #486B90",
"|	c #304760",
"1	c #76ACE3",
"2	c #4E7297",
"3	c #27394B",
"4	c #81B6EE",
"5	c #56799E",
"6	c #0E141B",
"7	c #8CBFF7",
"8	c #5D7FA4",
"9	c #2E3F52",
"0	c #98CAFD",
"a	c #6586A8",
"b	c #324354",
"c	c #A4D4FF",
"d	c #7FA5C7",
"e	c #12181D",
"f	c #6D8DAA",
"g	c #91BCE3",
"h	c #ADDCFF",
"i	c #7392AA",
"j	c #B3E2FF",
"k	c #AEE1FF",
"l	c #A2D6FF",
"m	c #88C1F8",
"...............",
"+++++++++++++++",
"@@@@@###@@@@@@@",
"$$$%&&&&&*$$$$$",
"===-;>=>,&'====",
")))!))))!&~))))",
"{{{{{{{{{&]{{{{",
"^^^^^^^^/&(^^^^",
"________:&<____",
"[[[[[[[}&|[[[[[",
"1111112&3111111",
"444445&64444444",
"77778&977777777",
"000a&b000000000",
"ccd&effffffgccc",
"hhi&&&&&&&&ihhh",
"jjjjjjjjjjjjjjj",
"kkkkkkkkkkkkkkk",
"lllllllllllllll",
"mmmmmmmmmmmmmmm"};
