/* XPM */
static char * n6_xpm[] = {
"15 20 62 1",
" 	c None",
".	c #6A84AE",
"+	c #8CA3C4",
"@	c #ACC2DA",
"#	c #728191",
"$	c #94B3D1",
"%	c #839FBA",
"&	c #42505D",
"*	c #000000",
"=	c #7EA3CA",
"-	c #7091B3",
";	c #0E1216",
">	c #465A70",
",	c #627F9D",
"'	c #6893C3",
")	c #2E4157",
"!	c #5C82AD",
"~	c #588ABD",
"{	c #4E7AA8",
"]	c #273D54",
"^	c #5A8CC5",
"/	c #3C5D83",
"(	c #466D99",
"_	c #507CAF",
":	c #6496CF",
"<	c #213245",
"[	c #16212E",
"}	c #5985B8",
"|	c #6CA1D8",
"1	c #243548",
"2	c #304760",
"3	c #608FC0",
"4	c #3C5978",
"5	c #182330",
"6	c #76ACE3",
"7	c #27394B",
"8	c #344C65",
"9	c #5C86B1",
"0	c #81B6EE",
"a	c #2B3C4F",
"b	c #56799E",
"c	c #8CBFF7",
"d	c #4D6A89",
"e	c #6D95C0",
"f	c #5D7FA4",
"g	c #98CAFD",
"h	c #769DC5",
"i	c #435A71",
"j	c #324354",
"k	c #A4D4FF",
"l	c #364655",
"m	c #5B768E",
"n	c #495E72",
"o	c #ADDCFF",
"p	c #394955",
"q	c #4D6272",
"r	c #B3E2FF",
"s	c #9FC9E3",
"t	c #7796AA",
"u	c #AEE1FF",
"v	c #A2D6FF",
"w	c #88C1F8",
"...............",
"+++++++++++++++",
"@@@@@@@###@@@@@",
"$$$$%&****$$$$$",
"===-;;>==,=====",
"''')*!'''''''''",
"~~{*]~~~~~~~~~~",
"^^/*(_//(^^^^^^",
"::<*<****[}::::",
"||1*23||4*5||||",
"667*666668*9666",
"00a*00000b*b000",
"ccd*eccccf*fccc",
"ggh*iggggj*gggg",
"kkkl*mkkm*nkkkk",
"oooop****qooooo",
"rrrrrsttsrrrrrr",
"uuuuuuuuuuuuuuu",
"vvvvvvvvvvvvvvv",
"wwwwwwwwwwwwwww"};
