/* XPM */
static char * n7_xpm[] = {
"15 20 43 1",
" 	c None",
".	c #6A84AE",
"+	c #8CA3C4",
"@	c #ACC2DA",
"#	c #94B3D1",
"$	c #000000",
"%	c #7EA3CA",
"&	c #546C86",
"*	c #0E1216",
"=	c #6893C3",
"-	c #517298",
";	c #2E4157",
">	c #588ABD",
",	c #131E2A",
"'	c #4E7AA8",
")	c #5A8CC5",
"!	c #3C5D83",
"~	c #324D6D",
"{	c #6496CF",
"]	c #0B1117",
"^	c #6CA1D8",
"/	c #3C5978",
"(	c #76ACE3",
"_	c #0D1319",
":	c #81B6EE",
"<	c #39516A",
"[	c #56799E",
"}	c #8CBFF7",
"|	c #7CAADB",
"1	c #1F2A37",
"2	c #98CAFD",
"3	c #435A71",
"4	c #769DC5",
"5	c #A4D4FF",
"6	c #7FA5C7",
"7	c #242F39",
"8	c #ADDCFF",
"9	c #263139",
"0	c #87ABC7",
"a	c #B3E2FF",
"b	c #AEE1FF",
"c	c #A2D6FF",
"d	c #88C1F8",
"...............",
"+++++++++++++++",
"@@@@@@@@@@@@@@@",
"###$$$$$$$$$###",
"%%%&&&&&&&*$%%%",
"=========-$;===",
">>>>>>>>>,$'>>>",
"))))))))!$~))))",
"{{{{{{{{]]{{{{{",
"^^^^^^^/$/^^^^^",
"(((((((__((((((",
"::::::<$[::::::",
"}}}}}|$1}}}}}}}",
"222223$42222222",
"55556$755555555",
"88889$088888888",
"aaaaaaaaaaaaaaa",
"bbbbbbbbbbbbbbb",
"ccccccccccccccc",
"ddddddddddddddd"};
