/* XPM */
static char * folder_32x32_xpm[] = {
"32 32 144 2",
"  	c None",
". 	c #FFFFFF",
"+ 	c #FFFF80",
"@ 	c #808040",
"# 	c #FEFEFE",
"$ 	c #F4F4F4",
"% 	c #B7B7B7",
"& 	c #474747",
"* 	c #FEFEE5",
"= 	c #FEFEBD",
"- 	c #FEFEA8",
"; 	c #FEFEA5",
"> 	c #FFFFA6",
", 	c #F9F9A1",
"' 	c #D6D687",
") 	c #7F7F4A",
"! 	c #282815",
"~ 	c #F0F0D7",
"{ 	c #D9D99A",
"] 	c #CECE79",
"^ 	c #CCCC74",
"/ 	c #CDCD75",
"( 	c #C9C972",
"_ 	c #B2B263",
": 	c #71713C",
"< 	c #262613",
"[ 	c #FEFEDA",
"} 	c #FEFEA2",
"| 	c #FEFE84",
"1 	c #FEFE7F",
"2 	c #FFFF82",
"3 	c #FFFF86",
"4 	c #FFFF89",
"5 	c #FFFF8A",
"6 	c #FEFE8A",
"7 	c #F9F987",
"8 	c #D6D673",
"9 	c #7F7F42",
"0 	c #282814",
"a 	c #FEFEE3",
"b 	c #FEFEBC",
"c 	c #FEFEAB",
"d 	c #FEFEAA",
"e 	c #FFFFAC",
"f 	c #FFFFAB",
"g 	c #FFFFAA",
"h 	c #FFFFA8",
"i 	c #FFFFA5",
"j 	c #FEFEA4",
"k 	c #FAFAA0",
"l 	c #DBDB87",
"m 	c #A3A35B",
"n 	c #000000",
"o 	c #F9F9DF",
"p 	c #F1F1AE",
"q 	c #ECEC94",
"r 	c #ECEC8F",
"s 	c #EDED90",
"t 	c #E8E88C",
"u 	c #CECE78",
"v 	c #9E9E55",
"w 	c #F1F1DA",
"x 	c #DDDDA0",
"y 	c #D2D281",
"z 	c #D1D17C",
"A 	c #D2D27D",
"B 	c #CECE7A",
"C 	c #BBBB6B",
"D 	c #969650",
"E 	c #EEEED8",
"F 	c #D7D79D",
"G 	c #CACA7D",
"H 	c #C8C878",
"I 	c #C9C979",
"J 	c #C6C676",
"K 	c #B4B469",
"L 	c #94944F",
"M 	c #F0F0DA",
"N 	c #DBDBA1",
"O 	c #CFCF83",
"P 	c #CECE7E",
"Q 	c #CFCF7F",
"R 	c #CBCB7C",
"S 	c #B9B96D",
"T 	c #969651",
"U 	c #F2F2DC",
"V 	c #DFDFA6",
"W 	c #D5D588",
"X 	c #D4D484",
"Y 	c #D5D585",
"Z 	c #D1D182",
"` 	c #BDBD71",
" .	c #979753",
"..	c #F4F4DD",
"+.	c #E4E4AA",
"@.	c #DBDB8E",
"#.	c #DADA8A",
"$.	c #DBDB8B",
"%.	c #D7D788",
"&.	c #C1C176",
"*.	c #999954",
"=.	c #F5F5DF",
"-.	c #E8E8AD",
";.	c #E1E193",
">.	c #E0E08F",
",.	c #E1E190",
"'.	c #DDDD8C",
").	c #C5C579",
"!.	c #9B9B56",
"~.	c #F7F7E0",
"{.	c #ECECB2",
"].	c #E6E699",
"^.	c #E6E695",
"/.	c #E7E796",
"(.	c #E2E292",
"_.	c #CACA7E",
":.	c #9C9C57",
"<.	c #F8F8E2",
"[.	c #F0F0B6",
"}.	c #EBEB9E",
"|.	c #EBEB9B",
"1.	c #ECEC9C",
"2.	c #E7E798",
"3.	c #CDCD82",
"4.	c #9E9E59",
"5.	c #FAFAE4",
"6.	c #F4F4BA",
"7.	c #F1F1A4",
"8.	c #F1F1A1",
"9.	c #F2F2A2",
"0.	c #EDED9E",
"a.	c #D2D286",
"b.	c #9F9F5B",
"c.	c #FCFCE5",
"d.	c #F8F8BF",
"e.	c #F7F7AA",
"f.	c #F7F7A7",
"g.	c #F8F8A8",
"h.	c #F3F3A3",
"i.	c #D6D68B",
"j.	c #A1A15C",
"k.	c #FAFA7D",
"l.	c #DBDB6E",
"m.	c #A3A351",
"                                                                ",
"                                                                ",
"                                                                ",
"                                                                ",
"                                                                ",
"                                                                ",
"      . . . . . . . . . .                                       ",
"    . + + + + + + + + + + @                                     ",
"  . @ @ @ @ @ @ @ @ @ @ @ @ @                                   ",
"  # # # # # # . . . . . . . . . . . . . . . . . . . . . # $ % & ",
"  * = - ; ; ; > > > > > > > > > > > > > > > > > > > > ; , ' ) ! ",
"  ~ { ] ^ ^ ^ / / / / / / / / / / / / / / / / / / / / ^ ( _ : < ",
"  [ } | 1 1 1 + + + + + + + + + + + + + + + + 2 3 4 5 6 7 8 9 0 ",
"  a b c d c c c c c c c c c c c c e e e e e f g h > i j k l m n ",
"  o p q r r r r r r r r r r r r r s s s s s s s s s s r t u v n ",
"  w x y z z z z z z z z z z z z z A A A A A A A A A A z B C D n ",
"  E F G H H H H H H H H H H H H H I I I I I I I I I I H J K L n ",
"  M N O P P P P P P P P P P P P P Q Q Q Q Q Q Q Q Q Q P R S T n ",
"  U V W X X X X X X X X X X X X X Y Y Y Y Y Y Y Y Y Y X Z `  .n ",
"  ..+.@.#.#.#.#.#.#.#.#.#.#.#.#.#.$.$.$.$.$.$.$.$.$.$.#.%.&.*.n ",
"  =.-.;.>.>.>.>.>.>.>.>.>.>.>.>.>.,.,.,.,.,.,.,.,.,.,.>.'.).!.n ",
"  ~.{.].^.^.^.^.^.^.^.^.^.^.^.^.^././././././././././.^.(._.:.n ",
"  <.[.}.|.|.|.|.|.|.|.|.|.|.|.|.|.1.1.1.1.1.1.1.1.1.1.|.2.3.4.n ",
"  5.6.7.8.8.8.8.8.8.8.8.8.8.8.8.8.9.9.9.9.9.9.9.9.9.9.8.0.a.b.n ",
"  c.d.e.f.f.f.f.f.f.f.f.f.f.f.f.f.g.g.g.g.g.g.g.g.g.g.f.h.i.j.n ",
"  [ } | 1 1 1 1 1 1 1 1 1 1 1 1 1 + + + + + + + + + + 1 k.l.m.n ",
"  [ } | 1 1 1 1 1 1 1 1 1 1 1 1 1 + + + + + + + + + + 1 k.l.m.n ",
"  + @ @ @ @ @ @ @ @ @ @ @ @ @ @ @ @ @ @ @ @ @ @ @ @ @ @ @ @ @ n ",
"  n n n n n n n n n n n n n n n n n n n n n n n n n n n n n n n ",
"                                                                ",
"                                                                ",
"                                                                "};
