/* XPM */
static char * app_32x32_xpm[] = {
"32 32 100 2",
"  	c None",
". 	c #075D83",
"+ 	c #555555",
"@ 	c #FFFFFF",
"# 	c #EEEEEE",
"$ 	c #C3C3C3",
"% 	c #ECF6FA",
"& 	c #DAEEF4",
"* 	c #C9E4EE",
"= 	c #B6DAE7",
"- 	c #A2CFDF",
"; 	c #90C3D6",
"> 	c #7DB7CC",
", 	c #6AA9C2",
"' 	c #559BB6",
") 	c #418BAA",
"! 	c #2D7C9D",
"~ 	c #186B8F",
"{ 	c #878787",
"] 	c #1B9FC8",
"^ 	c #1A99C3",
"/ 	c #1894BE",
"( 	c #168FB8",
"_ 	c #148AB3",
": 	c #1384AD",
"< 	c #117FA8",
"[ 	c #0F7AA2",
"} 	c #0D759D",
"| 	c #0C6F97",
"1 	c #0A6A92",
"2 	c #08658C",
"3 	c #066087",
"4 	c #1997C1",
"5 	c #1893BC",
"6 	c #168EB7",
"7 	c #1489B2",
"8 	c #1284AD",
"9 	c #117FA7",
"0 	c #0D749C",
"a 	c #0B6F97",
"b 	c #06597D",
"c 	c #065578",
"d 	c #065273",
"e 	c #054E6E",
"f 	c #054A68",
"g 	c #054663",
"h 	c #05435E",
"i 	c #043F59",
"j 	c #043B54",
"k 	c #04384F",
"l 	c #033449",
"m 	c #033044",
"n 	c #032C3F",
"o 	c #CACACA",
"p 	c #BEBEBE",
"q 	c #C9C9C9",
"r 	c #FAFAFA",
"s 	c #F9F9F9",
"t 	c #F8F8F8",
"u 	c #F6F6F6",
"v 	c #F5F5F5",
"w 	c #F4F4F4",
"x 	c #F2F2F2",
"y 	c #F0F0F0",
"z 	c #EDEDED",
"A 	c #BDBDBD",
"B 	c #C8C8C8",
"C 	c #FEFEFE",
"D 	c #F7F7F7",
"E 	c #F3F3F3",
"F 	c #F1F1F1",
"G 	c #ECECEC",
"H 	c #C7C7C7",
"I 	c #7D7D7D",
"J 	c #EFEFEF",
"K 	c #EAEAEA",
"L 	c #BCBCBC",
"M 	c #C6C6C6",
"N 	c #BBBBBB",
"O 	c #C5C5C5",
"P 	c #FDFDFD",
"Q 	c #EBEBEB",
"R 	c #E9E9E9",
"S 	c #BABABA",
"T 	c #E8E8E8",
"U 	c #B9B9B9",
"V 	c #C4C4C4",
"W 	c #FCFCFC",
"X 	c #E7E7E7",
"Y 	c #B8B8B8",
"Z 	c #B7B7B7",
"` 	c #C2C2C2",
" .	c #FBFBFB",
"..	c #E6E6E6",
"+.	c #B6B6B6",
"@.	c #C1C1C1",
"#.	c #B5B5B5",
"$.	c #C0C0C0",
"%.	c #BFBFBF",
"&.	c #B4B4B4",
"                                                                ",
"                                                                ",
"                                                                ",
"                                                                ",
"                                                                ",
"                                                                ",
"                                                                ",
"          . . . . . . . . . . . . . . . . . . . . . . .         ",
"          + @ # # $ @ % & * = - ; > , ' ) ! ~ @ # # $ .         ",
"          + # $ $ { ] ^ / ( _ : < [ } | 1 2 3 # $ $ { .         ",
"          + # $ $ { ^ 4 5 6 7 8 9 [ 0 a 1 2 3 # $ $ { .         ",
"          + { { { { b c d e f g h i j k l m n { { { { +         ",
"          + o @ @ @ @ @ @ @ @ @ @ @ @ @ @ @ @ @ @ @ p +         ",
"          + q @ $ $ $ $ $ $ $ $ r s t u v w x y # z A +         ",
"          + B C $ @ @ $ @ @ $ $ s t D u w E F y # G A +         ",
"          + H C $ @ $ I @ $ I $ s t u v w x F J z K L +         ",
"          + M C $ $ I I $ I I $ t D u v E F J # G K N +         ",
"          + O P $ @ @ $ @ @ $ $ t u v w x F J z Q R S +         ",
"          + O P $ @ $ I @ $ I $ D v w E F J # G K T U +         ",
"          + V W $ $ I I $ I I $ u w E F y # z Q R X Y +         ",
"          + $ W $ $ $ $ $ $ $ $ v E x F J z G K T X Z +         ",
"          + `  . .r s t t u u w w x y y # G K T X ..+.+         ",
"          + @. .r s t t D u v E x F J # G Q R X ....#.+         ",
"          + $.%.%.p p p A L L N N S S U Y Z +.+.#.&.&.+         ",
"          + + + + + + + + + + + + + + + + + + + + + + +         ",
"                                                                ",
"                                                                ",
"                                                                ",
"                                                                ",
"                                                                ",
"                                                                ",
"                                                                "};
