/* XPM */
static char * folder_xpm[] = {
"16 16 96 2",
"  	c None",
". 	c #091E51",
"+ 	c #4C3A24",
"@ 	c #334F96",
"# 	c #1137A0",
"$ 	c #F8F6F1",
"% 	c #FAF7F3",
"& 	c #023751",
"* 	c #B2D6E2",
"= 	c #6895B5",
"- 	c #EEE7DF",
"; 	c #F1EBE2",
"> 	c #F4EEE6",
", 	c #98D3E2",
"' 	c #A1D7E5",
") 	c #60A2B2",
"! 	c #E3D8CA",
"~ 	c #E7DDCF",
"{ 	c #EDE3D6",
"] 	c #F2E7DA",
"^ 	c #89C0D3",
"/ 	c #82C9DB",
"( 	c #8ACDDE",
"_ 	c #93D1E0",
": 	c #9CD5E3",
"< 	c #E3D6C3",
"[ 	c #E9DBC9",
"} 	c #EDE0CC",
"| 	c #69B0C9",
"1 	c #7AB9CF",
"2 	c #74C2D6",
"3 	c #7DC6D9",
"4 	c #85CADC",
"5 	c #8ECEDF",
"6 	c #97D2E2",
"7 	c #E4D4BC",
"8 	c #E7D7C0",
"9 	c #3897BA",
"0 	c #49A0BF",
"a 	c #5AA8C5",
"b 	c #1E86AE",
"c 	c #66BCD2",
"d 	c #6FC0D5",
"e 	c #78C4D7",
"f 	c #80C8DA",
"g 	c #89CCDD",
"h 	c #92D0E0",
"i 	c #353535",
"j 	c #F3F3F3",
"k 	c #024266",
"l 	c #3A749D",
"m 	c #487EA4",
"n 	c #5688AB",
"o 	c #58B6CD",
"p 	c #61BAD0",
"q 	c #6ABED3",
"r 	c #73C2D6",
"s 	c #7BC6D9",
"t 	c #F7F7F7",
"u 	c #F0F0F0",
"v 	c #E8E8E8",
"w 	c #E1E1E1",
"x 	c #286793",
"y 	c #36719A",
"z 	c #447BA2",
"A 	c #4BAFC9",
"B 	c #53B3CC",
"C 	c #5CB7CE",
"D 	c #ECECEC",
"E 	c #E5E5E5",
"F 	c #DDDDDD",
"G 	c #D6D6D6",
"H 	c #CFCFCF",
"I 	c #246491",
"J 	c #326E98",
"K 	c #3791A8",
"L 	c #4E82A7",
"M 	c #477DA3",
"N 	c #DADADA",
"O 	c #D2D2D2",
"P 	c #CBCBCB",
"Q 	c #C4C4C4",
"R 	c #BDBDBD",
"S 	c #20618F",
"T 	c #2E6B96",
"U 	c #3E779E",
"V 	c #467DA3",
"W 	c #C7C7C7",
"X 	c #C0C0C0",
"Y 	c #7C7C7C",
"Z 	c #B2B2B2",
"` 	c #2E6C93",
" .	c #367298",
"..	c #BEBEBE",
"+.	c #25668D",
"@.	c #155B82",
"                                ",
"          . .     + +           ",
"        . @ # . + $ % +         ",
"      & * = # @ . - ; > +       ",
"      & = , ' ) . ! ~ { ] +     ",
"    & ^ = / ( _ : & & < [ } +   ",
"    & | 1 = 2 3 4 5 6 & & 7 8 + ",
"  & 9 0 a b = c d e f g h & 8 + ",
"  i j k b l m n o p q r s & +   ",
"i t u v w k x y z A B C ) &     ",
"i j D E F G H k I J K L & M &   ",
"  i i w N O P Q R k S T & U V & ",
"      i i H W X Y Z Y & `  .&   ",
"          i i Y ..Y Z i +.&     ",
"              i i ..i @.&       ",
"                  i i &         "};
